<svg width="12" height="12" viewBox="0 0 12 12" fill="none" xmlns="http://www.w3.org/2000/svg">
<path fill-rule="evenodd" clip-rule="evenodd" d="M8 1.00006C8 0.447776 7.55228 6.10352e-05 7 6.10352e-05H5C4.44772 6.10352e-05 4 0.447776 4 1.00006L4 3.81825H1C0.447715 3.81825 0 4.26597 0 4.81825V6.81825C0 7.37054 0.447715 7.81825 1 7.81825H4L4 11.0001C4 11.5523 4.44771 12.0001 5 12.0001H7C7.55228 12.0001 8 11.5523 8 11.0001V7.81825H11C11.5523 7.81825 12 7.37054 12 6.81825V4.81825C12 4.26597 11.5523 3.81825 11 3.81825H8V1.00006Z" fill="#1D55A3"/>
</svg>
