<svg width="195" height="174" viewBox="0 0 195 174" fill="none" xmlns="http://www.w3.org/2000/svg">
<g clip-path="url(#clip0_1009_263)">
<path d="M162.923 173.231L162.558 173.771L162.759 173.907L163.001 173.878L162.923 173.231ZM130.493 151.3L130.858 150.76L130.812 150.728L130.76 150.705L130.493 151.3ZM97.7784 136.637L97.2994 137.079L97.39 137.177L97.5119 137.232L97.7784 136.637ZM66.1193 102.306L65.6209 102.725L65.6304 102.737L65.6403 102.747L66.1193 102.306ZM33.8143 63.9603L33.2364 64.2615L33.2696 64.3252L33.3159 64.3802L33.8143 63.9603ZM1.57786 0.698827L1.27668 0.120969L0.120969 0.723316L0.422142 1.30117L1.57786 0.698827ZM194.664 168.707L162.844 172.584L163.001 173.878L194.822 170.001L194.664 168.707ZM163.288 172.691L130.858 150.76L130.128 151.839L162.558 173.771L163.288 172.691ZM130.76 150.705L98.0449 136.043L97.5119 137.232L130.227 151.894L130.76 150.705ZM98.2575 136.196L66.5983 101.864L65.6403 102.747L97.2994 137.079L98.2575 136.196ZM66.6176 101.886L34.3126 63.5405L33.3159 64.3802L65.6209 102.725L66.6176 101.886ZM34.3921 63.6592L1.57786 0.698827L0.422142 1.30117L33.2364 64.2615L34.3921 63.6592Z" fill="#4E7638"/>
</g>
<defs>
<clipPath id="clip0_1009_263">
<rect width="195" height="174" fill="white"/>
</clipPath>
</defs>
</svg>
