<svg xmlns="http://www.w3.org/2000/svg" xmlns:xlink="http://www.w3.org/1999/xlink" width="491.649" height="202.631" viewBox="0 0 491.649 202.631">
    <defs>
        <linearGradient id="linear-gradient" y1="2.596" x2="1" y2="2.596" gradientUnits="objectBoundingBox">
            <stop offset="0" stop-color="#7de1de"/>
            <stop offset="0.342" stop-color="#42cde5"/>
            <stop offset="0.7" stop-color="#00b6ed"/>
        </linearGradient>
        <linearGradient id="linear-gradient-2" y1="2.652" x2="1" y2="2.652" gradientUnits="objectBoundingBox">
            <stop offset="0.23" stop-color="#00b6ed"/>
            <stop offset="0.302" stop-color="#00a2d4"/>
            <stop offset="0.44" stop-color="#0082ab"/>
            <stop offset="0.566" stop-color="#006a8d"/>
            <stop offset="0.674" stop-color="#005b7b"/>
            <stop offset="0.75" stop-color="#005674"/>
        </linearGradient>
    </defs>
    <g id="Abilify_Asimtufii_Logo_Lockup_R_RGB" transform="translate(-89.4 -89.4)">
        <g id="Group_35" data-name="Group 35" transform="translate(125.288 89.4)">
            <path id="Path_480" data-name="Path 480" d="M392.644,117.043c-23.133-.58-98.852,1.16-194.4,35.424-19.249,6.9-35.076,13.741-46.846,19.191h49.8c9.334-5.334,22.959-12,38.207-18.785C280.69,134.61,337.16,124,369.337,119.652a212.1,212.1,0,0,1,21.8-2.261c.58,0,1.044-.058,1.507-.058a.185.185,0,0,0,.174-.174S392.7,117.043,392.644,117.043Z" transform="translate(-151.342 -100.983)" fill="url(#linear-gradient)"/>
            <path id="Path_481" data-name="Path 481" d="M237.3,173.748h50.324C321.367,140,373.895,126.554,405.377,121.8c-32.178,4.29-88.59,14.958-129.87,33.221A417.421,417.421,0,0,0,237.3,173.748Z" transform="translate(-187.439 -103.015)" fill="url(#linear-gradient-2)"/>
            <path id="Path_482" data-name="Path 482" d="M180.695,147.535l22.5-38.9L192.116,89.5h0L151.3,160.175C159.3,156.464,169.157,152.116,180.695,147.535Z" transform="translate(-151.3 -89.442)" fill="#0086a1"/>
            <path id="Path_483" data-name="Path 483" d="M283.33,157.871,243.847,89.4H221.7l40.816,70.733H628.18v-2.261Z" transform="translate(-180.884 -89.4)" fill="#005674"/>
        </g>
        <g id="Group_37" data-name="Group 37" transform="translate(572.701 195.963)">
            <g id="Group_36" data-name="Group 36" transform="translate(0 0)">
                <path id="Path_484" data-name="Path 484" d="M931.349,277.374a4.174,4.174,0,1,1-4.174-4.174A4.157,4.157,0,0,1,931.349,277.374Zm-.812,0a3.421,3.421,0,1,0-3.421,3.421A3.39,3.39,0,0,0,930.537,277.374Zm-3.015-2.087a1.251,1.251,0,0,1,1.392,1.275,1.191,1.191,0,0,1-.928,1.218l1.043,1.681H928.1l-.928-1.623h-.754v1.623h-.812v-4.174Zm-1.1,1.913h.928a.675.675,0,0,0,.754-.638c0-.406-.29-.638-.754-.638h-.928Z" transform="translate(-923 -273.2)" fill="#005674"/>
            </g>
        </g>
        <g id="Group_38" data-name="Group 38" transform="translate(516.114 136.826)">
            <path id="Path_485" data-name="Path 485" d="M826.965,183.375a4.668,4.668,0,0,0,2.261.58c3.015,0,4.232-2.493,4.406-5.74h-.058a4.448,4.448,0,0,1-3.769,1.739,4.139,4.139,0,0,1-4.406-4.29c0-2.609,1.913-4.464,4.812-4.464,3.943,0,5.1,3.3,5.1,6.551,0,3.653-1.449,7.769-6.2,7.769a6.551,6.551,0,0,1-2.957-.638Zm6.32-7.479a2.972,2.972,0,0,0-3.073-3.073,2.68,2.68,0,0,0-2.9,2.783,2.65,2.65,0,0,0,2.9,2.783C831.6,178.389,833.285,177.751,833.285,175.9Z" transform="translate(-825.4 -171.2)" fill="#005674"/>
            <path id="Path_486" data-name="Path 486" d="M854.6,173.5a4.879,4.879,0,0,0-2.435-.58c-2.9,0-4.232,2.319-4.406,5.45h.058a4.719,4.719,0,0,1,3.769-1.681,4.246,4.246,0,0,1,4.464,4.406c0,2.667-1.913,4.522-4.928,4.522-3.943,0-5.218-3.189-5.218-6.551,0-3.827,1.623-7.769,6.319-7.769a7.066,7.066,0,0,1,3.073.7Zm-.348,7.653a2.77,2.77,0,0,0-3.015-2.9c-1.623,0-3.131.87-3.131,2.609A3.041,3.041,0,0,0,851.292,184,2.711,2.711,0,0,0,854.249,181.156Z" transform="translate(-834.015 -171.242)" fill="#005674"/>
            <path id="Path_487" data-name="Path 487" d="M866.1,178.389c0-3.653.928-7.189,5.044-7.189s5.044,3.479,5.044,7.131-.927,7.189-5.044,7.189C867.028,185.578,866.1,182.1,866.1,178.389Zm8.175,0c0-2.725-.29-5.566-3.131-5.566s-3.131,2.841-3.131,5.566.29,5.566,3.131,5.566C874.043,183.955,874.275,181.114,874.275,178.389Z" transform="translate(-842.503 -171.2)" fill="#005674"/>
            <path id="Path_488" data-name="Path 488" d="M897.6,178.6v9.856h-1.8v-7.247h0l-2.551,7.247H891.69l-2.551-7.189h0v7.189H887.4V178.6h2.551l2.609,7.6h0l2.609-7.6Z" transform="translate(-851.454 -174.31)" fill="#005674"/>
            <path id="Path_489" data-name="Path 489" d="M916.413,183.038v5.334h-1.623v-1.16h0a3.1,3.1,0,0,1-2.783,1.334c-2.841,0-4.406-2.2-4.406-4.986,0-2.9,1.681-5.16,4.812-5.16a4.423,4.423,0,0,1,3.943,2.029l-1.391.928a2.83,2.83,0,0,0-2.551-1.449c-1.971,0-3.015,1.565-3.015,3.653,0,2.145.986,3.595,2.9,3.595a2.178,2.178,0,0,0,2.377-2.319v-.29h-2.261V183.1h4Z" transform="translate(-859.943 -174.226)" fill="#005674"/>
        </g>
        <g id="Group_42" data-name="Group 42" transform="translate(89.4 176.946)">
            <path id="Path_490" data-name="Path 490" d="M906.369,257.137a3.724,3.724,0,0,0,3.769-3.769,3.623,3.623,0,0,0-3.769-3.769,3.877,3.877,0,0,0-3.769,3.769A3.725,3.725,0,0,0,906.369,257.137Z" transform="translate(-431.127 -244.266)" fill="#005674"/>
            <path id="Path_491" data-name="Path 491" d="M909.736,304.582c-2.435-.174-3.3-.522-3.3-3.015V274.318c0-.754-.348-1.218-.812-1.218-.812,0-1.855.928-5.1,2.2-2.261.928-4.464.928-4.464,2.029,0,1.681,4-.58,4,2.319v21.8c0,3.363-1.623,3.015-3.3,3.189-1.1.116-1.449.638-1.449.928,0,.928.927.87,1.565.87H909.62c.754,0,1.681,0,1.681-.928C911.244,304.7,910.432,304.64,909.736,304.582Z" transform="translate(-428.059 -254.141)" fill="#005674"/>
            <path id="Path_492" data-name="Path 492" d="M875.869,257.237a3.724,3.724,0,0,0,3.769-3.769,3.623,3.623,0,0,0-3.769-3.769,3.877,3.877,0,0,0-3.769,3.769A3.725,3.725,0,0,0,875.869,257.237Z" transform="translate(-418.31 -244.308)" fill="#005674"/>
            <path id="Path_493" data-name="Path 493" d="M860.973,291.235c-2.435-.174-3.3-.522-3.3-3.015V260.97c0-.754-.348-1.218-.812-1.218-.812,0-2.377,1.623-7.537,1.623h-15.19c-.7,0-.928-.464-.928-1.1,0-7.421-.812-15.712,6.32-15.712,3.073,0,3.769,2.551,6.146,2.551,1.681,0,3.015-.58,3.015-2.841,0-1.971-2.029-3.073-6.088-3.073-10.842,0-15.886,9.682-15.886,13.683v4.348c0,1.044-.116,1.333-.7,1.681a10.505,10.505,0,0,1-2.783.87c-.986.29-1.508.406-1.508,1.16,0,.986.754.928,2.493,1.16,1.218.174,2.493.406,2.493,2.145V288.1c0,2.435-.7,2.9-3.595,3.073-.928.058-1.913.116-1.913.986,0,.522.348.812,1.449.812H838.3c.754,0,1.681,0,1.681-.87s-1.275-.928-2.2-.986c-3.768-.116-4.7-.522-4.7-3.131V266.014c0-1.681.29-2.087,1.391-2.087H847.87c1.218,0,3.247.29,3.247,2.377v21.742c0,3.363-1.623,3.015-3.3,3.189-1.1.116-1.449.638-1.449.928,0,.928.928.87,1.566.87h12.755c.754,0,1.681,0,1.681-.928C862.538,291.293,861.668,291.293,860.973,291.235Z" transform="translate(-396.921 -240.736)" fill="#005674"/>
            <path id="Path_494" data-name="Path 494" d="M774.941,292.655v-19.6c0-2.957.464-4.986-1.217-4.986H764.1c-.812,0-1.855.058-1.855.928,0,.928,1.392.812,2.493.928,2.841.174,3.768.406,3.768,3.131v18.669c0,1.623-.058,2.029-.812,2.667a11.418,11.418,0,0,1-7.769,2.957c-6.551,0-7.015-5.682-7.015-8.986V273.058c0-4.522-.348-4.986-1.623-4.986H732.5c-1.159,0-1.333-.348-1.333-1.1l.058-7.6c0-.928-.116-1.276-.812-1.276-.348,0-.812.29-1.16,1.16a27.645,27.645,0,0,1-3.421,6.146c-1.333,1.681-2.377,2.319-4.58,3.827-.638.406-.754.754-.754,1.16a.6.6,0,0,0,.638.638h1.855c1.391,0,1.8.638,1.8,1.8v18.843c0,6.262,2.551,9.1,8.813,9.1,6.088,0,8.465-4.116,8.465-4.986,0-.348-.058-.754-.638-.754-1.218,0-1.681,2.609-5.74,2.609-3.943,0-4.464-2.493-4.464-5.914V274.334c0-2.667.464-3.537,2.783-3.537,0,0,8.175,0,10.146.058,2.145.058,2.319,1.565,2.319,2.841V288.77c0,3.769.058,12.059,11.248,12.059,4.522,0,7.363-1.913,10.726-4.464v3.363c0,.754.406,1.1.812,1.1.812,0,2.145-.812,4.638-2.435,3.421-2.2,4.928-2.029,4.928-3.131C779,293.466,774.941,296.191,774.941,292.655Z" transform="translate(-354.604 -247.838)" fill="#005674"/>
            <path id="Path_495" data-name="Path 495" d="M677.5,304.624c-2.435-.116-3.189-.638-3.189-3.131V285.259c0-3.769-.058-12.059-11.248-12.059-4.116,0-7.363,2.087-11.074,6.146-1.1-3.189-3.827-6.088-10.436-6.088-4.522,0-7.363,1.913-10.726,4.464V274.36c0-.754-.406-1.1-.812-1.1-.812,0-2.145.812-4.638,2.435-3.421,2.2-4.928,2.029-4.928,3.131,0,1.855,4-.87,4,2.667v20c0,2.957-1.16,3.015-3.479,3.189-.522.058-1.275.348-1.275.986,0,.754.87.812,1.449.812H635.3c.812,0,1.855-.058,1.855-.928,0-.928-1.391-.812-2.493-.928-2.841-.174-3.769-.406-3.769-3.131V282.3c0-1.623.058-2.029.812-2.667a11.417,11.417,0,0,1,7.769-2.957c6.552,0,7.015,5.682,7.015,8.987v15.828c0,3.537-1.739,2.957-4.058,3.189-.406.058-1.16.174-1.16.986,0,.754.638.812,1.681.812h13.509c1.16,0,1.739-.174,1.739-.812,0-.7-.928-.928-2.087-.986-2.435-.116-3.189-.638-3.189-3.131V285.317a11.8,11.8,0,0,1,.638-4,6.936,6.936,0,0,1,2.667-3.247,8.346,8.346,0,0,1,4.87-1.333c6.552,0,7.015,5.682,7.015,8.986v15.77c0,3.537-1.739,2.957-4.058,3.189-.406.058-1.159.174-1.159.986,0,.754.638.812,1.681.812h13.509c1.16,0,1.739-.174,1.739-.812C679.533,304.914,678.663,304.682,677.5,304.624Z" transform="translate(-312.245 -254.183)" fill="#005674"/>
            <path id="Path_496" data-name="Path 496" d="M560.9,287.8c-.406-.116-.812-.29-1.16-.406-3.884-1.333-7.247-2.493-7.247-5.914,0-3.073,3.536-4.754,5.972-4.754a6.7,6.7,0,0,1,5.45,2.2,13.49,13.49,0,0,1,1.391,2.435c.406.986.812,1.855,1.623,1.855.348,0,1.159-.174,1.159-1.855v-3.537a1.842,1.842,0,0,0-1.1-1.913,24.728,24.728,0,0,0-7.305-1.218c-8,0-12.291,4.7-12.291,9.1v.058c0,5.624,5.914,7.537,10.262,8.928l.638.174c3.073,1.044,6.378,2.435,6.378,6.319,0,4.174-4.174,6.436-8.059,6.436-4.754,0-6.088-2.493-6.725-4.406a11.8,11.8,0,0,1-.58-2.261c-.348-1.565-.638-2.9-1.8-2.9-1.276,0-1.276,1.449-1.276,1.913,0,.754-.058,1.565-.116,2.319s-.116,1.565-.116,2.377a5.032,5.032,0,0,0,.174,1.8,1.566,1.566,0,0,0,1.044,1.044,23.9,23.9,0,0,0,8.986,2.145,17.176,17.176,0,0,0,9.045-2.609,9.4,9.4,0,0,0,4.58-7.885C569.829,291.4,565.422,289.368,560.9,287.8Z" transform="translate(-281.275 -254.814)" fill="#005674"/>
            <path id="Path_497" data-name="Path 497" d="M503.176,291.393c-1.565-.116-1.971-.116-2.783-.174-3.421-.232-3.942-.638-6.957-8.059-.928-2.261-15.712-40.526-16.118-41.164-.232-.406-.464-.7-.928-.7-.87,0-1.16,1.16-1.449,1.855-.464,1.1-.928,2.087-1.449,3.131-5.624,12.813-11.248,24.177-16.871,36.99-3.073,7.305-4.116,7.885-7.943,7.885-.754,0-2.377,0-2.377,1.1,0,.812.7.87,1.507.87h16.466c.87,0,1.739,0,1.739-.87,0-.986-1.16-1.044-1.913-1.044-1.623,0-6.146,0-6.03-3.015.116-2.609,3.073-8.233,4.232-10.784,1.507-3.3,1.623-3.3,3.479-3.3H478.42c4.116,0,3.537,0,5.16,4.232.812,1.971,3.653,8.465,3.595,10.436-.116,2.493-3.363,2.493-5.624,2.493-.87,0-2.493.058-2.493,1.16,0,.58.406.7,1.333.7h22.437c.928,0,1.1-.406,1.1-.986A.667.667,0,0,0,503.176,291.393Zm-24.988-19.828H466.94c-.928,0-1.8,0-1.8-.522a6.329,6.329,0,0,1,.29-.986c2.2-5.044,4.29-10.03,6.609-15.132.348-.87,1.044-2.493,1.565-2.493.406,0,1.044,1.855,1.276,2.493,1.681,4.812,3.479,9.392,5.276,14.146a12.008,12.008,0,0,1,.522,1.855C480.681,271.564,479.985,271.564,478.188,271.564Z" transform="translate(-239.378 -240.778)" fill="#005674"/>
            <g id="Group_39" data-name="Group 39" transform="translate(289.772 5.334)">
                <path id="Path_498" data-name="Path 498" d="M603.636,304.582c-2.435-.174-3.3-.522-3.3-3.015V274.318c0-.754-.348-1.218-.812-1.218-.812,0-1.855.928-5.1,2.2-2.261.928-4.464.928-4.464,2.029,0,1.681,4-.58,4,2.319v21.8c0,3.363-1.623,3.015-3.3,3.189-1.1.116-1.45.638-1.45.928,0,.928.928.87,1.565.87H603.52c.754,0,1.681,0,1.681-.928C605.144,304.7,604.332,304.64,603.636,304.582Z" transform="translate(-589.2 -259.475)" fill="#005674"/>
                <path id="Path_499" data-name="Path 499" d="M599.169,257.137a3.724,3.724,0,0,0,3.769-3.769,3.623,3.623,0,0,0-3.769-3.769,3.877,3.877,0,0,0-3.768,3.769A3.69,3.69,0,0,0,599.169,257.137Z" transform="translate(-591.805 -249.6)" fill="#005674"/>
            </g>
            <path id="Path_500" data-name="Path 500" d="M409.813,260.718H399.9c-1.1,0-1.565.348-1.565.928,0,.638.7.928,1.681.928,1.971,0,3.421,1.044,3.421,2.841,0,1.971-1.1,4.754-1.971,6.841l-5.508,12.465c-.232.522-.406,1.1-.928,1.1-.348,0-.522-.406-.754-1.1l-6.146-17.973a7,7,0,0,1-.522-1.855c0-1.971,1.971-2.2,3.653-2.319.928-.058,1.681-.348,1.681-.812,0-.754-.348-.986-1.681-.986H369.171c-.7,0-.928-.464-.928-1.1,0-7.421-.812-15.712,6.32-15.712,3.073,0,4.638,2.551,7.073,2.551,1.681,0,3.015-.58,3.015-2.841,0-1.971-1.276-3.073-6.088-3.073-10.784,0-16.755,9.624-16.755,13.683v4.348c0,1.044-.116,1.333-.7,1.681a10.5,10.5,0,0,1-2.783.87c-.986.29-1.507.406-1.507,1.16,0,.986.754.928,2.493,1.159,1.218.174,2.493.406,2.493,2.145V287.91c0,2.435-.7,2.9-3.595,3.073-.928.058-1.913.116-1.913.986,0,.522.348.812,1.449.812H373.4c.754,0,1.681,0,1.681-.812,0-.87-1.276-.928-2.2-.986-3.769-.116-4.7-.522-4.7-3.131v-22.5c0-1.681.29-2.087,1.392-2.087h8.87c.87.058,1.565.348,2.145,1.971l9.044,25.1c.406,1.276,1.391,3.131,1.391,4.348,0,.986-3.247,10.146-4.928,10.146-.928,0-1.913-.754-3.421-.754-1.913,0-3.3.928-3.3,3.073,0,1.565.986,3.421,4.348,3.421,3.595,0,4.812-1.913,6.378-5.566l17.1-39.947c.638-1.565,1.391-2.435,2.725-2.551,1.1-.116,1.507-.232,1.507-.928,0-.638-.464-.87-1.623-.87" transform="translate(-201.558 -240.484)" fill="#005674"/>
            <path id="Path_501" data-name="Path 501" d="M146.334,291.351c-1.565-.116-1.971-.116-2.783-.174-3.421-.232-3.942-.638-6.957-8.059-.928-2.261-15.77-40.526-16.176-41.222-.232-.406-.464-.7-.928-.7-.87,0-1.16,1.16-1.449,1.855-.464,1.1-.928,2.087-1.449,3.131C110.968,259,105.344,270.363,99.72,283.234c-3.073,7.305-4.116,7.885-7.943,7.885-.754,0-2.377,0-2.377,1.1,0,.812.7.87,1.507.87h16.524c.87,0,1.739,0,1.739-.87,0-.986-1.16-1.044-1.913-1.044-1.623,0-6.146,0-6.03-3.015.116-2.609,3.073-8.233,4.232-10.842,1.507-3.3,1.623-3.3,3.479-3.3h12.639c4.116,0,3.537,0,5.16,4.232.812,2.029,3.653,8.465,3.595,10.494-.116,2.493-3.363,2.493-5.624,2.493-.87,0-2.493.058-2.493,1.16,0,.58.406.7,1.333.7h22.5c.928,0,1.1-.406,1.1-.986C147.146,291.756,147.03,291.351,146.334,291.351Zm-24.988-19.828H110.1c-.928,0-1.8,0-1.8-.522a6.334,6.334,0,0,1,.29-.986c2.2-5.044,4.29-10.088,6.609-15.132.348-.87,1.044-2.493,1.565-2.493.406,0,1.044,1.855,1.275,2.493,1.681,4.812,3.537,9.392,5.276,14.146a12.01,12.01,0,0,1,.522,1.855C123.839,271.522,123.143,271.522,121.346,271.522Z" transform="translate(-89.4 -240.736)" fill="#005674"/>
            <g id="Group_40" data-name="Group 40" transform="translate(135.262 5.334)">
                <path id="Path_502" data-name="Path 502" d="M337.136,304.582c-2.435-.174-3.3-.522-3.3-3.015V274.318c0-.754-.348-1.218-.812-1.218-.812,0-1.855.928-5.1,2.2-2.261.928-4.464.928-4.464,2.029,0,1.681,4-.58,4,2.319v21.8c0,3.363-1.623,3.015-3.3,3.189-1.1.116-1.449.638-1.449.928,0,.928.928.87,1.565.87H337.02c.754,0,1.681,0,1.681-.928C338.644,304.7,337.832,304.64,337.136,304.582Z" transform="translate(-322.7 -259.475)" fill="#005674"/>
                <path id="Path_503" data-name="Path 503" d="M332.767,257.137a3.724,3.724,0,0,0,3.769-3.769,3.623,3.623,0,0,0-3.769-3.769A3.877,3.877,0,0,0,329,253.369,3.656,3.656,0,0,0,332.767,257.137Z" transform="translate(-325.346 -249.6)" fill="#005674"/>
            </g>
            <g id="Group_41" data-name="Group 41" transform="translate(96.243 5.334)">
                <path id="Path_504" data-name="Path 504" d="M269.836,304.582c-2.435-.174-3.3-.522-3.3-3.015V274.318c0-.754-.348-1.218-.812-1.218-.812,0-1.855.928-5.1,2.2-2.261.928-4.464.928-4.464,2.029,0,1.681,4-.58,4,2.319v21.8c0,3.363-1.623,3.015-3.3,3.189-1.1.116-1.449.638-1.449.928,0,.928.928.87,1.565.87H269.72c.754,0,1.681,0,1.681-.928C271.4,304.7,270.532,304.64,269.836,304.582Z" transform="translate(-255.4 -259.475)" fill="#005674"/>
                <path id="Path_505" data-name="Path 505" d="M265.467,257.137a3.724,3.724,0,0,0,3.769-3.769,3.623,3.623,0,0,0-3.769-3.769,3.877,3.877,0,0,0-3.768,3.769A3.656,3.656,0,0,0,265.467,257.137Z" transform="translate(-258.046 -249.6)" fill="#005674"/>
            </g>
            <path id="Path_506" data-name="Path 506" d="M206.694,259.285c-5.392,0-7.769,1.16-9.972,2.725-.87.638-1.044.058-1.044-.464V241.718c0-.754-.348-1.218-.812-1.218-.812,0-1.855.928-5.1,2.2-2.261.928-4.464.928-4.464,2.029,0,1.681,4-.58,4,2.319v44c0,1.276.464,1.449.928,1.449a1.577,1.577,0,0,0,1.334-.812,1.906,1.906,0,0,1,1.681-.812c1.623,0,5.16,2.087,11.653,2.087,12.233,0,18.959-7.363,18.959-17.219C223.855,265.546,216.086,259.285,206.694,259.285Zm-.522,31.308c-5.914,0-7.653-1.681-9.218-3.247a5.969,5.969,0,0,1-1.276-4.058v-15.6c0-2.9.232-4.986,7.537-4.986,3.073,0,13.857,1.565,13.857,14.726C217.13,282.65,213.883,290.593,206.172,290.593Z" transform="translate(-129.7 -240.442)" fill="#005674"/>
            <path id="Path_507" data-name="Path 507" d="M303.152,290.84c-2.957-.29-3.131-.928-3.131-3.073v-46.15c0-.754-.29-1.218-.812-1.218-.812,0-1.855.928-5.1,2.2-2.261.928-4.464.928-4.464,2.029,0,1.681,4-.58,4,2.319V287.71c0,2.551-.638,3.015-3.189,3.131-.58,0-1.855.232-1.855.986,0,.58.58.812,1.16.812h13.8c.522,0,1.334-.174,1.334-.928C304.95,291.072,304.37,290.956,303.152,290.84Z" transform="translate(-173.109 -240.4)" fill="#005674"/>
        </g>
        <g id="Group_44" data-name="Group 44" transform="translate(392.68 89.4)">
            <path id="Path_508" data-name="Path 508" d="M780.287,89.4H626.3a13.832,13.832,0,0,0-13.8,13.8h0A13.832,13.832,0,0,0,626.3,117H780.287a13.832,13.832,0,0,0,13.8-13.8h0A13.794,13.794,0,0,0,780.287,89.4Z" transform="translate(-612.5 -89.4)" fill="#005674"/>
            <g id="Group_43" data-name="Group 43" transform="translate(11.711 8.233)">
                <path id="Path_509" data-name="Path 509" d="M632.7,114.7V103.8h7.6v1.913h-5.1v2.493h4.464v1.913h-4.464v2.609h5.218v1.913l-7.711.058Z" transform="translate(-632.7 -103.684)" fill="#fff"/>
                <path id="Path_510" data-name="Path 510" d="M657.636,103.9l-3.769,10.9h-2.841L647.2,103.9h2.609l2.609,8h0l2.609-8Z" transform="translate(-638.793 -103.726)" fill="#fff"/>
                <path id="Path_511" data-name="Path 511" d="M667,114.7V103.8h7.6v1.913h-5.1v2.493h4.464v1.913h-4.464v2.609h5.218v1.913L667,114.7Z" transform="translate(-647.114 -103.684)" fill="#fff"/>
                <path id="Path_512" data-name="Path 512" d="M687.206,110.467h-1.913V114.7H682.8V103.8h5.1c2.145,0,3.652,1.16,3.652,3.189a2.988,2.988,0,0,1-1.971,2.9L691.9,114.7h-2.725Zm-1.913-1.855h2.319a1.352,1.352,0,0,0,1.449-1.391,1.3,1.3,0,0,0-1.449-1.391h-2.319Z" transform="translate(-653.753 -103.684)" fill="#fff"/>
                <path id="Path_513" data-name="Path 513" d="M708.446,103.9l-3.827,6.609v4.29h-2.493v-4.232L698.3,103.9h2.783l2.319,4.29h0l2.377-4.29Z" transform="translate(-660.267 -103.726)" fill="#fff"/>
                <path id="Path_514" data-name="Path 514" d="M725.979,114.7v-8.929H722.5V103.8h9.392v1.971h-3.479V114.7Z" transform="translate(-670.436 -103.684)" fill="#fff"/>
                <path id="Path_515" data-name="Path 515" d="M755.306,103.9l-3.073,10.9h-2.667l-1.855-7.421h0L745.8,114.8h-2.725L740,103.9h2.609l1.971,7.827h0l1.8-7.827h2.667l1.8,7.711h0l1.913-7.711Z" transform="translate(-677.79 -103.726)" fill="#fff"/>
                <path id="Path_516" data-name="Path 516" d="M771.692,103.6c3.479,0,5.392,2.435,5.392,5.566s-1.855,5.566-5.392,5.566c-3.479,0-5.392-2.435-5.392-5.566S768.155,103.6,771.692,103.6Zm0,9.276c1.913,0,2.841-1.681,2.841-3.653s-.927-3.653-2.841-3.653-2.841,1.681-2.841,3.653S769.779,112.876,771.692,112.876Z" transform="translate(-688.842 -103.6)" fill="#fff"/>
                <path id="Path_517" data-name="Path 517" d="M805.353,103.9v10.9H802.86v-7.189h0l-2.319,7.189h-2.087l-2.319-7.131h0V114.8H793.7V103.9h3.363l2.493,7.827h0l2.493-7.827Z" transform="translate(-700.356 -103.726)" fill="#fff"/>
                <path id="Path_518" data-name="Path 518" d="M821.292,103.6c3.479,0,5.392,2.435,5.392,5.566s-1.855,5.566-5.392,5.566c-3.479,0-5.392-2.435-5.392-5.566S817.755,103.6,821.292,103.6Zm0,9.276c1.913,0,2.841-1.681,2.841-3.653s-.928-3.653-2.841-3.653-2.841,1.681-2.841,3.653S819.379,112.876,821.292,112.876Z" transform="translate(-709.685 -103.6)" fill="#fff"/>
                <path id="Path_519" data-name="Path 519" d="M846.166,103.9v10.9h-2.377l-4.754-7.305h0V114.8H836.6V103.9h2.725l4.406,7.015h0V103.9Z" transform="translate(-718.384 -103.726)" fill="#fff"/>
                <path id="Path_520" data-name="Path 520" d="M858.579,114.7v-8.929H855.1V103.8h9.392v1.971h-3.479V114.7Z" transform="translate(-726.158 -103.684)" fill="#fff"/>
                <path id="Path_521" data-name="Path 521" d="M873.3,114.7V103.8h2.493v4.406h4.291V103.8h2.493v10.9h-2.493v-4.522h-4.291V114.7Z" transform="translate(-733.806 -103.684)" fill="#fff"/>
                <path id="Path_522" data-name="Path 522" d="M891.3,113.224l1.333-1.623a4.655,4.655,0,0,0,3.247,1.276c1.276,0,1.913-.464,1.913-1.276,0-.87-.87-1.1-2.493-1.449-1.855-.406-3.595-1.1-3.595-3.247,0-1.855,1.45-3.3,4.174-3.3A6.383,6.383,0,0,1,900,104.991l-1.16,1.681a4.567,4.567,0,0,0-3.015-1.16c-1.1,0-1.681.522-1.681,1.218,0,.812.812,1.044,2.377,1.391,1.913.464,3.653,1.1,3.653,3.3,0,1.971-1.566,3.421-4.406,3.421A6.616,6.616,0,0,1,891.3,113.224Z" transform="translate(-741.37 -103.6)" fill="#fff"/>
            </g>
        </g>
        <g id="Group_45" data-name="Group 45" transform="translate(267.507 252.781)">
            <path id="Path_523" data-name="Path 523" d="M405.391,385.369a4.57,4.57,0,0,1-3.653,1.507,4.266,4.266,0,0,1-4.638-4.638c0-2.667,1.565-4.638,4.406-4.638,2.783,0,4.174,1.913,4.174,4.348a4.993,4.993,0,0,1-.058.986h-6.2a2.178,2.178,0,0,0,2.377,2.2,2.492,2.492,0,0,0,2.145-1.1Zm-1.913-3.942c-.116-1.275-.638-2.145-1.971-2.145a2.057,2.057,0,0,0-2.087,2.145Z" transform="translate(-396.81 -373.889)" fill="#005674"/>
            <path id="Path_524" data-name="Path 524" d="M418.436,386.828l-1.971-3.189h-.058l-1.971,3.189H412l3.073-4.58-2.9-4.348h2.493l1.855,3.015h.058l1.8-3.015h2.435l-2.9,4.348,3.073,4.58Z" transform="translate(-403.071 -374.016)" fill="#005674"/>
            <path id="Path_525" data-name="Path 525" d="M428,375.841h1.681V373h2.2v2.841h2.029v1.623h-2.029v4.406c0,.928.29,1.333,1.391,1.333a2.172,2.172,0,0,0,.638-.058v1.623a5.671,5.671,0,0,1-1.507.174c-1.913,0-2.783-.928-2.783-2.609v-4.87H428Z" transform="translate(-409.795 -371.956)" fill="#005674"/>
            <path id="Path_526" data-name="Path 526" d="M447.291,385.369a4.57,4.57,0,0,1-3.653,1.507A4.266,4.266,0,0,1,439,382.238c0-2.667,1.565-4.638,4.406-4.638,2.783,0,4.174,1.913,4.174,4.348a5,5,0,0,1-.058.986h-6.2a2.178,2.178,0,0,0,2.377,2.2,2.492,2.492,0,0,0,2.145-1.1Zm-1.913-3.942c-.116-1.275-.638-2.145-1.971-2.145a2.057,2.057,0,0,0-2.087,2.145Z" transform="translate(-414.418 -373.889)" fill="#005674"/>
            <path id="Path_527" data-name="Path 527" d="M456.158,377.774h2.087l.058,1.275h.058a3.1,3.1,0,0,1,2.725-1.449,2.891,2.891,0,0,1,3.073,3.073v6.03H461.9v-5.682a1.492,1.492,0,0,0-1.623-1.623,1.84,1.84,0,0,0-1.913,1.971v5.392H456.1l.058-8.986Z" transform="translate(-421.603 -373.889)" fill="#005674"/>
            <path id="Path_528" data-name="Path 528" d="M472.4,379.607c0-2.667,1.507-4.754,3.885-4.754a3.224,3.224,0,0,1,2.725,1.334h.058V371.2h2.261v12.755h-2.087l-.058-1.333h-.058a3.473,3.473,0,0,1-2.9,1.507C473.849,384.187,472.4,382.158,472.4,379.607Zm6.783-.058c0-1.739-.812-2.9-2.261-2.9-1.507,0-2.2,1.333-2.2,2.9,0,1.507.7,2.841,2.2,2.841C478.372,382.448,479.183,381.172,479.183,379.549Z" transform="translate(-428.453 -371.2)" fill="#005674"/>
            <path id="Path_529" data-name="Path 529" d="M498.491,385.369a4.571,4.571,0,0,1-3.653,1.507,4.266,4.266,0,0,1-4.638-4.638c0-2.667,1.565-4.638,4.406-4.638,2.783,0,4.174,1.913,4.174,4.348a4.993,4.993,0,0,1-.058.986h-6.2a2.178,2.178,0,0,0,2.377,2.2,2.492,2.492,0,0,0,2.145-1.1Zm-1.913-3.942c-.116-1.275-.638-2.145-1.971-2.145a2.057,2.057,0,0,0-2.087,2.145Z" transform="translate(-435.933 -373.889)" fill="#005674"/>
            <path id="Path_530" data-name="Path 530" d="M506.6,379.607c0-2.667,1.507-4.754,3.884-4.754a3.225,3.225,0,0,1,2.725,1.334h.058V371.2h2.261v12.755h-2.087l-.058-1.333h-.058a3.473,3.473,0,0,1-2.9,1.507C508.049,384.187,506.6,382.158,506.6,379.607Zm6.783-.058c0-1.739-.812-2.9-2.261-2.9-1.507,0-2.2,1.333-2.2,2.9,0,1.507.7,2.841,2.2,2.841C512.572,382.448,513.383,381.172,513.383,379.549Z" transform="translate(-442.825 -371.2)" fill="#005674"/>
            <path id="Path_531" data-name="Path 531" d="M533.1,377.774h2.087l.058,1.391h.058a2.509,2.509,0,0,1,2.261-1.565,1.852,1.852,0,0,1,.812.174v1.971a3.141,3.141,0,0,0-.87-.116,1.968,1.968,0,0,0-2.145,1.971v5.1H533.1v-8.929Z" transform="translate(-453.961 -373.889)" fill="#005674"/>
            <path id="Path_532" data-name="Path 532" d="M551.291,385.369a4.57,4.57,0,0,1-3.653,1.507A4.266,4.266,0,0,1,543,382.238c0-2.667,1.565-4.638,4.406-4.638,2.783,0,4.174,1.913,4.174,4.348a5,5,0,0,1-.058.986h-6.2a2.178,2.178,0,0,0,2.377,2.2,2.492,2.492,0,0,0,2.145-1.1Zm-1.913-3.942c-.116-1.275-.638-2.145-1.971-2.145a2.057,2.057,0,0,0-2.087,2.145Z" transform="translate(-458.121 -373.889)" fill="#005674"/>
            <path id="Path_533" data-name="Path 533" d="M560.3,384.055V371.3h2.261v12.755Z" transform="translate(-465.391 -371.242)" fill="#005674"/>
            <path id="Path_534" data-name="Path 534" d="M574.891,385.369a4.57,4.57,0,0,1-3.652,1.507,4.266,4.266,0,0,1-4.638-4.638c0-2.667,1.565-4.638,4.406-4.638,2.783,0,4.174,1.913,4.174,4.348a5,5,0,0,1-.058.986h-6.2a2.178,2.178,0,0,0,2.377,2.2,2.492,2.492,0,0,0,2.145-1.1Zm-1.913-3.942c-.116-1.275-.638-2.145-1.971-2.145a2.057,2.057,0,0,0-2.087,2.145Z" transform="translate(-468.038 -373.889)" fill="#005674"/>
            <path id="Path_535" data-name="Path 535" d="M588.366,386.66l-.058-1.276h-.058a2.8,2.8,0,0,1-2.609,1.449,2.649,2.649,0,0,1-2.841-2.725,2.281,2.281,0,0,1,1.681-2.319,16.127,16.127,0,0,1,3.71-.464v-.638c0-.812-.58-1.391-1.623-1.391a1.759,1.759,0,0,0-1.8,1.16l-1.739-.87q.87-2.087,3.653-2.087c2.435,0,3.769,1.16,3.769,3.131V386.6h-2.087v.058Zm-.116-3.421v-.464c-.522.058-1.276.058-1.855.174-.7.116-1.334.348-1.334,1.1a1.18,1.18,0,0,0,1.334,1.159A1.892,1.892,0,0,0,588.25,383.24Z" transform="translate(-474.846 -373.847)" fill="#005674"/>
            <path id="Path_536" data-name="Path 536" d="M597.9,385.617l1.044-1.507a4.882,4.882,0,0,0,3.015,1.043c1.1,0,1.739-.348,1.739-.986,0-.7-.812-.87-2.261-1.16-1.739-.348-3.189-.986-3.189-2.725,0-1.507,1.218-2.783,3.769-2.783a6.191,6.191,0,0,1,3.768,1.1l-.986,1.507a4.712,4.712,0,0,0-2.783-.928c-.986,0-1.449.406-1.449.87,0,.638.638.812,2.145,1.1,1.623.29,3.3.87,3.3,2.725,0,1.739-1.449,2.957-4,2.957A6.565,6.565,0,0,1,597.9,385.617Z" transform="translate(-481.191 -373.847)" fill="#005674"/>
            <path id="Path_537" data-name="Path 537" d="M621.291,385.369a4.57,4.57,0,0,1-3.653,1.507A4.266,4.266,0,0,1,613,382.238c0-2.667,1.565-4.638,4.406-4.638,2.783,0,4.174,1.913,4.174,4.348a5,5,0,0,1-.058.986h-6.2a2.178,2.178,0,0,0,2.377,2.2,2.493,2.493,0,0,0,2.145-1.1Zm-1.913-3.942c-.116-1.275-.638-2.145-1.971-2.145a2.057,2.057,0,0,0-2.087,2.145Z" transform="translate(-487.537 -373.889)" fill="#005674"/>
            <path id="Path_538" data-name="Path 538" d="M396.6,415.517l1.044-1.507a4.882,4.882,0,0,0,3.015,1.044c1.1,0,1.739-.348,1.739-.986,0-.7-.812-.87-2.261-1.16-1.739-.348-3.189-.986-3.189-2.725,0-1.507,1.218-2.783,3.769-2.783a6.191,6.191,0,0,1,3.768,1.1l-.986,1.507a4.712,4.712,0,0,0-2.783-.928c-.986,0-1.449.406-1.449.87,0,.638.638.812,2.145,1.1,1.623.29,3.3.87,3.3,2.725,0,1.739-1.449,2.957-4,2.957A6.564,6.564,0,0,1,396.6,415.517Z" transform="translate(-396.6 -386.412)" fill="#005674"/>
            <path id="Path_539" data-name="Path 539" d="M420.7,416.629h-2.087l-.058-1.276H418.5a3.172,3.172,0,0,1-2.725,1.449,2.891,2.891,0,0,1-3.073-3.073V407.7h2.261v5.682a1.536,1.536,0,0,0,1.623,1.681,1.811,1.811,0,0,0,1.913-1.971V407.7h2.261l-.058,8.929Z" transform="translate(-403.366 -386.538)" fill="#005674"/>
            <path id="Path_540" data-name="Path 540" d="M428.5,415.517l1.044-1.507a4.882,4.882,0,0,0,3.015,1.044c1.1,0,1.739-.348,1.739-.986,0-.7-.812-.87-2.261-1.16-1.739-.348-3.189-.986-3.189-2.725,0-1.507,1.217-2.783,3.768-2.783a6.191,6.191,0,0,1,3.768,1.1l-.986,1.507a4.712,4.712,0,0,0-2.783-.928c-.986,0-1.449.406-1.449.87,0,.638.638.812,2.145,1.1,1.623.29,3.3.87,3.3,2.725,0,1.739-1.449,2.957-4,2.957A6.448,6.448,0,0,1,428.5,415.517Z" transform="translate(-410.005 -386.412)" fill="#005674"/>
            <path id="Path_541" data-name="Path 541" d="M446.919,415.4h0l-.058,4.174H444.6v-12h2.087l.058,1.333h.058a3.626,3.626,0,0,1,2.9-1.507c2.435,0,3.826,1.971,3.826,4.638,0,2.609-1.507,4.7-3.885,4.7A3.378,3.378,0,0,1,446.919,415.4Zm4.348-3.363c0-1.507-.7-2.9-2.261-2.9-1.507,0-2.2,1.276-2.2,2.957,0,1.623.754,2.841,2.2,2.841C450.514,414.937,451.267,413.661,451.267,412.038Z" transform="translate(-416.771 -386.412)" fill="#005674"/>
            <path id="Path_542" data-name="Path 542" d="M469.791,415.169a4.57,4.57,0,0,1-3.653,1.507,4.266,4.266,0,0,1-4.638-4.638c0-2.725,1.565-4.638,4.406-4.638,2.783,0,4.174,1.913,4.174,4.348a5,5,0,0,1-.058.986h-6.2a2.178,2.178,0,0,0,2.377,2.2,2.492,2.492,0,0,0,2.145-1.1Zm-1.913-3.884c-.116-1.276-.638-2.145-1.971-2.145a2.057,2.057,0,0,0-2.087,2.145Z" transform="translate(-423.873 -386.412)" fill="#005674"/>
            <path id="Path_543" data-name="Path 543" d="M478.758,407.574h2.087l.058,1.276h.058a3.1,3.1,0,0,1,2.725-1.449,2.891,2.891,0,0,1,3.073,3.073v6.03H484.5v-5.682a1.492,1.492,0,0,0-1.623-1.623,1.84,1.84,0,0,0-1.913,1.971v5.392H478.7l.058-8.986Z" transform="translate(-431.101 -386.412)" fill="#005674"/>
            <path id="Path_544" data-name="Path 544" d="M494.5,415.517l1.044-1.507a4.882,4.882,0,0,0,3.015,1.044c1.1,0,1.739-.348,1.739-.986,0-.7-.812-.87-2.261-1.16-1.739-.348-3.189-.986-3.189-2.725,0-1.507,1.218-2.783,3.768-2.783a6.191,6.191,0,0,1,3.769,1.1l-.986,1.507a4.711,4.711,0,0,0-2.783-.928c-.986,0-1.449.406-1.449.87,0,.638.638.812,2.145,1.1,1.623.29,3.3.87,3.3,2.725,0,1.739-1.449,2.957-4,2.957A6.447,6.447,0,0,1,494.5,415.517Z" transform="translate(-437.74 -386.412)" fill="#005674"/>
            <path id="Path_545" data-name="Path 545" d="M510.5,401.1h2.319v2.029H510.5Zm.058,12.755v-8.929h2.261v8.929Z" transform="translate(-444.464 -383.765)" fill="#005674"/>
            <path id="Path_546" data-name="Path 546" d="M516.8,412.038a4.581,4.581,0,1,1,4.58,4.638C518.423,416.734,516.8,414.705,516.8,412.038Zm2.261,0c0,1.623.754,2.9,2.319,2.9s2.319-1.276,2.319-2.9c0-1.681-.754-2.957-2.319-2.957C519.815,409.139,519.061,410.415,519.061,412.038Z" transform="translate(-447.111 -386.412)" fill="#005674"/>
            <path id="Path_547" data-name="Path 547" d="M535,407.574h2.087l.058,1.276h.058a3.1,3.1,0,0,1,2.725-1.449A2.891,2.891,0,0,1,543,410.473v6.03h-2.2v-5.682a1.492,1.492,0,0,0-1.623-1.623,1.84,1.84,0,0,0-1.913,1.971v5.392H535Z" transform="translate(-454.759 -386.412)" fill="#005674"/>
            <path id="Path_548" data-name="Path 548" d="M559.981,406.382H558.3v-1.623h1.681v-1.218c0-1.8.986-2.841,3.015-2.841a3.988,3.988,0,0,1,1.276.174v1.681a2.833,2.833,0,0,0-.754-.058c-.986,0-1.275.348-1.275,1.218v1.1h2.029v1.623h-2.029v7.305h-2.261Z" transform="translate(-464.55 -383.597)" fill="#005674"/>
            <path id="Path_549" data-name="Path 549" d="M569.2,412.038a4.581,4.581,0,1,1,4.58,4.638C570.765,416.734,569.2,414.705,569.2,412.038Zm2.261,0c0,1.623.754,2.9,2.319,2.9s2.319-1.276,2.319-2.9c0-1.681-.754-2.957-2.319-2.957C572.215,409.139,571.461,410.415,571.461,412.038Z" transform="translate(-469.131 -386.412)" fill="#005674"/>
            <path id="Path_550" data-name="Path 550" d="M587.4,407.574h2.087l.058,1.391h.058a2.509,2.509,0,0,1,2.261-1.565,1.85,1.85,0,0,1,.812.174v1.971a3.144,3.144,0,0,0-.87-.116,1.968,1.968,0,0,0-2.145,1.971v5.1H587.4v-8.928Z" transform="translate(-476.779 -386.412)" fill="#005674"/>
            <path id="Path_551" data-name="Path 551" d="M606.2,401.1h2.319v2.029H606.2Zm0,12.755v-8.929h2.261v8.929Z" transform="translate(-484.679 -383.765)" fill="#005674"/>
            <path id="Path_552" data-name="Path 552" d="M613.358,407.574h2.087l.058,1.276h.058a3.1,3.1,0,0,1,2.725-1.449,2.891,2.891,0,0,1,3.073,3.073v6.03H619.1v-5.682a1.492,1.492,0,0,0-1.623-1.623,1.84,1.84,0,0,0-1.913,1.971v5.392H613.3v-8.986Z" transform="translate(-487.663 -386.412)" fill="#005674"/>
            <path id="Path_553" data-name="Path 553" d="M628.1,415.362c.116,0,.29.058.406.058.7,0,.928-.348.928-1.044v-9.45h2.261v9.74c0,1.507-.754,2.435-2.551,2.435a5.739,5.739,0,0,1-1.044-.116Zm1.334-14.262h2.319v2.029h-2.319Z" transform="translate(-493.882 -383.765)" fill="#005674"/>
            <path id="Path_554" data-name="Path 554" d="M644.891,415.169a4.57,4.57,0,0,1-3.653,1.507,4.266,4.266,0,0,1-4.638-4.638c0-2.725,1.565-4.638,4.406-4.638,2.783,0,4.174,1.913,4.174,4.348a4.988,4.988,0,0,1-.058.986h-6.2a2.178,2.178,0,0,0,2.377,2.2,2.492,2.492,0,0,0,2.145-1.1Zm-1.913-3.884c-.116-1.276-.638-2.145-1.971-2.145a2.057,2.057,0,0,0-2.087,2.145Z" transform="translate(-497.454 -386.412)" fill="#005674"/>
            <path id="Path_555" data-name="Path 555" d="M653,412.1c0-2.667,1.623-4.7,4.522-4.7a3.916,3.916,0,0,1,3.769,2.2l-1.739.928a2.108,2.108,0,0,0-1.971-1.392c-1.507,0-2.261,1.276-2.261,2.957,0,1.623.754,2.9,2.319,2.9a2.149,2.149,0,0,0,2.087-1.391l1.681.928a4.129,4.129,0,0,1-3.885,2.2A4.29,4.29,0,0,1,653,412.1Z" transform="translate(-504.346 -386.412)" fill="#005674"/>
            <path id="Path_556" data-name="Path 556" d="M668.058,405.641h1.681V402.8h2.2v2.841h2.029v1.623h-2.029v4.406c0,.928.29,1.333,1.392,1.333a2.171,2.171,0,0,0,.638-.058v1.623a5.667,5.667,0,0,1-1.507.174c-1.913,0-2.783-.928-2.783-2.609v-4.87H668l.058-1.623Z" transform="translate(-510.649 -384.479)" fill="#005674"/>
            <path id="Path_557" data-name="Path 557" d="M680.2,401.1h2.319v2.029H680.2Zm0,12.755v-8.929h2.261v8.929Z" transform="translate(-515.776 -383.765)" fill="#005674"/>
            <path id="Path_558" data-name="Path 558" d="M686.5,412.038a4.581,4.581,0,1,1,4.58,4.638C688.065,416.734,686.5,414.705,686.5,412.038Zm2.261,0c0,1.623.754,2.9,2.319,2.9s2.319-1.276,2.319-2.9c0-1.681-.754-2.957-2.319-2.957C689.515,409.139,688.761,410.415,688.761,412.038Z" transform="translate(-518.423 -386.412)" fill="#005674"/>
            <path id="Path_559" data-name="Path 559" d="M704.658,407.574h2.087l.058,1.276h.058a3.1,3.1,0,0,1,2.725-1.449,2.891,2.891,0,0,1,3.073,3.073v6.03H710.4v-5.682a1.492,1.492,0,0,0-1.623-1.623,1.84,1.84,0,0,0-1.913,1.971v5.392H704.6v-8.986Z" transform="translate(-526.029 -386.412)" fill="#005674"/>
        </g>
        <g id="Group_46" data-name="Group 46" transform="translate(89.458 246.287)">
            <path id="Path_560" data-name="Path 560" d="M98.081,360a38.57,38.57,0,0,0-5.856,21.046,40.073,40.073,0,0,0,5.856,21.684H95.3a40.62,40.62,0,0,1-5.8-21.742A38.637,38.637,0,0,1,95.3,360Z" transform="translate(-89.5 -360)" fill="#005674"/>
            <path id="Path_561" data-name="Path 561" d="M115.161,400.021c0,1.855.058,3.421.116,4.116h-2.609a12.477,12.477,0,0,1-.232-2.493c-.87,2.2-2.667,2.957-4.812,2.957-4.058,0-5.624-3.363-5.624-7.305v-.348c0-5.334,3.189-8,8.523-8h1.855V384.6c0-2.435-.464-4.464-3.247-4.464-2.9,0-3.421,2.145-3.479,4.29v.638H102.87v-.58c.058-3.595,1.565-6.783,6.32-6.783,4.464,0,5.972,2.783,5.972,6.725Zm-2.783-8.755a18.061,18.061,0,0,0-1.913-.058c-3.827,0-5.74,1.739-5.74,5.566v.348c0,2.667.928,4.928,3.421,4.928,3.189,0,4.174-2.493,4.174-7.189v-3.595Z" transform="translate(-94.753 -367.438)" fill="#005674"/>
            <path id="Path_562" data-name="Path 562" d="M131.358,386.776c0-4.116,0-6.9-.058-8.929h2.725c.058.812.116,2.029.116,4.232a6.182,6.182,0,0,1,5.8-4.58v3.363c-3.711.116-5.74,2.841-5.74,7.305V404h-2.783l-.058-17.219Z" transform="translate(-107.065 -367.354)" fill="#005674"/>
            <path id="Path_563" data-name="Path 563" d="M149.7,370.72h2.783v26.148H149.7Zm.058-10.32h2.783v5.16h-2.783Z" transform="translate(-114.798 -360.168)" fill="#005674"/>
            <path id="Path_564" data-name="Path 564" d="M164.041,401.477v11.538h-2.783V385.359c0-3.595,0-5.914-.058-7.6h2.667c.058.58.116,1.8.116,3.131a5.049,5.049,0,0,1,5.16-3.595c3.942,0,5.972,2.957,5.972,9.16v8.059c0,6.667-2.609,9.8-6.378,9.8C165.78,404.376,164.563,402.868,164.041,401.477Zm8.175-6.783v-8.175c0-4.522-1.449-6.552-3.769-6.552-3.653,0-4.464,3.363-4.464,7.827v5.914c0,4.116.464,8.059,4.232,8.059C170.94,401.767,172.216,399.158,172.216,394.693Z" transform="translate(-119.63 -367.27)" fill="#005674"/>
            <path id="Path_565" data-name="Path 565" d="M191.5,370.72h2.783v26.148H191.5Zm0-10.32h2.783v5.16H191.5Z" transform="translate(-132.363 -360.168)" fill="#005674"/>
            <path id="Path_566" data-name="Path 566" d="M205.8,401.477v11.538h-2.841V385.359c0-3.595,0-5.914-.058-7.6h2.667c.058.58.116,1.8.116,3.131a5.049,5.049,0,0,1,5.16-3.595c3.943,0,5.972,2.957,5.972,9.16v8.059c0,6.667-2.609,9.8-6.378,9.8C207.538,404.376,206.321,402.868,205.8,401.477Zm8.175-6.783v-8.175c0-4.522-1.449-6.552-3.769-6.552-3.653,0-4.464,3.363-4.464,7.827v5.914c0,4.116.464,8.059,4.232,8.059C212.7,401.767,213.974,399.158,213.974,394.693Z" transform="translate(-137.154 -367.27)" fill="#005674"/>
            <path id="Path_567" data-name="Path 567" d="M233.058,386.776c0-4.116,0-6.9-.058-8.929h2.725c.058.812.116,2.029.116,4.232a6.182,6.182,0,0,1,5.8-4.58v3.363c-3.711.116-5.74,2.841-5.74,7.305V404h-2.783l-.058-17.219Z" transform="translate(-149.802 -367.354)" fill="#005674"/>
            <path id="Path_568" data-name="Path 568" d="M261.961,400.021c0,1.855.058,3.421.116,4.116h-2.609a12.473,12.473,0,0,1-.232-2.493c-.87,2.2-2.667,2.957-4.812,2.957-4.058,0-5.624-3.363-5.624-7.305v-.348c0-5.334,3.189-8,8.523-8h1.855V384.6c0-2.435-.464-4.464-3.247-4.464-2.9,0-3.421,2.145-3.479,4.29v.638H249.67v-.58c.058-3.595,1.565-6.783,6.32-6.783,4.464,0,5.972,2.783,5.972,6.725v15.6Zm-2.725-8.755a18.061,18.061,0,0,0-1.913-.058c-3.827,0-5.74,1.739-5.74,5.566v.348c0,2.667.928,4.928,3.421,4.928,3.189,0,4.174-2.493,4.174-7.189l.058-3.595Z" transform="translate(-156.442 -367.438)" fill="#005674"/>
            <path id="Path_569" data-name="Path 569" d="M275.7,402.435c.754-1.333,8.7-19.828,9.8-21.684h-8.986V378.2h12.117v2.029c-.754,1.391-8.639,19.886-9.624,21.568h9.624l-.348,2.551H275.758l-.058-1.913Z" transform="translate(-167.746 -367.648)" fill="#005674"/>
            <path id="Path_570" data-name="Path 570" d="M312.973,386.544v8.233c0,6.667-2.725,9.682-7.015,9.682-4.348,0-6.957-2.9-6.957-9.508V386.6c0-5.914,2.609-9.1,7.073-9.1C310.653,377.442,312.973,380.746,312.973,386.544Zm-11.132.058v8.407c0,4.522,1.391,6.957,4.116,6.957,2.609,0,4.116-2.087,4.116-6.957V386.6c0-4.058-1.276-6.551-4.116-6.551C303.174,379.992,301.841,382.138,301.841,386.6Z" transform="translate(-177.537 -367.353)" fill="#005674"/>
            <path id="Path_571" data-name="Path 571" d="M329.2,396.91V360.5h2.783v36.41Z" transform="translate(-190.228 -360.21)" fill="#005674"/>
            <path id="Path_572" data-name="Path 572" d="M342.883,391.357V394.6c0,3.711.7,7.421,4.058,7.421,3.189,0,3.769-2.725,3.827-5.044v-.174h2.783v.174c0,2.493-.812,7.537-6.667,7.537-5.508,0-6.783-4.348-6.783-9.972v-7.479c0-5.392,1.913-9.566,6.957-9.566,5.276,0,6.609,4.29,6.609,9.16v4.7Zm8-2.377v-2.609c0-3.189-.522-6.435-3.884-6.435-3.595,0-4.058,3.826-4.058,6.435v2.551h7.943Z" transform="translate(-194.808 -367.354)" fill="#005674"/>
            <path id="Path_573" data-name="Path 573" d="M361.5,402.829a38.57,38.57,0,0,0,5.856-21.046A40.073,40.073,0,0,0,361.5,360.1h2.783c2.725,4.348,5.8,11.537,5.8,21.741a38.636,38.636,0,0,1-5.8,20.988Z" transform="translate(-203.801 -360.042)" fill="#005674"/>
        </g>
    </g>
</svg>
