<svg xmlns="http://www.w3.org/2000/svg" xmlns:xlink="http://www.w3.org/1999/xlink" width="428.133" height="57.714" viewBox="0 0 428.133 57.714">
    <defs>
        <radialGradient id="radial-gradient" cx="0.31" cy="0.99" r="1.069" gradientTransform="translate(0.025) scale(0.95 1)" gradientUnits="objectBoundingBox">
            <stop offset="0" stop-color="#89bfe8"/>
            <stop offset="0.166" stop-color="#84bce6"/>
            <stop offset="0.338" stop-color="#78b3e1"/>
            <stop offset="0.512" stop-color="#63a5d8"/>
            <stop offset="0.689" stop-color="#4691cc"/>
            <stop offset="0.865" stop-color="#2178bd"/>
            <stop offset="1" stop-color="#0061b0"/>
        </radialGradient>
    </defs>
    <g id="Group_10951" data-name="Group 10951" transform="translate(0 0)">
        <g id="Lundbeck" transform="translate(323.728 10.507)">
            <path id="Path_2725" data-name="Path 2725" d="M229.956,5.954a5.875,5.875,0,0,1,1.125,3.26,4.993,4.993,0,0,0,.676,1.606,2.719,2.719,0,0,0,1.051,1.8c.2.211.353.567.667.625l.582.177a7.461,7.461,0,0,0,.859.02l.031.035a5.361,5.361,0,0,0,2.09-.358c.285-.1.65-.007.894-.211.432.024,1.009.227,1.26-.235a.913.913,0,0,1,.66-.249,6.033,6.033,0,0,1,1.216-.447c.7-.318,1.415-.6,2.1-.961.089-.02.157-.083.266-.07a3.492,3.492,0,0,0,1.16-.734c.6-.475,1.462-.322,2.07-.783.224-.14.49-.033.748-.087.475-.042.776-.5,1.3-.431.711-.007,1.578-.353,2.153.233a1.76,1.76,0,0,1,.5.765c.107.686-.488,1.123-.623,1.731-.338.663-1.242.669-1.391,1.4-.3.358-.774.473-1.048.843a17.989,17.989,0,0,1-2.393,1.441,3.648,3.648,0,0,1-1.21.837,8.087,8.087,0,0,0-.645.735c-.649.4-1.436.523-1.959,1.192h-.039c-.32.5-.883.527-1.192,1a2.375,2.375,0,0,0-.931.872c-.262.388-.772.371-.929.833-.146.27-.636.322-.532.7.079.255-.189.423-.322.6a.48.48,0,0,1,.02.381l.067.689c-.007.035-.048.052-.033.092.2.164.471.166.608.429.07.584.769.456.966.981.27.384.309.87.652,1.227a1.415,1.415,0,0,0,.538.894c.268.381.517.776.75,1.177a3.04,3.04,0,0,0,.589.4c.621.636.88,1.427,1.513,2.055.248.334.669.608.769,1.035a4.529,4.529,0,0,1,.6,1.157,1.006,1.006,0,0,1,.445.66c.532.312.486,1,.894,1.425a2.277,2.277,0,0,1,.641,1.07,2.285,2.285,0,0,1,.66,1.857c0,.595.571.966.517,1.587a1.269,1.269,0,0,1,0,1c-.27.2-.181.549-.307.817-.231.464-.638,1.018-1.194,1.072a3.25,3.25,0,0,0-1.264.268,2.542,2.542,0,0,1-1.443-.517c-.346-.2-.547-.628-.929-.732-.2-.231-.3-.534-.567-.73-.185-.323-.536-.493-.756-.82a10.071,10.071,0,0,0-1.545-1.818c-.506-.49-.758-1.12-1.266-1.624a4.534,4.534,0,0,1-1.2-1.476c-.516-.608-1.227-.915-1.652-1.593a1.189,1.189,0,0,0-.5-.3,6.744,6.744,0,0,0-1.3-1.3,4.045,4.045,0,0,0-.39-.144c-.34-.525-.9-.516-1.3-.891a1.539,1.539,0,0,1-.449-.268c-.336-.055-.756-.055-.911-.41-.124-.052-.375.05-.443-.161a.849.849,0,0,0-.34.161c-.523-.285-.693.5-1.177.484a5.43,5.43,0,0,1-.623.142,6.072,6.072,0,0,1-.941.517,1.417,1.417,0,0,0-.4.658,5.487,5.487,0,0,1-1.6,2c-.382.586-1.122.966-1.282,1.657a5.481,5.481,0,0,1-.856,1.144c-.157.214-.416.261-.628.394a12.859,12.859,0,0,1-1.99,2.511l-.307.266a.583.583,0,0,1-.157.519,18.53,18.53,0,0,0-2.016,2.441c-.218.159-.584.294-.482.662-.083.479-.536.785-.889,1.123a3.13,3.13,0,0,1-.647,1.016,4.655,4.655,0,0,1-1.373,1.425c-.166.364-.726.388-.7.837a2.773,2.773,0,0,1-1.109,1.249,3.308,3.308,0,0,1-1.26.822c-.262-.12-.371.224-.589.248-.516-.275-.926.432-1.356-.067a3.494,3.494,0,0,1-.663-.27A2.529,2.529,0,0,1,209.31,47c.017-.412.3-.763.371-1.175a3.254,3.254,0,0,1,.48-.715,3.2,3.2,0,0,1,.323-.693,4.03,4.03,0,0,1,.447-.968c.174-.329.142-.758.375-1.068a6.327,6.327,0,0,0,1-1.888,7.076,7.076,0,0,0,.7-.892c.323-.92,1.26-1.585,1.783-2.424a4.2,4.2,0,0,0,.856-1.4c.371-.667,1.131-1.088,1.336-1.827a12.248,12.248,0,0,0,1.428-2.053c.129-.3.392-.545.447-.878.009-.758.641-1.26.782-1.964a5.855,5.855,0,0,1,1.05-2.282c.041-.49.5-.819.431-1.336-.1-.212-.351-.285-.519-.462a1.536,1.536,0,0,0-1.194-.552,2.162,2.162,0,0,0-.46-.092c-.652-.266-1.36-.4-2.018-.637a2.844,2.844,0,0,1-1.016-.824l-.443-.355c-.765.1-1.275-.528-2.04-.477a20.467,20.467,0,0,1-2.491-.739c-.447-.492-1.19-.364-1.536-.992-.309-.185-.715-.283-.855-.678a.71.71,0,0,1-.055-.48,3.431,3.431,0,0,1,.713-.789c.275-.222.6-.159.948-.192a14.014,14.014,0,0,0,2.956-.5,4.015,4.015,0,0,1,1.377-.02,12.082,12.082,0,0,0,1.657-.055,5.076,5.076,0,0,1,1.087.022,12.414,12.414,0,0,0,1.428-.159,2.425,2.425,0,0,0,1.713-.235c.525-.2,1.118-.218,1.641-.429a1.446,1.446,0,0,1,1.07-.662c.192-.316.51-.381.782-.589a7.7,7.7,0,0,1,.767-.8,2.335,2.335,0,0,1,.2-.852c.647-.469.334-1.336.747-1.911a4.732,4.732,0,0,1,.591-1.428c.122-.187-.022-.475.048-.715.168-.37.569-.645.715-1.026.033-.22-.067-.467.018-.678a2.952,2.952,0,0,1,1.048-1.909c.353-.253.674-.684,1.183-.467A1.76,1.76,0,0,1,229.956,5.954Z" transform="translate(-146.982 -5.676)" fill="#f16112"/>
            <path id="Path_2726" data-name="Path 2726" d="M201.364,22.6a.788.788,0,0,0,.737-.815s0-1.779-1.652-1.779a3.155,3.155,0,0,0-2.7,1.922c-.935.006-1.983,0-2.134-.041,0,0-.1-.942-.815-.839,0,0-1.155.355-.327,1.4a.748.748,0,0,0,.327.2s.689,1.2-.4,1.779c0,0-1.118.711-1.1-1.8,0,0,.054-6.634-.153-8.162a1.808,1.808,0,0,0-.989-1.321s-.382-.231-.408.253L191.7,23.772a1.454,1.454,0,0,0,.634,1.269,2.237,2.237,0,0,0,3.308-.455,2.343,2.343,0,0,0,.124-1.961l1.731-.009a3.707,3.707,0,0,0-.1.545,2,2,0,0,0,2.112,2.337,2.674,2.674,0,0,0,2.315-1.728s.15-.662-.46-.1c0,0-.915,1.451-2.058.663a2.031,2.031,0,0,1-.447-1.72Zm-2.007-1.375s.66-.915,1.22-.711a.81.81,0,0,1,.355,1.172s.028.331-1.652.227h-.244A5.187,5.187,0,0,1,199.357,21.227Z" transform="translate(-161.198 0.59)" fill="#918965"/>
            <path id="Path_2727" data-name="Path 2727" d="M204.393,13.059a1.128,1.128,0,0,0-1.286,1.229l.035,7.118c-.248.7-1.164,2.609-2.526,3.053,0,0-1.728.562-1.449-1.548a3.7,3.7,0,0,1,1.018-2.186s.761-.674.785.355v.333a.4.4,0,0,0-.227.558s.329.85.785.523a.618.618,0,0,0,.179-.331,1.971,1.971,0,0,0-.381-1.9s-1.486-1.2-3.2,1.042c0,0-1.654,2.82.711,3.84,0,0,2.382.911,4.313-2.1l.011,2.044s-.1.177.4.126c0,0,.793.028.891-.48l0-1.46a.714.714,0,0,0,.484.29,2.153,2.153,0,0,0,1.539-.122,1.584,1.584,0,0,1,.541,1.391c.076.663,0,8.951.026,10.143a1.978,1.978,0,0,0,1.12,1.683c.431.251.407-.255.407-.255l-.152-10.73c-.019-1.752-.889-2.343-1.438-2.543a3.105,3.105,0,0,0,.453-.392,1.656,1.656,0,0,0-.541-2.838,2.4,2.4,0,0,0-2.434.73l.017-7.467C204.485,13.055,204.393,13.059,204.393,13.059Zm1,9.6a1.891,1.891,0,0,0-.737.152.46.46,0,0,0-.2.205l0-1.367a2.375,2.375,0,0,1,1.366-.743.848.848,0,0,1,.915.863S206.743,22.806,205.4,22.654Z" transform="translate(-156.23 0.562)" fill="#918965"/>
            <path id="Path_2728" data-name="Path 2728" d="M204.182,27.108c-.087-.6,0-9.461,0-9.461a1.653,1.653,0,0,0-.545-1.183s-.473-.51-.711-.037c0,0,0,3.941.017,7.306l-.017-.017a2.908,2.908,0,0,0-3.866.678,3.179,3.179,0,0,0-.724,2.382c-.211.237-.649.662-.8.227,0,0-.2-1.207-.915-1.251,0,0-.327-.157-.983.711,0,0-.3.37-.34-.272,0,0,.037-1.323-.985-1.221,0,0-.54-.068-1.657,1.628,0,0-.61.643-.713-.172,0,0,.033-2.572-1.12-1.558,0,0-.946,1.051-1.658,1.863,0,0-.479.408-.543-.336,0,0,0-2.982-.881-2.982,0,0-.815-.272-1.491,2.713,0,0-.131,1.794-1.46,1.523a46.762,46.762,0,0,0-4.854-.551,3.578,3.578,0,0,0,.244-.534,10.235,10.235,0,0,0,.678-3.9s-.068-11.523-.475-12.709c0,0-.2-.711-.711-.442,0,0-.846-.068-.711,5.118,0,0,.1,8.032.2,9.834a5.478,5.478,0,0,1-.3,2.6,8.283,8.283,0,0,0-3.126.318s-1.2.658-.033,1.151a4.676,4.676,0,0,0,3.343-.473,36.1,36.1,0,0,0,6.083.647,1.4,1.4,0,0,0,1.489-1.055c.554-1.4.68-.27.68-.27-.035,1.391.473,1.491.473,1.491.577.442,1.966-1.288,1.966-1.288.813-1.257.813-.543.813-.543-.067,1.257.682,1.526.682,1.526.911.34,1.894-1.323,1.894-1.323.747-1.288.848-.711.848-.711a14.731,14.731,0,0,0,.033,1.63c.27,1.255,1.7-.408,1.7-.408.407-.645.475-.373.475-.373.237.985.918.985.918.985.588.022,1.157-.682,1.428-1.072a2.14,2.14,0,0,0,.3.427,2.232,2.232,0,0,0,2.881.442,6.458,6.458,0,0,0,1.266-1.384c.006.482.013.892.018,1.179,0,0,.177.931.989.268,0,0,.205-.074.257-.567A4.77,4.77,0,0,0,204.182,27.108Zm-2.171-.508c-1.7,1.454-2.169-.068-2.169-.068-.238-2.136,2.1-2.373,2.1-2.373a1.389,1.389,0,0,1,1.009.316c0,.292,0,.573.007.848A3.057,3.057,0,0,1,202.011,26.6Z" transform="translate(-175.194 -2.493)" fill="#918965"/>
            <path id="Path_2729" data-name="Path 2729" d="M185.2,21.914s7.188-.307,20.646,0a1.792,1.792,0,0,1,1.323.578s-4.917.2-20.816.88c0,0-3.152-.067-2.068-1.12A1.742,1.742,0,0,1,185.2,21.914Z" transform="translate(-167.677 7.957)" fill="#918965"/>
            <path id="Path_2730" data-name="Path 2730" d="M211.45,48.5c-.048-.1.164-.092.054-.176-.211-.05-.516.493-.573.02-.105-.07-.222-.02-.322-.055-.087.028-.1.168-.212.163-.3.129-.32-.344-.536-.355.061.054.042.164.018.227a.127.127,0,0,1-.124.055c-.055-.113-.209-.157-.126-.3.089-.033.046-.148.107-.177-.037-.076-.172-.031-.2-.144-.015-.268.122-.514-.07-.73.007-.122-.031-.262.07-.342.183.02.015-.2.142-.246-.02-.185-.118-.358-.054-.556.107-.1.2-.253.375-.181.164-.061-.02-.161-.039-.242.259-.161.035-.458.129-.715.1-.14.115-.355.318-.392.055,0,.118.057.164.035.222-.127.068-.347.268-.479-.1-.137-.046-.275-.057-.416.07-.07.129-.152.235-.14.048.109.185.048.249.14.067-.081.174.022.2-.087a.685.685,0,0,0,.323-.2c.046-.218-.3-.209-.2-.427a.274.274,0,0,1,.176-.216c.137-.024.161.183.27.128.159,0-.063-.128-.02-.214a.565.565,0,0,1-.334-.375c.078-.12.052-.288.157-.394-.079-.1-.015-.176.039-.266.205-.137.455-.089.606-.3a.152.152,0,0,1,.109.044c.028.142-.1.264,0,.382.006.035-.015.079.015.105.068-.022.1-.12.177-.105a.7.7,0,0,1-.054-.571c-.006-.028-.048-.107-.092-.055a.2.2,0,0,1-.177.055c-.083-.028-.094-.122-.087-.2.187-.089.253-.414.5-.286l.089.07a.5.5,0,0,0,.022-.211c-.142-.041-.013-.255-.2-.2-.1-.083-.035-.238-.054-.357.122-.083.118-.224.264-.246a.74.74,0,0,0,.222-.663.526.526,0,0,1,.355-.286.176.176,0,0,0,.139.035c.218-.111-.113-.194.02-.336.113-.111.246-.357.442-.286.072.116.207.166.127.323-.055.153-.183,0-.233.122a.186.186,0,0,0,.218.109.355.355,0,0,0,.14-.286,2.346,2.346,0,0,1-.181-.591c.087-.133.294-.24.288-.425.177-.116.384-.205.467-.392.078-.129.262.044.264-.163-.092-.05-.035-.177-.128-.229a.936.936,0,0,1,.288-.662.352.352,0,0,1,.322.177c0,.026-.013.059.017.072.116.006.059-.128.128-.174a1.213,1.213,0,0,1,.211-.859c.107-.183.4-.065.414-.322-.061-.061-.026-.14.015-.2a.213.213,0,0,1,.177-.054c-.1.205.168.4-.092.552l-.176-.091c-.03.044-.013.109-.015.163.113.168.227-.1.394-.037.1-.068.187-.011.281-.085.018-.07.12-.126.054-.2a.216.216,0,0,1-.177.055c-.1-.107-.035-.209-.107-.32.02-.079.078-.115.137-.161.148.028.227-.176.312-.249-.059-.048-.174.018-.2-.07a.19.19,0,0,1,.07-.181c-.076-.091.07-.052.091-.107.072-.063.148-.185.264-.157.054.052.12.091.091.174-.048.139-.286.1-.227.272.074-.065.192-.013.249-.126-.007-.067-.007-.163.068-.163h.02c0-.168-.1-.4.018-.571a2.431,2.431,0,0,0,.447-.425c.087-.157.261,0,.316-.2v-.033c-.076-.031-.177.055-.268,0-.133-.212.2-.316.109-.558.1-.054.231-.357.375-.139.333-.209.246-.593.538-.819l.277-.27c.033-.081-.065-.081-.1-.124-.091.031-.222.089-.3.017a.426.426,0,0,1-.072-.373c.074-.065.192-.072.2-.2-.061-.2.1-.346.213-.5.074.033.1-.079.157-.089a.334.334,0,0,1,.255.212c-.07.207-.255.229-.357.4a.169.169,0,0,0,.067.177c.15-.091.116-.281.268-.355l.113-.5c-.072-.054-.107,0-.177,0-.091-.115-.3-.164-.27-.34.043-.087.039-.2.155-.227.035,0,.072,0,.089.035-.054.068-.046.126.026.192l.028.039c.063-.126.022-.281.105-.4.107-.039.181-.164.31-.137a.672.672,0,0,0,.3-.445c.2-.19-.061-.368-.124-.536.094-.188-.007-.456.177-.61a.821.821,0,0,1,.1-.37c.087-.046.209-.157.286-.041.118.237-.057.486-.12.715-.046.083.067.14.1.216.094-.013.035-.126.107-.164a.565.565,0,0,0,.183-.179c.018-.126-.035-.181-.037-.3-.192-.076-.009-.281-.146-.392.061-.249-.166-.416-.122-.68a.374.374,0,0,1-.074-.375c.061-.286.5-.07.447-.427.039-.163-.159-.144-.213-.268-.078-.1-.181-.188-.161-.323.031-.033.14-.043.089-.1.013-.1-.085-.159-.127-.233-.238-.1-.421.155-.662.015-.059-.065-.183,0-.209-.124-.1-.163.19-.281-.037-.394-.118-.057-.281.12-.377-.033-.1-.074-.172.044-.248.089-.142-.068-.277.052-.412,0-.3-.172-.735-.037-.944-.41-.164-.013-.3-.115-.462-.126-.148-.168.124-.32.072-.5-.153-.207-.333.1-.482-.054-.07-.059-.074-.152-.144-.214-.2.039-.423.155-.623.035a.746.746,0,0,1-.161-.37c-.174-.347-.578.163-.754-.237-.229-.078-.355.214-.6.159-.185-.072-.3-.253-.536-.159-.237.067-.383-.192-.643-.122-.213-.063-.113-.516-.445-.323a.922.922,0,0,1-.715.094c-.133-.14-.2-.508-.479-.4a1.239,1.239,0,0,1-1.037.126c-.116-.224-.5-.126-.5-.434.007-.142-.126-.185-.248-.139a.275.275,0,0,1-.249.072c-.076-.161-.281-.214-.431-.288-.148.087-.288-.055-.357-.157a.391.391,0,0,0-.27-.358.339.339,0,0,1,.078-.336c.192-.207.237.148.425.105.026.257.431.237.3.536.12.107.213.336.4.211l.035-.033c-.312-.07-.164-.462-.414-.573-.316.022-.261-.39-.552-.425-.035-.044-.066-.122-.14-.087-.12.054-.137.266-.286.194-.092-.076-.05-.225-.035-.325.057-.131.225-.1.34-.159s-.007-.153.033-.213c.107-.061.151-.168.266-.211.17.043.336.179.486,0,.129-.007.22-.105.336-.131a1.593,1.593,0,0,1,1.3-.1c.318-.074.772-.333,1.037,0a.244.244,0,0,1,.266.188c.022.044,0,.122.068.131.351.044.358-.4.682-.41.249-.018.5-.144.691.1.479.078.686-.534,1.144-.512.351-.07.584.368.928.109a.817.817,0,0,1,.588-.109.543.543,0,0,1,.358.212.272.272,0,0,0,.1.2c.431.157.66-.307,1.09-.144.314-.081.257.545.569.2.026-.126,0-.294.155-.323a1.171,1.171,0,0,1,.735.035c.649-.035,1.051-.654,1.661-.783a1.3,1.3,0,0,0,1.212-.464c.115-.327.015-.774.427-.948.257-.161.7.05.872-.248-.011-.17-.338-.17-.229-.375a.317.317,0,0,1,.408-.089.363.363,0,0,0,.251.142c.091-.159-.091-.3-.054-.48.113-.257.322-.591.641-.608a.289.289,0,0,0,.092-.32.486.486,0,0,1-.144-.431c.074-.32.525-.506.357-.9a1.8,1.8,0,0,1,.512-1.391,4.961,4.961,0,0,1,.235-1.146c.294-.323.22-.8.484-1.142a8.376,8.376,0,0,1,.231-1.445c.231-.3.558-.525.6-.905a3.673,3.673,0,0,1,.983-.7c.331-.068.564.253.891.183a.545.545,0,0,1,.375.27c.007.126.183.161.179.3a2.788,2.788,0,0,1-.055.839c.081.054.19.087.214.192.2.327-.318.327-.179.625.246.214.185.527.144.82-.048.028-.041.079-.091.111a.4.4,0,0,1,.214.139c0-.148.111-.2.218-.268a.144.144,0,0,1,.179.107.437.437,0,0,1-.091.358.186.186,0,0,1-.235,0c-.043-.022-.024-.076-.072-.072.1.379-.521.382-.334.73.17-.048.246.065.334.177.007.042-.007.1.02.126.046-.079.111-.224.236-.159.083.033.05.148.05.2-.07.055-.159.126-.253.07-.059.238-.368.181-.408.394.22.013.349-.2.521-.325.275.033.327-.37.623-.177.15.118-.028.567.281.466.307.055.349.407.4.658a.415.415,0,0,0-.043.48c.091.164.3.1.377.268.2-.063.02-.006.118.089a1.231,1.231,0,0,1-.054.521l.017.194c.2-.024.48-.068.625.127.076-.044.094.083.144.124.007.122.068.233.015.358-.065.157-.338.14-.266.32.419.009.225-.719.732-.554.188.148.423.482.7.338a.631.631,0,0,1,.355-.268.836.836,0,0,0,.769,0c.288-.048.482.157.765.074a.888.888,0,0,1,.909-.164c.438.03.728-.322,1.133-.371.185.133.336-.076.462.133.44-.2.3-.475.617-.419.172-.127.419.279.357-.1.091,0,.192-.089.268,0a.189.189,0,0,0,0,.177c.163-.065.24-.222.392-.322.12-.033.24-.133.377-.074.017.129.185.028.194.163.174-.063.1-.286.2-.412.074-.085.12-.2.249-.246.089-.015.205.018.2.122v.055c-.1.076-.168.207-.268.283.113.035.192-.124.3-.157.288-.163.266-.7.682-.571.041.078.1.174.211.159.183-.081.124-.445.427-.358.092.042.028.231.174.214.078-.028.168-.006.222-.087-.02-.2,0-.425.212-.5.148-.07.279-.006.445-.048a.65.65,0,0,1,.693-.288c-.035-.222.261-.212.288-.414a.283.283,0,0,1,.266.055c.144-.115.068-.375.283-.39.2.139.257-.19.431-.054.017.092-.116.122-.12.213a.311.311,0,0,0,.281-.105c.065-.281.536-.449.841-.488.362-.131.658-.192.99-.347.207-.024.316.2.53.12a.783.783,0,0,1,.588-.142c.238.007.288.412.575.27.074-.037.159.072.213.122l-.076.109c.076.07.194.065.231.179-.024.079-.009.205-.12.212a1.207,1.207,0,0,0-.4.214c.094.126.281.065.408.055.054-.035.115-.353.22-.325.392.288-.445.6.1.822.142.107.043.288,0,.407.022.155-.268.148-.137.325.068.076-.146.275-.185.377a.724.724,0,0,1-.225.2.128.128,0,0,1,.031.231c-.013.03-.052.011-.072.015a.142.142,0,0,1-.052-.137c.015-.026.283-.122.283-.153a.642.642,0,0,0-.447.153c.035.063.216.166.2.211a.481.481,0,0,1-.268.266c-.081.041-.164-.081-.213.037-.006.547-.384.364-.658.673-.262.216-.573-.212-.82.087-.129.251-.357.307-.591.392-.153.113.017.349-.144.464-.253.3-.728-.159-.891.248.066.039.181,0,.181.111a.521.521,0,0,1-.229.41.975.975,0,0,0-.447.283c-.129.1-.344.017-.412.2-.174.179-.743-.1-.586.377-.113.129-.31.183-.36.37a.37.37,0,0,1-.379.091c-.044-.018-.083-.083-.135-.124-.066.024-.139.017-.179.091-.009.144.089.264.048.39a.835.835,0,0,1-.8.2c-.181-.011-.177-.31-.37-.253-.035.065,0,.1-.035.164a.24.24,0,0,1,.105.283.721.721,0,0,1-.268.161.19.19,0,0,1-.039-.248.315.315,0,0,0-.153-.039c-.042.122-.29.177-.183.344.081.048,0,.129,0,.19-.164.344-.608.1-.841.323-.059.205-.283.248-.425.377-.224.1-.462-.139-.645.07a.3.3,0,0,0-.227-.022c-.188.164.159.443-.164.523-.065.018-.14.007-.19.07L239,19.1c.105-.05.187.054.3.018a.156.156,0,0,1,.02.105c-.1.055-.026.179-.126.233-.249-.081-.429.242-.621-.02a.1.1,0,0,0-.037.144l.177.126c-.028.116,0,.31-.177.3-.128.028-.218.362-.357.14-.085-.094.174-.179-.018-.179-.1.07-.1.292-.248.218-.089-.091-.061-.229-.09-.342a.365.365,0,0,0-.041.3.474.474,0,0,1,.09.431.513.513,0,0,1-.192.233c-.14.115-.388-.174-.447.1-.131.12-.222-.14-.39-.052-.224-.022.039-.273-.2-.283-.085-.079-.059-.214-.105-.3.17-.07.227.187.375.122a.576.576,0,0,0,.322.017c.1-.059.187-.205.3-.248v-.037a1.78,1.78,0,0,1-.582-.24c-.1-.294-.632-.1-.519-.482-.17-.115-.384-.015-.567,0,.079.152.27.421.222.636-.046.1-.3.1-.159.248.031.072-.05.107-.087.142h-.113c0,.116.018.3-.139.357-.1.007-.211-.026-.264.087.022.224.225.022.336.111a.493.493,0,0,1,.266.249c.054.157-.174.253-.07.39.07-.05.15.011.214.035a.408.408,0,0,1,.015.32c.262.181.552.371.552.717a1.292,1.292,0,0,1-.176.3l-.157.2c.1.081.31-.1.37.111.041.122-.571.669-.419.765.163.046.351.07.445.233.085.083.041.244.181.29a.565.565,0,0,1,.375-.037c.094.1-.039.159.07.249.05.109-.111.288.089.288.139.042.431-.105.464.124.068.242.187.562.48.623.142.1-.152.482.161.266.054.052.17.041.176.144,0,.078.043.118.02.192.375.035.224.612.641.5a.282.282,0,0,1,.126.285.46.46,0,0,1-.107.216c.133.124.447.144.425.41.035-.07.1-.044.148-.076a.205.205,0,0,1,.072.257c-.041.011-.065.039-.107.031l-.113-.144c-.129.144-.312.322-.211.556a.539.539,0,0,0,.358.246c.159-.057.336-.192.517-.089.172.185.493.237.434.517.1-.194-.013.453-.037.4l.074.055c.074-.065.006-.177.05-.246.081-.083.237.078.338.033.19.238.418.168.225.693-.079.081.375-.14.521-.091.133.15.331.318.233.558-.063.083-.179.166-.107.286.155.135.569-.577.7-.377.079.242.344-.059.479.142.194.1-.02.37.194.462.017.115-.362.588-.406.251a.551.551,0,0,1-.288-.464c-.054-.015-.126.126-.17.146.1.312.12.49.2.817.063-.046.213-.3.309-.192a3.376,3.376,0,0,1,.054.8c.057.122.168,0,.237.039.142.083.142.257.248.37.015.074-.033.166.035.214.048-.054.153-.037.214-.013a.75.75,0,0,0,.264.353.442.442,0,0,1-.122.286.3.3,0,0,1-.285-.142c-.033.018-.03.105-.033.142.153.079.323.257.551.074a.286.286,0,0,1,.194.212c.078.264-.512.316-.161.556.037-.089-.011-.222.107-.255a.57.57,0,0,1,.394.394c-.005.152.14.286.12.464.078.052.165.059.214.146a.129.129,0,0,1-.12.179.115.115,0,0,0-.142.067c-.046.113.085.163.142.214.07.015.164.037.177.126a2.249,2.249,0,0,1-.251.286c.425-.033.026.722.5.386.109.007.131.12.157.2a.747.747,0,0,0-.033.606c.105.015.237.031.229.163a.515.515,0,0,0,.074.46c.168.113.46.188.46.443a.538.538,0,0,1,.3.272c.017.216.039-.338.394-.018-.009.142.024.443-.091.517-.089-.015-.159.192-.227.124-.041.127-.072.035-.041.177.153.181.322.366.233.625-.024.194-.257.281-.214.48.063.187-.131.331-.264.445-.142-.013-.2.155-.338.155-.126.17.094.586-.251.649-.329.242-.678-.026-1.037.161-.118.074-.207-.048-.307-.091l-.087-.161c-.118.12-.281.078-.425.033-.14-.083-.015-.353-.251-.32-.009.039-.046.065-.067.087-.124.043-.15-.155-.27-.12-.261-.177-.238-.49-.237-.748-.007-.111-.1-.091-.177-.111a1.127,1.127,0,0,1-.421-.493.309.309,0,0,1,.054-.231c.094-.061.183.015.268.067a.538.538,0,0,0,.157.554c.048-.087-.157-.166-.037-.266.085-.026.091-.091.1-.166-.277-.017-.1-.486-.443-.334-.042-.03-.091-.137-.139-.089.05.033.039.129.011.177s-.107.026-.176.035a.137.137,0,0,1-.055-.124c.044-.041.061-.089.113-.122h.068c-.013-.033.039-.14-.054-.148-.1-.052-.3.126-.264-.087.137-.048.011-.163.05-.233-.133-.144-.323-.288-.246-.5l-.111-.091c-.067.1-.078.275-.251.177-.046-.2-.379-.394-.14-.6.081-.065.14-.142.033-.213-.107-.118-.2-.011-.336-.022-.224-.052-.105-.432-.353-.333-.115.033-.177-.081-.236-.124-.009-.174-.015-.309-.211-.323-.081-.035-.22-.035-.214.087.105.1.333-.057.3.179.059.042.118.059.113.142.026.076-.087.1-.089.161a.276.276,0,0,1-.251-.035c-.052-.137-.259-.2-.179-.412-.194-.146-.189-.373-.358-.532a.463.463,0,0,0-.248-.5c-.041-.03-.109-.015-.163-.015-.054-.129.046-.279-.124-.322-.133.078-.281,0-.425,0-.094-.14-.314-.214-.286-.41a1,1,0,0,1-.516-.467c-.1-.188.07-.536-.255-.586-.092,0-.192.105-.283.015-.094-.19-.322-.133-.39-.3a2.908,2.908,0,0,0,.087-.6c-.129-.074-.185-.259-.34-.268-.15.009-.261.187-.425.12-.109-.081-.288-.152-.212-.338.026-.068-.052-.094-.089-.105a.571.571,0,0,1,.048-.3c-.041-.063-.1-.17-.194-.166-.072-.074.083-.216-.072-.231-.024.262-.279.07-.371.218-.166.048-.244-.153-.346-.218-.03-.033-.009-.083-.015-.124.043-.1.131.054.148-.068.065-.115.259.044.272-.131.039,0,.052.011.076-.031-.118-.14-.211.022-.334-.033a.273.273,0,0,1-.068.085c-.122-.041-.185-.192-.322-.177-.153-.174-.187.242-.358.074-.159-.122-.168-.314-.286-.447a.7.7,0,0,1-.527.009c-.091-.063-.076-.159-.091-.259-.055-.135.159-.183-.059-.3a1.454,1.454,0,0,1-.394.037c-.14-.067-.089-.213-.14-.323a.193.193,0,0,0,.013-.192.256.256,0,0,0-.188-.057c-.055.07-.011.17-.113.214-.118.041-.185-.059-.264-.124-.017-.128.044-.355-.146-.392-.054,0-.1-.065-.054-.107-.153.05-.159-.2-.316-.089-.131-.026-.07.116-.109.177-.065.037-.142-.039-.159-.105.083-.152-.059-.27-.2-.322-.074-.091.009-.179-.068-.268-.054-.1-.111-.028-.179-.087l-.039.033c.1.046.1.107.168.187a.47.47,0,0,1-.059.188c-.318.048-.5-.233-.782-.107-.133-.068-.357.24-.309-.068-.006-.091-.111-.111-.177-.074a.945.945,0,0,1,.022.211c-.181.013-.288.436-.445.131-.057-.052.024-.092.017-.146-.181-.011-.273.31-.5.146-.233.03-.044.285-.266.353-.087.135-.264.111-.4.091-.007-.033-.046-.017-.068-.02l-.055.054c.1.011.072.135.124.194a.442.442,0,0,1-.14.231c-.087-.091-.277.054-.264-.12.028-.07.135.006.146-.091-.3-.03-.6.286-.881.07-.046-.1-.153-.041-.233-.07-.224.061-.253.318-.283.482.126-.013.085-.15.144-.213.1-.026.1-.179.213-.146.2.074-.009.209.107.322a.591.591,0,0,1-.107.29c-.163.067-.307.216-.5.155-.129-.022-.087-.3-.233-.12.044.135.259.131.181.3.072,0,.14-.07.212-.018.131.043-.024.128,0,.177a.9.9,0,0,1-.283.179l-.091-.127a1.3,1.3,0,0,1-.2.218c.146.052.126.251.076.355-.017.078-.105.142-.177.089-.03-.031-.076-.011-.111-.015-.124.12.017.237-.035.371a.265.265,0,0,1-.144.2c-.155.011-.377-.233-.466.033-.168.065-.37-.15-.458.126-.02.048.026.078.055.107.092-.03.181-.177.277-.068.07.211-.17.172-.229.316-.091-.1-.27-.044-.338-.159-.018-.068.12-.118.022-.177a.244.244,0,0,1-.22.035c-.041-.111-.157-.054-.227-.015a1.56,1.56,0,0,1-.377.37.1.1,0,0,0,.033.091c.144-.061.248-.371.431-.179.083.1.248-.061.338.074.009.079-.006.17-.091.194-.043-.031-.107-.013-.157-.013-.039.129-.152.1-.251.159-.1.033-.14-.061-.211-.072-.055.052.046.133-.035.179.057.083.12.015.19.089-.026.126,0,.3-.155.338a.1.1,0,0,1-.126-.07c-.006-.065.043-.129,0-.179h-.022c-.028.148-.277.364-.033.48.061.131-.02.259-.068.373a1.02,1.02,0,0,1-.27.072c.033.046.009.107.017.161-.1.092-.314.018-.3.212-.135.041-.211.362-.355.218-.042-.237.137-.386.12-.61.078-.076.273.017.253-.146-.113-.081-.242.007-.358.02-.1.155.07.473-.214.484-.124.052-.174-.089-.268-.107-.318.126-.055.573-.39.662-.185.1-.325-.176-.482-.022-.083.076-.213-.085-.246.076.122.155-.089.285-.054.423.1-.026.283.02.355-.12a.286.286,0,0,1-.02-.257l.144-.1c.074.031.065.148.161.177.214.024.207-.248.427-.2.028-.011.035.03.057.037.022.222-.213.292-.129.534-.052.083-.107.205-.213.235-.055-.03-.135-.015-.2-.039-.17.168-.022.4-.2.571a.348.348,0,0,1-.39.107c-.068-.054-.153-.057-.183.037-.054.257-.055.617-.355.769-.157.018-.251-.091-.358-.2-.087.124-.091.331-.286.344-.068.031-.006.116-.054.161-.1.028-.2.211-.3.068l-.052-.048c-.013.168-.314.251-.129.445l-.009.011c.03.033.057.074.1.059.078-.031.011-.118.054-.161.137-.085.205-.264.379-.218.094.067.24.139.157.286-.1.15-.383.12-.3.355a.557.557,0,0,1-.159.216.574.574,0,0,1-.227-.068c-.091.042-.055.137-.078.211a.2.2,0,0,1,.087.235c-.1.085,0,.366-.209.279-.026-.046-.078-.116-.144-.122,0,.083-.05.227.076.288.033.161.248.266.137.46-.122.074-.222.205-.392.177-.019.477-.547.71-.658,1.125-.146.242-.663.007-.554.447-.133.4-.745.091-.765.589-.085.251-.4.083-.532.288.046.028.124.068.067.137a.562.562,0,0,1-.268.2c-.041-.039-.033-.1-.033-.157.052-.139.214-.033.249-.163-.055-.015-.179.024-.233-.037-.161.188-.024.525-.316.623-.091-.015-.194-.03-.235-.124l-.037-.268c-.085-.042-.107.07-.161.105.006.109.067.216.017.322a.845.845,0,0,1-.8.322.55.55,0,0,0-.249.392c.148.177-.074.449.127.61a.563.563,0,0,1-.039.447c-.065.212-.294.124-.431.177.142.079.118.248.094.373a.292.292,0,0,1-.379.085.371.371,0,0,1-.124-.085c-.048.085-.212.181-.122.32a.237.237,0,0,1,.068.322c-.072.07-.153-.059-.213.017,0,.174.03.392-.179.443-.15.072-.357-.052-.514.041-.257.037-.244.357-.431.48,0,.031-.007.07.017.091.107-.124.34-.05.27-.286.065-.1.163-.264.3-.248a.184.184,0,0,1,.055.231c-.135-.006-.12.142-.144.227l.111.041a.479.479,0,0,1-.179.3c-.12.011-.092-.164-.2-.122-.057.03-.14.122-.194.05L212.338,48a.228.228,0,0,1-.368.046c-.039-.018-.076.043-.131.022s-.059-.1-.124-.068c-.061.1-.083.237-.213.3.166.111.118-.238.3-.089.035.1.1.222.02.323C211.7,48.659,211.566,48.539,211.45,48.5Zm1.356-.48h-.02v-.031h.02Zm-2.977-2.408a.36.36,0,0,0,.1-.231c-.035-.03-.022-.126-.1-.089-.068.059-.166.089-.146.2C209.7,45.553,209.742,45.618,209.829,45.608Zm4.882-.588a.064.064,0,0,0,.037-.1h-.057c-.013.017-.044.039-.033.065S214.687,45.03,214.711,45.021Zm.089-.177a.287.287,0,0,0,.161-.283c-.026-.1-.07-.192-.2-.177-.142.059-.092.17-.107.3C214.7,44.744,214.711,44.84,214.8,44.843Zm-3.385-1.606c.063-.124.2-.268.122-.445-.109-.115.02-.281-.122-.39a.164.164,0,0,0-.214.072c-.116.144.05.27.072.408a.256.256,0,0,0-.105.322A.173.173,0,0,0,211.414,43.238Zm4.523-.229c.013-.133.176-.1.22-.176-.237-.185.164-.371-.072-.556-.231-.026-.161.246-.249.357A.343.343,0,0,0,215.938,43.008Zm1.519-1.21a.784.784,0,0,0,.268-.166c0-.031.068-.067.02-.1-.041-.079-.089-.205-.02-.286.031-.061.131-.091.074-.159-.142.211-.371.218-.612.49A.508.508,0,0,1,217.457,41.8Zm28.876-.2c.144,0,.2-.14.3-.2.046-.128.205-.27.068-.41-.113-.026-.094.144-.212.124-.013.152-.163.043-.237.177C246.242,41.4,246.218,41.551,246.333,41.6ZM218.7,41.028l.055-.124c-.089,0-.161-.137-.248-.033C218.54,40.967,218.65,40.959,218.7,41.028Zm28.466-1.356c.072-.048.072-.137.067-.227-.05-.05-.057-.161-.157-.142a.166.166,0,0,0-.126.211C247,39.592,247.05,39.7,247.17,39.671Zm-5.209-1.247c-.224-.139.118-.225.037-.392l-.144-.1-.068.068C241.715,38.151,241.854,38.319,241.961,38.424Zm-1.569-1.73v-.283c-.028-.083-.078-.218-.2-.2l-.129.172c.011-.007-.02.355,0,.362s.216-.155.2-.122C240.268,36.7,240.327,36.694,240.392,36.694Zm-1.09-.658c.006-.042.044-.116-.015-.122-.059.05-.2-.022-.2.1C239.119,36.114,239.278,36.175,239.3,36.037Zm.266-.286a.327.327,0,0,0,.022-.249c-.065-.031-.124-.124-.2-.087C239.4,35.562,239.346,35.743,239.568,35.75ZM221.9,35.2c.1-.176.334-.2.408-.358-.037-.015-.048-.048-.089-.035-.166-.044-.055-.181-.107-.285-.105-.146-.231.022-.288.107.087.172,0,.394,0,.552C221.858,35.163,221.869,35.207,221.9,35.2Zm1.567-.27.072-.033c-.011-.044-.079-.1-.109-.055ZM244.2,36.21a.541.541,0,0,0-.237-.562c.163.227-.207.346-.081.562C243.886,36.443,244.115,36.258,244.2,36.21Zm-27.1-1.992c-.031-.055-.07-.142-.14-.089v.054C216.877,34.32,217.139,34.326,217.1,34.218Zm5.279-.142a.306.306,0,0,0,.161-.268c-.046-.011-.041-.124-.128-.089a.417.417,0,0,0-.248.427C222.256,34.157,222.3,34.026,222.379,34.076Zm.693-.161c.148-.094.249-.288.432-.288a.148.148,0,0,0,.07-.155.954.954,0,0,0-.538.19C223.017,33.738,223,33.871,223.072,33.915ZM237,33.786c.065-.033.079-.131.087-.212-.068-.1-.092-.362-.29-.268.013.129-.166.172-.046.3C236.885,33.625,236.885,33.8,237,33.786Zm6.6.281c.137-.12-.089-.131-.122-.229-.063-.1,0-.3-.12-.32a2.366,2.366,0,0,1-.03.4C243.385,33.982,243.5,34.091,243.6,34.067Zm.185-.3-.072-.3c.009.067-.1.091-.091.155A.49.49,0,0,0,243.786,33.766Zm-7.818-1.172c-.011-.03-.048-.015-.072-.015s-.057,0-.05.031A.064.064,0,0,0,235.968,32.594Zm-.146-.037c.026-.05.044-.144-.015-.181-.033-.02-.116-.037-.14.024A.251.251,0,0,0,235.822,32.557Zm-10.9.142c.092-.1.251-.085.29-.233.24.044.146-.105.166-.155.074-.174.033-.124-.013-.253-.279.358-.477.063-.534.588C224.855,32.681,224.889,32.681,224.918,32.7Zm10.05-.71c.063-.035.192-.026.183-.124-.037-.078-.089-.022-.163-.039-.078,0-.061-.146-.146-.07C234.841,31.853,234.928,31.912,234.969,31.99ZM218.76,31.7c.133-.042.067-.2.111-.3a.079.079,0,0,0-.094-.055c-.105.031-.164.164-.2.266A.144.144,0,0,0,218.76,31.7Zm.554-.159c.081-.12.2-.346.144-.443-.055.07-.1.272-.233.19C219.255,31.375,219.229,31.508,219.314,31.543Zm-.3-.338c-.024-.05-.072-.041-.107-.041v.055A.055.055,0,0,0,219.013,31.2Zm13.175-.966c.068.085.115-.026.2-.018-.02-.074.033-.139.013-.194-.087.035-.068-.078-.122-.107-.05-.057-.118-.046-.179-.068a.176.176,0,0,0-.068.124A.886.886,0,0,0,232.188,30.238Zm-12.124-.891a.46.46,0,0,1,.318-.142c.12-.009.111-.153.09-.235a.358.358,0,0,0-.286.039C220.262,29.2,219.951,29.165,220.064,29.348Zm11.074-.068c-.02-.05.044-.055.07-.074A.1.1,0,0,1,231.138,29.279Zm-10.252-.713c.087-.079.266-.054.279-.2a.582.582,0,0,0-.266-.5v.074c.124.1.054.244.089.37a.772.772,0,0,0-.126.237Zm-.625-.126c.061-.091.17-.192.177-.32-.028-.135.116-.253.015-.373-.072.015-.174-.046-.214.05.026.2-.244.286-.157.514A.2.2,0,0,0,220.262,28.44ZM236.859,26c.033-.065.32-.4.388-.386.068-.092-.388-.028-.388-.146l-.24.146A.469.469,0,0,0,236.859,26ZM220.63,24.41a.577.577,0,0,0,.216-.163c.006-.046,0-.1-.048-.105-.105.085-.218-.015-.344.013-.042.044-.12.044-.092.131A.352.352,0,0,0,220.63,24.41Zm-9.147-3.552a1.259,1.259,0,0,0,.608-.231.191.191,0,0,0-.163.05.442.442,0,0,1-.445-.033c-.068-.346-.434-.079-.536-.157l.076.07a.341.341,0,0,1,.371.12C211.451,20.731,211.427,20.829,211.483,20.859Zm24.986-.569c-.107-.055-.135-.244-.288-.214v.054c-.111.076-.07.214-.1.322C236.236,20.583,236.358,20.354,236.469,20.29Zm1.358-.737c.039-.105.218.163.27.1.074-.018.118.1.188.054.109-.163-.107-.488-.177-.532A1.289,1.289,0,0,0,237.827,19.552Zm1.863-.432c.29-.059.255-.371.3-.589l-.037-.033c-.17-.081-.336.048-.464.176.02.164-.037.253-.017.394C239.525,19.14,239.633,19.074,239.69,19.12Zm-25.156-.985a.127.127,0,0,0,.07-.179.337.337,0,0,0-.124-.131c-.1-.007-.244-.054-.322.042C214.072,18.07,214.34,18.218,214.534,18.135Zm27.619-1.859c-.03-.039-.142-.309-.2-.3-.1.039-.177.39-.213.475C241.9,16.559,242.353,16.638,242.153,16.276Zm4-1.661c-.061-.074-.157-.055-.237-.089l-.015.076C245.934,14.7,246.131,14.744,246.154,14.615Zm.782-.2c.382-.035.235-.377.2-.3-.031-.1-.161-.065-.249-.074-.091.042-.109.157-.126.249A.46.46,0,0,0,246.935,14.417Zm.578-.408c.126.037.177-.124.288-.124a.293.293,0,0,0-.054-.288c-.081-.054-.144.035-.212.055a.506.506,0,0,0-.144.357A.067.067,0,0,0,247.513,14.009ZM242.8,11.57c.091.048.081-.065.153-.109a.509.509,0,0,1-.085-.192c-.044.035-.127,0-.155.05C242.709,11.411,242.641,11.416,242.8,11.57Zm6.765-.384-.2-.31c-.057.028-.222.275-.2.364C249.428,11.481,249.5,11.241,249.561,11.185Zm-19.393-1.2c.039-.035.105-.089.092-.161-.028-.02-.054-.067-.1-.054-.127-.042-.092.105-.127.164A.148.148,0,0,0,230.168,9.981Z" transform="translate(-146.728 -5.686)" fill="#cf2f14"/>
            <path id="Path_2731" data-name="Path 2731" d="M224.824,14.053c-.172-.111-.342.055-.514,0-.244.091-.244.344-.3.536a.185.185,0,0,0,.268-.054c.152.085.253-.07.353-.159a.372.372,0,0,0,.233-.177.229.229,0,0,0-.091-.078" transform="translate(-133.81 1.375)" fill="#cf2f14"/>
            <path id="Path_2732" data-name="Path 2732" d="M220.861,16.678c-.209-.131-.41.063-.617,0-.294.105-.294.408-.362.641a.218.218,0,0,0,.321-.068c.183.105.3-.083.425-.188a.415.415,0,0,0,.275-.213.3.3,0,0,0-.105-.089" transform="translate(-137.307 3.594)" fill="#d55f47"/>
            <path id="Path_2733" data-name="Path 2733" d="M222.8,14.639c-.172-.113-.34.054-.517,0-.24.087-.24.338-.3.536a.187.187,0,0,0,.27-.057c.157.085.253-.068.355-.157a.353.353,0,0,0,.231-.179.249.249,0,0,0-.092-.076" transform="translate(-135.527 1.871)" fill="#c11619"/>
            <path id="Path_2734" data-name="Path 2734" d="M221.423,12.654c-.172-.107-.344.054-.517,0-.238.089-.238.342-.3.536a.181.181,0,0,0,.268-.057c.153.087.253-.067.36-.157a.34.34,0,0,0,.224-.179.235.235,0,0,0-.087-.07" transform="translate(-136.695 0.19)" fill="#c11619"/>
            <path id="Path_2735" data-name="Path 2735" d="M222.348,13.908c-.174-.109-.342.054-.514,0-.246.087-.246.338-.3.536a.184.184,0,0,0,.268-.057c.155.083.253-.068.355-.159a.344.344,0,0,0,.229-.177.208.208,0,0,0-.092-.074" transform="translate(-135.91 1.252)" fill="#c11619"/>
            <path id="Path_2736" data-name="Path 2736" d="M209.464,47.543c-.1-.238-.2-.569.02-.785.1-.009.2-.067.3-.017.212.109-.03.449.249.5.329.137.869.163.854.663-.022.17-.214.242-.357.285A1.24,1.24,0,0,1,209.464,47.543Zm1.785-1.3c.473-.249.2-.807.375-1.212.039-.159.2-.155.32-.2.3-.14.237-.466.214-.747.044-.152.109-.34.288-.394.218-.111.218-.39.407-.48a.609.609,0,0,1,.375-.2c.207-.194.51-.377.468-.7-.011-.421-.4-.606-.475-.979l-.013-.018-.015-.015a.559.559,0,0,1-.019-.575,1.086,1.086,0,0,0,.164-.551.46.46,0,0,0-.412-.164c-.216.105-.174.338-.179.534l-.266.36a.98.98,0,0,0,.161.7.262.262,0,0,1-.105.3c-.05-.006-.111.013-.144-.022-.174-.118.028-.262-.039-.423a.276.276,0,0,0-.338-.107c-.1.152-.288.126-.392.231-.3.39.115.752.231,1.1a.849.849,0,0,1-.466.5c-.455.262-.188.911-.693,1.122a.7.7,0,0,0-.66.113.531.531,0,0,0-.142.475.815.815,0,0,0,.321.414c-.1.128-.316.091-.4.283a1,1,0,0,0,.129.979C210.418,47.262,210.791,46.326,211.249,46.241Zm-.7-.643a.451.451,0,0,0-.286-.3c.085.113.447-.168.536.111a.408.408,0,0,1-.159.355C210.56,45.729,210.708,45.49,210.553,45.6Zm33.83-3.849c.251.1.467-.087.658-.233a.557.557,0,0,0,.608-.2c.218-.283-.224-.266-.3-.462a1.177,1.177,0,0,0,.355-.251.629.629,0,0,0,.054-.3l-.181-.212c-.423-.079-.429.14-.846.146-.37-.006-.447-.442-.551-.715-.174-.65.207-1.43-.128-1.994a2.135,2.135,0,0,0-.621-.249c-.5-.237.057-.747-.2-1.072a.386.386,0,0,0-.3.035c-.177-.087-.024-.314-.144-.431a.3.3,0,0,0-.286-.155c-.122-.054-.133-.179-.2-.268a.845.845,0,0,0-.338-.913c-.166-.237.15-.366.142-.586-.018-.1-.018-.233-.124-.286-.3,0-.251,0-.3.122-.1.164-.026.338-.163.482-.035.02-.083.061-.122.02-.146-.054-.128-.338-.128-.338a.612.612,0,0,0,.055-.608.52.52,0,0,0-.484-.035.464.464,0,0,1-.161-.336c.2-.144.079-.414.035-.589-.1-.115-.2-.484-.364-.493-.322-.115-.3.063-.41-.2.035-.235-.3-.2-.3-.4-.161-.155-.083-.357-.079-.552-.081-.067-.052-.176-.1-.249.035-.177.262-.177.373-.22a1.281,1.281,0,0,0-.144.434c.033.176-.006.41.2.48.351.227.333-.333.6-.266a1.044,1.044,0,0,0-.124.353c.03.1.1.2.233.157.079-.052.227-.1.214-.225.113-.188-.157-.285.091-.41.091-.124.17-.2.248-.323a.312.312,0,0,0-.072-.322c-.292-.046-.445-.322-.713-.427-.166.03-.187.222-.248.338-.074.024-.157.105-.229.072.107-.222-.216-.407,0-.608.048-.188-.074-.3-.161-.423-.177-.076-.375.05-.523.155-.181.185-.018.469-.055.68-.05.281-.368.1-.456.334.043.216-.172.318-.146.523-.059.063.048.213-.089.233a.834.834,0,0,0,.323.671c-.089.4.231.314-.216.447-.177,0-.41.089-.534-.142a3.286,3.286,0,0,0-.246-1.02l-.636-.068a5.233,5.233,0,0,0-1.759-1.342c-.279-.157-.248-.484-.37-.728-.066-.34-.325-.231-.717-.407a.339.339,0,0,0-.283.091c-.177.126-.264.488-.521.392-.449-.469.334-.639.5-.981.022-.148.066-.351-.107-.445-.261-.174-.447.144-.73.087a.541.541,0,0,1-.163-.233.286.286,0,0,1,.109-.353c.052-.225.231-.549-.022-.735.017-.122-.192-.1-.157-.244-.307-.532.54-.56.556-1a.367.367,0,0,0-.2-.32c-.113-.068-.2.046-.322.035-.166.336-.414-.048-.66.089-.4.055-.506.63-.948.549-.124-.022-.157-.218-.279-.211-.316-.325-.645.172-1,.018a1.019,1.019,0,0,0-.357-.48c-.164.07-.407.12-.447.334-.078.2-.262.146-.427.146a.594.594,0,0,0-.4.358c-.187.174.019.451-.174.625-.033-.007-.076.007-.089-.02-.436-.325.142-.73.013-1.109a.253.253,0,0,0-.264-.14.357.357,0,0,0-.231.213c-.028.091-.105.224,0,.307,0,.083.091.2-.017.268.035.07-.054.135-.107.194-.067.02-.111-.026-.159-.057-.14-.091-.076-.268-.091-.4a1.208,1.208,0,0,0,0-1.232v-.447c-.011-.4.407-.375.553-.711.035-.153.1-.347-.07-.462-.144-.179-.442-.137-.645-.087-.227,0-.543.3-.807.033-.407-.375.009-.966-.351-1.336-.05-.15-.144-.322.02-.451a2.007,2.007,0,0,0,.835-.695c.039-.227.379-.294.355-.551a1.926,1.926,0,0,0-.209-.713.477.477,0,0,1,.12-.5c.12.022.262-.063.36.07.2.124.246-.133.375-.179,0-.233.179-.4.3-.584.249-.059.3.259.484.357-.017.179.116.3.068.5-.017.015-.026.046-.052.041a.453.453,0,0,1,.018.212.633.633,0,0,0,.556.336.394.394,0,0,0,.336-.157c.05-.342.4-.577.318-.948a1,1,0,0,1-.109-1.013c-.074-.128-.089-.3-.227-.377a.62.62,0,0,0-.484-.035c-.41-.035-.673.36-.876.656-.116.081-.161-.113-.264-.142a.6.6,0,0,0-.477.164l-.128-.126a.538.538,0,0,1,.05-.466c.24.067-.067.153-.015.268.028.091.126.107.194.126a.511.511,0,0,0,.107-.248c-.009-.1.015-.261-.122-.323.022-.2.1-.458,0-.625-.564-.224.163-.613-.087-1-.1-.148-.3-.2-.434-.336-.009-.142.159-.205.177-.338.094-.179-.187-.388.042-.516l.013.017c.164-.072.176.19.357.124.035-.018.1-.03.091-.087.166-.07.179-.261.212-.414.061-.137.216-.152.32-.279a.552.552,0,0,0,.325-.146.561.561,0,0,0,.055-.288c-.072-.1-.168-.2-.3-.157-.179-.028-.113.205-.266.213-.1-.059-.076-.159-.179-.177a.511.511,0,0,1-.268-.467c-.07-.157.035-.29.124-.4a.508.508,0,0,0,.054-.488c.046-.042-.039-.072-.039-.124a.918.918,0,0,1-.213-.957.271.271,0,0,0-.211-.179c-.214.1-.231.325-.34.5-.057.384-.5.113-.623.407-.076.153.044.273.1.394.285.4-.251.438-.39.695a1.354,1.354,0,0,0-.122,1.035c-.057.091-.113.209-.255.157-.277-.34.059-.695.129-1.035.166-.212.03-.479.087-.713-.05-.331.451-.479.36-.852-.322-.333.211-.54.159-.876a.29.29,0,0,0-.2-.179,5.332,5.332,0,0,0-.887,2.016,1.579,1.579,0,0,0-.362,1.408,1.089,1.089,0,0,0-.213,1.123c-.041.218-.261.3-.39.447-.394.342-.157.941-.591,1.269-.227.227-.588-.037-.815.176-.179.312-.442.621-.357,1.014a4.829,4.829,0,0,0-.467.785,2.786,2.786,0,0,0-.553.4c-.065.368-.488.314-.674.536-.15.224.1.416.213.584-.037.087-.129.124-.2.176-.46.035-.941-.231-1.319.092-.229.255-.292.7-.66.767-.019-.018-.055-.039-.055-.07a.072.072,0,0,0-.111.017c-.048-.035-.061-.085-.1-.126-.022.006-.057-.013-.076.022l-.031-.035a1.127,1.127,0,0,0,.177-.222.329.329,0,0,0-.02-.266c-.067-.172-.266-.1-.4-.157-.323.022-.318.442-.591.5-.187-.2-.342-.44-.643-.392-.187.074-.416.172-.48.392a1.016,1.016,0,0,1-.394.732,1.579,1.579,0,0,0-.517.264c-.059.085-.144.006-.194-.05,0-.174.229-.2.3-.344.087-.089,0-.2-.072-.266-.242-.15-.451.111-.658.214-.1.116-.2-.007-.285-.07-.259-.342-.63.039-.946.054a2.133,2.133,0,0,0-.748-.658.747.747,0,0,0-.554.091c-.41.205-.207-.334-.46-.414-.131,0-.277-.078-.375,0a.417.417,0,0,0-.128.268,1.278,1.278,0,0,1,.105.75,1.717,1.717,0,0,0,.754.623c.541-.12.776.37,1.083.693.443-.05.734.394,1.194.179a2.036,2.036,0,0,1,1.2-.052c.174.072.249.275.34.427a.786.786,0,0,0,.355.111c.192-.05.416-.1.5-.27a.58.58,0,0,1,.3-.484.245.245,0,0,1,.089.144c-.126.209-.377.386-.3.658.046.055.035.177.14.164a1.145,1.145,0,0,1,.392.658c.079.2.288.233.445.323a1.237,1.237,0,0,0,1.194-.124c.139-.039.3-.091.416.033.1.331.436.545.71.748.109.168.065.4.175.571.553.456-.137,1.17.517,1.569.264.349-.1.955.394,1.14.148.006.292-.161.408-.05.043.386-.473.443-.745.582a1.248,1.248,0,0,0-.591,1.249c.083.349.491.292.748.4.179.1.334.3.577.192a.874.874,0,0,0,.314-.591.34.34,0,0,1,.309-.176c.431.266-.15.586.013.911a.4.4,0,0,0,.431.2c.649.408-.079,1.005-.142,1.5-.024.128-.048.307.089.39.349.1.508-.248.715-.447.255-.1.414.194.68.092.266-.14.257-.458.353-.695.092-.333.477-.218.673-.41.281-.31.565-.7,1.024-.693.242.137.5.364.817.3.412-.018.649-.527,1.123-.34.25-.055.4-.373.589-.516.344.115.553-.314.75-.5.067-.042.172.017.229-.052.159-.1.229.109.34.163.133.157.346.044.523.052a.442.442,0,0,1,.209-.194c.092.048.2.039.27.142.17.464.682.3,1.1.336.246.153.187.431.325.625.017,0,.043,0,.054-.013l.122.1c.432-.065.325.451.643.589.3.083.442-.227.748-.146.366.268-.292.29-.218.591.052.1.041.227.144.3.257.129.381-.473.61-.142.052.29.37.453.584.588.577.168.268.778.377,1.183.159.357.458-.011.734.1.453.172.094.7.3,1.02s.639.148.961.214c.076.024.085.113.105.181a.575.575,0,0,0,.41.229c.408,0,.281-.453.54-.643.035.07.113.055.153.109.026.14-.152.19-.209.32-.03.152-.174.344-.024.484.238.133.34-.168.538-.164.235.2-.009.56.144.8.091.285.4.212.569.379.394.153.194.612.443.857.118.129.322.055.451.015.076.048,0,.118,0,.177a.587.587,0,0,0,.161.569.247.247,0,0,0,.3-.031c.135-.166-.124-.384.089-.5.055.018.139.035.142.089.083.055-.009.146.015.2-.144.551.621.534.593,1.051.172.238-.164.4-.124.645.192.286.53.508.745.783a.354.354,0,0,1,.146.288c.092.31.455.205.636.407a.381.381,0,0,1,.078.285.7.7,0,0,1-.253.22.393.393,0,0,0-.052.188c.037.325.408.142.606.218a.193.193,0,0,1,.146.176C244.2,41.628,244.257,41.739,244.383,41.748Zm-30.831-.484a.859.859,0,0,0,.212-.212.325.325,0,0,0-.054-.375c-.131-.116-.246.044-.323.14s-.159.227-.068.342A.21.21,0,0,0,213.552,41.264Zm29.8-.34a.408.408,0,0,0,.054-.338c-.03-.052-.1-.124-.177-.074a.322.322,0,0,0-.194.4A.284.284,0,0,0,243.348,40.924Zm1.9-1.155a.568.568,0,0,0,.089-.334c-.118-.188.057-.388.05-.589a.688.688,0,0,0-.264-.569c-.225-.037-.351.264-.482.425-.333.386.122.763.177,1.136C244.939,39.978,245.148,39.9,245.248,39.769ZM215.8,39.659a.712.712,0,0,0,.429-.089c.31-.273.791-.139,1.072-.482a.365.365,0,0,0,.089-.37c-.052-.183-.242-.248-.377-.344-.1-.074-.309-.048-.3-.229a1.336,1.336,0,0,1-.233-.966c.089-.052-.015-.113,0-.177a.366.366,0,0,0-.3-.213c-.109.039-.153.135-.27.177-.17.14-.31-.018-.5-.018a.406.406,0,0,0-.392-.126c-.02.063-.078.026-.124.037-.431.074-.347.586-.482.891a1.078,1.078,0,0,0-.662.839,1,1,0,0,0,.342.693.793.793,0,0,0,.769.094C215.2,38.908,215.529,39.531,215.8,39.659Zm-2.119-.447c.181-.159-.028-.366-.057-.551-.081-.1-.153.041-.248.018a.543.543,0,0,0-.031.355C213.428,39.152,213.567,39.158,213.676,39.211Zm4.9-1.476a.689.689,0,0,0,.48-.074c.168-.129.466.052.591-.176a.265.265,0,0,0,.107-.268c-.133-.24.048-.619-.164-.82-.144-.124-.323,0-.462.033-.083,0-.207.1-.249-.017-.338-.059-.188-.516-.551-.569a.544.544,0,0,1-.233-.516,1.119,1.119,0,0,0,.144-.822c.061-.225.4-.421.179-.678a.389.389,0,0,0-.309-.017c-.15.048-.244.4-.427.214-.065-.17.105-.29.2-.41a1.41,1.41,0,0,0,.726-.983c0-.059-.078-.131,0-.177.177.074.285-.105.432-.146.259-.1.419.205.7.078.36-.17.3-.571.534-.822a.707.707,0,0,1,.334.055.609.609,0,0,0,.577-.257.914.914,0,0,0-.111-.747c-.122-.192.018-.355-.02-.551-.105-.207-.087-.608-.445-.571-.218-.076-.325.111-.48.251a.776.776,0,0,0,0,.32.715.715,0,0,1-.445.626c-.2.257-.368.534-.551.8-.285.183-.623.383-.676.75a.291.291,0,0,1-.257.03c-.309.2-.442.595-.761.824a.806.806,0,0,0-.089.608c-.035.24-.3.283-.445.421a.627.627,0,0,0-.126.608c.041.262.371.484.177.752-.211.283-.5,0-.752,0a.457.457,0,0,0-.355.212.505.505,0,0,0,0,.536.5.5,0,0,0,.464.074,1.261,1.261,0,0,1,1.125-.057c.238.116.249.392.408.569a1.114,1.114,0,0,1,.61.754Zm-.643-.431a.272.272,0,0,0-.052-.266c-.074-.013-.144-.129-.218-.037a.564.564,0,0,0,.039.248C217.787,37.26,217.852,37.413,217.937,37.3Zm-.5-.248c.229-.144.166-.346.128-.567-.122-.242-.373-.135-.571-.164-.1.068-.207.142-.216.266a.3.3,0,0,0,.264.2C217.222,36.815,217.26,37.077,217.438,37.057Zm25.26-1.475c.109-.028.083-.14.092-.231-.024-.155-.14-.3-.323-.211-.065.042-.019.127-.035.192A.3.3,0,0,0,242.7,35.582Zm-3.078-1.541c-.07-.188-.358-.316-.231-.571a2.532,2.532,0,0,1,.213-.46c.085-.018.1.065.163.068a1.725,1.725,0,0,0,.129,1.037c.037.129-.07.237-.039.323l-.055.035c.024.007.024.033.024.052-.137-.037,0,.083-.111.089C239.468,34.507,239.65,34.215,239.619,34.041Zm1.643-1.421a.321.321,0,0,0,.163-.3.2.2,0,0,0-.272-.127c-.044.083-.126.15-.118.253C241.066,32.522,241.151,32.639,241.262,32.62Zm-20.954-.273a.5.5,0,0,0,.268-.46c-.078-.129-.189-.065-.3-.055-.131.105-.05.322-.072.479C220.224,32.356,220.269,32.347,220.307,32.347Zm4.658-.5c.172.061.307-.094.423-.22a.642.642,0,0,1,.394.076c.152.022.233-.124.342-.213.063-.227.3-.386.283-.641-.2-.432-.419.146-.695-.024-.179.044-.309-.142-.5-.124a.286.286,0,0,0-.142.3c.166.233-.194.388-.174.623C224.973,31.7,224.936,31.767,224.966,31.852ZM238.08,30.17c.17.059.179-.179.266-.268a.408.408,0,0,0-.07-.357c-.157-.089-.275.063-.375.137-.111.037-.142-.118-.233-.122-.222.233-.242-.242-.48-.157-.087.14-.31.063-.336.244.153.1.249.285.394.39.3.177.2-.286.368-.3.048.065.146.1.109.2A.38.38,0,0,0,238.08,30.17Zm-1.284-.824c.314.146.4-.157.606-.3.052-.181-.072-.334-.107-.5-.237-.179.007-.379-.074-.6-.02-.142-.181-.188-.281-.255-.041-.035-.015-.1.015-.142a.354.354,0,0,0-.1-.353.572.572,0,0,0-.377-.105c-.161-.037-.109-.259-.288-.288-.331-.144-.438.257-.711.322s-.456-.277-.748-.109a.133.133,0,0,0-.054.129c-.046.063.011.177.018.268.394.224.2.567.2.924.05.111.094.22.227.249.216.031.322-.2.484-.3.059,0,.1.07.139.111,0,.277-.388.469-.192.759a.369.369,0,0,0,.318.055C236.178,28.93,236.494,29.276,236.8,29.346ZM222.93,27.395c-.1-.253.19-.5.089-.713.31.238.6-.261.857.089a.428.428,0,0,1,.07.355c-.122.31-.469.375-.75.462C223.068,27.574,222.92,27.557,222.93,27.395Zm8.378-1.29c.026-.124-.057-.358.144-.338l.057-.067c.188.033.492-.179.567.124.066.137-.031.253-.07.37-.161.238-.366.076-.567.057A.563.563,0,0,0,231.308,26.1Zm.179-1.157a.417.417,0,0,0,.177-.358c0-.15-.172-.2-.281-.248-.124.052.009.12.013.176.068.157-.1.214-.12.34C231.284,24.97,231.407,24.941,231.487,24.948Zm-3.635-.3c.094-.105.262-.1.3-.248.006-.338-.336-.432-.482-.7a.138.138,0,0,0-.087.163c-.122.155.006.368-.035.536C227.654,24.455,227.7,24.645,227.852,24.645Zm4.335-.128c.238-.079.329-.3.458-.5.031-.1.116-.257-.035-.334-.054-.194.2-.325.323-.431-.03-.1.059-.205.022-.3a.3.3,0,0,0-.357-.214c-.14.139-.286.318-.2.5-.107.2-.353.31-.408.538.094.225-.007.414,0,.658C232.089,24.407,232.095,24.54,232.187,24.518Zm.87-.856a.18.18,0,0,0-.089-.281c-.127,0-.127.124-.216.19C232.8,23.668,232.959,23.788,233.057,23.662Zm-14.234-.994.044-.309c.181-.078.17-.292.357-.371.148-.205.168-.626.534-.588.139,0,.185.127.3.194.209.127.549.155.591.464-.011.314-.358.344-.573.431-.314.061-.706.061-.946.357C219.031,22.788,218.875,22.806,218.824,22.668Zm-.333-1.643c-.006-.273-.033-.571.233-.717.273.2.013.516.013.769A.141.141,0,0,1,218.491,21.025Zm4.851-.283a.351.351,0,0,1,.2-.394c.238-.128.527-.166.693-.431,0-.133.109-.266.02-.39-.055-.07-.126-.177-.233-.161-.111-.085-.235,0-.357,0-.059.02-.109.118-.179.07-.118-.12-.072-.358-.035-.5s.24-.181.249-.322a.7.7,0,0,0,.429-.34c.2-.508-.4-.953-.041-1.456.089.007.124-.081.183-.128.721-.059.591.791.785,1.194v.037c.209.181.381.44.66.466a1.043,1.043,0,0,1,.336.852.859.859,0,0,1-.445.7c-.148.041-.264.146-.449.126-.177-.246-.349-.144-.6-.131-.414.22-.595.63-1,.9C223.462,20.868,223.345,20.875,223.342,20.742Zm-12.076-.379c.139.039.216-.113.288-.192-.057-.153.048-.421-.127-.5-.209-.085-.359.063-.519.157-.046.054.018.109.022.163C211.048,20.1,211.163,20.255,211.266,20.364Zm13.016-.891c-.105-.414.233-.728.416-1.072.109-.046.2-.2.335-.142a.508.508,0,0,1,.092.4c-.009.179-.24.135-.233.318.013.15.057.353-.052.466-.076.057-.116.148-.22.155C224.509,19.558,224.339,19.613,224.282,19.473Zm13.363-.665c.115-.176.377-.3.3-.545.068-.035.116-.17.211-.1.092-.127.27-.078.322-.224a1.034,1.034,0,0,0-.015-.29c-.041-.19-.261-.105-.41-.131-.091-.085-.187.118-.251-.044a.3.3,0,0,1,.037-.259c-.052-.126.111-.218.181-.32.133.1-.109.172,0,.29a.247.247,0,0,0,.249-.05c.03-.054.076-.12.052-.179-.091-.061-.157-.181-.286-.14.022-.115.155-.2.251-.273.562.192.323-.438.715-.578.309-.312.9.1,1.155-.292.054-.172-.146-.3-.172-.46.222-.166.6-.046.724-.355-.03-.3.286-.556.519-.739.189-.105.225.133.371.161.026.039.043.116-.009.148-.192.017-.177-.188-.379-.163-.037.148-.218.188-.338.255a.744.744,0,0,0,.068.27.327.327,0,0,0,.249-.122c.083.026.185-.063.266.013.285.059.307-.334.534-.382.163.078.29-.118.466-.1.174.052.255.235.394.323a.441.441,0,0,0,.322-.048c.185-.054.092.164.159.242.129.074.238.042.375.094a.606.606,0,0,0,.321-.14c.078-.148.153-.292.072-.436.035-.1-.011-.259.105-.3l-.015-.017c.126-.251.519-.264.565-.564.063-.018.116-.107.179-.061.046.079-.068.107-.1.163a.323.323,0,0,0,.015.268c.068.109.187.1.3.1a2.524,2.524,0,0,0,.73-.309c.124-.166.063-.364.054-.56a.136.136,0,0,1,.179-.094c.115.026.148.139.233.211.261-.14.286.272.551.126.155-.085.425-.133.4-.355a.39.39,0,0,0-.2-.14c-.161.028-.225.216-.377.22-.018-.041.035-.052.018-.094.1-.207.383-.2.586-.194l.1.033a.578.578,0,0,0,.421-.255c.192-.044,0-.292.087-.434a.721.721,0,0,0,.238-.722c-.159-.218-.17-.552-.536-.578-.07.03-.118.115-.211.1-.116,0-.131.1-.168.174a.178.178,0,0,1-.19.079c-.1-.172.074-.336.177-.48,0-.148.026-.349-.166-.445a.74.74,0,0,0-.442-.018c-.2.094-.462.044-.678.128a3.015,3.015,0,0,1-1.672.593.326.326,0,0,0-.27.3c-.166.442-.654.1-.961.338a2.464,2.464,0,0,0-.662.641c-.05.181-.273.194-.4.338-.1-.133-.281-.089-.443-.1a1.4,1.4,0,0,0-.392.373c-.2.041-.229.3-.425.288-.207.286-.362-.129-.575-.081a3.365,3.365,0,0,0-.713.351.523.523,0,0,1-.192-.063c-.46.017-.876.3-1.319.146-.349.006-.7-.192-1.022-.05a1.386,1.386,0,0,0-.747.209c-.159.028-.322.146-.48.079a5.687,5.687,0,0,1-1.537.081,1.045,1.045,0,0,0-.994.161c-.12.081-.342-.1-.431.094-.091.081-.026.3-.213.275a.2.2,0,0,1-.072-.148c.042-.128.155-.288.035-.414-.094-.249-.39-.1-.554-.1-.174-.1,0-.273-.1-.4-.054-.139-.209-.166-.344-.19a.323.323,0,0,0-.194.368.823.823,0,0,0,.516.334c.152.113.081.329.076.482.129.1-.041.257.135.338.018.139.152.148.2.272l.107.018a.07.07,0,0,1,.033.081.355.355,0,0,0,.268.079c.15-.061.3-.12.36-.275.054-.006.057-.055.054-.094.054-.192.3-.176.48-.211a.535.535,0,0,1,.177.224.321.321,0,0,1-.2.177c-.589.094-.891.589-1.282.983-.3.039-.157-.27-.323-.371a.352.352,0,0,0-.3.111c-.074-.044-.2.031-.249-.079a2.445,2.445,0,0,1,.07-.625c-.024-.142.007-.36-.177-.449a.38.38,0,0,0-.336.207c-.105.246-.486.2-.534.447-.128.094-.177.275-.358.275-.133-.113-.386-.089-.432-.288-.257.041-.144-.255-.355-.29a.335.335,0,0,0-.335.065c-.113.139-.03.27,0,.418-.107.094-.268.054-.36.177-.118.157-.261.268-.377.4.026.159-.152.24-.14.4a.3.3,0,0,0,.268.163,2.131,2.131,0,0,1,.931-.453,2.425,2.425,0,0,1,.6.3c.379.157.458.545.711.8.065.133.294.177.27.323.164.183-.338.229-.212.477.094.168.26.024.41.067a.713.713,0,0,1,.549.017c.137-.018.209.1.344.079s.218-.163.281-.253a.452.452,0,0,0-.017-.547,2.161,2.161,0,0,1,.394-.756.872.872,0,0,1,.087-.351,1.239,1.239,0,0,1,1.125-.532c.076.1.155.205.231.3.068.126.249.105.375.081.183-.181.4-.344.41-.606a.555.555,0,0,1,.567-.242c.5.094.105.527.2.767.12.172.248.4.493.421a.678.678,0,0,0,.288-.1.369.369,0,0,0,.022-.434c.057-.091.187-.017.268-.061.037.044.076.107.035.161-.083.174.194.237.281.351.111.273-.338.255-.355.5-.072.2.089.318.251.434-.028.037-.015.092-.022.14a.242.242,0,0,1-.229.083c-.207.133.115.279-.089.416a.3.3,0,0,0,.089.338c.163.092.176-.085.286-.129.013-.237.292-.209.464-.275a.658.658,0,0,1,.142.229c.266.02.044.2.105.334-.061.074-.148.1-.211.177-.02.109-.074.249,0,.351A.577.577,0,0,0,237.646,18.808Zm-4.588-2.167a.656.656,0,0,0-.054-.449c-.087-.017-.129-.2-.227-.107-.115.168-.421.333-.251.588C232.61,16.965,232.939,16.858,233.057,16.64Zm4.111-1.475c-.118-.011-.192-.115-.3-.126-.085-.24.094-.567-.089-.785.076-.224-.359-.05-.218-.32.061-.322.371.327.606-.177l.429-.253c.133.041.384.109.408.323-.105.251-.486.386-.394.68.031.089.128.1.2.122.218.024.15-.227.307-.3a.511.511,0,0,1,.248-.163c.113.044.015.137,0,.2-.449.183-.229.689-.517.946C237.62,15.26,237.307,15.428,237.169,15.166ZM244.1,11.8c.013-.133.183-.124.283-.157.214-.126.309-.458.588-.253a.036.036,0,0,0,.035-.05v-.054c.347-.052.565-.392.8-.625.19-.188.3-.48.61-.447a.622.622,0,0,1,.19.6c-.107.172-.218.423-.443.469-.07.157-.259.039-.327.211a2.719,2.719,0,0,1-.6.157,1.9,1.9,0,0,0-.944.235C244.228,11.873,244.052,11.958,244.1,11.8ZM227.586,9.685c.166-.041.124-.253.107-.377l-.179-.015a.366.366,0,0,0-.128.316C227.416,9.689,227.512,9.689,227.586,9.685Zm20.167-.142c.157.085.253-.07.358-.161a.356.356,0,0,0,.229-.176.2.2,0,0,0-.092-.078c.022-.015.033-.044.057-.033V9.061c-.176-.111-.342.054-.516,0-.242.089-.242.344-.3.534A.18.18,0,0,0,247.753,9.543Zm-20.736-.377a3.694,3.694,0,0,0,.157-.944c.076-.161.29-.259.323-.431.176-.342-.264-.421-.272-.71a1.673,1.673,0,0,1,.181-.27l-.02-.018c.02-.009.03-.041.052-.033l-.011-.074c.139-.185.31-.466.213-.691-.262-.044-.445.266-.569.46a.927.927,0,0,1-.447.626.331.331,0,0,0-.039.34.9.9,0,0,0,0,.835c.227.261-.153.5,0,.8C226.62,9.249,226.91,9.358,227.017,9.166Z" transform="translate(-146.232 -5.427)" fill="#b50014"/>
        </g>
        <g id="Group_10949" data-name="Group 10949" transform="translate(0 0)">
            <g id="Group_10947" data-name="Group 10947">
                <path id="Path_2737" data-name="Path 2737" d="M.15,13.253c-.63-3.221.684-5.776,4.9-8.4A42.72,42.72,0,0,1,16.992.107a7.442,7.442,0,0,1,6.8,2.378,14.749,14.749,0,0,1,3.4,5.59,8.514,8.514,0,0,1-1.58,8.764c-2.143,2.637-8.034,6.977-12.159,8.831S6.044,25.5,3.862,21.982A25.726,25.726,0,0,1,.15,13.253Z" transform="translate(0 0)" fill="url(#radial-gradient)"/>
                <path id="Path_2738" data-name="Path 2738" d="M6.059,15.586A1.8,1.8,0,0,1,8.31,14.9a8.137,8.137,0,0,1,2.626,1.332,1.886,1.886,0,0,1,.567,1.735,4.736,4.736,0,0,1-.519,1.713,2.144,2.144,0,0,1-1.829,1.384,9.938,9.938,0,0,1-3.4-.591c-.944-.419-1.061-1.427-.741-2.511A8.379,8.379,0,0,1,6.059,15.586Z" transform="translate(4.114 12.529)" fill="#a90020"/>
            </g>
            <g id="Group_10948" data-name="Group 10948" transform="translate(29.574 19.693)">
                <path id="Path_2739" data-name="Path 2739" d="M22.131,23.6c-3.812,0-5.167-3.173-5.167-5.889s1.354-5.893,5.167-5.893S27.3,15,27.3,17.715,25.944,23.6,22.131,23.6Zm0-12.4c-4.209,0-6.126,3.372-6.126,6.508s1.916,6.5,6.126,6.5,6.126-3.372,6.126-6.5S26.34,11.207,22.131,11.207Z" transform="translate(-16.005 -10.191)" fill="#005daa"/>
                <path id="Path_2740" data-name="Path 2740" d="M27.43,14.522H26.063V12c0-.573-.29-.573-.414-.573s-.416,0-.416.573v2.519H23.866c-.2,0-.307.085-.307.251s.1.251.307.251h1.367v8.452c0,.552.292.552.416.552s.414,0,.414-.552V15.025H27.43c.205,0,.309-.085.309-.251S27.635,14.522,27.43,14.522Z" transform="translate(-9.601 -10.001)" fill="#005daa"/>
                <path id="Path_2741" data-name="Path 2741" d="M31.707,18.413c-.53-.194-2.068-.748-2.661-.963-1.26-.455-1.776-1.136-1.776-2.084,0-1.434,1.813-2.323,3.491-2.323a6.413,6.413,0,0,1,3.154.767c.462.264.087.793-.334.571a4.752,4.752,0,0,0-2.761-.835c-1.288,0-2.624.593-2.624,1.726,0,.658.519,1.149,1.312,1.423.249.087,2.029.721,2.337.828,1.667.588,2.633,1.244,2.633,2.554,0,1.548-1.548,2.587-3.853,2.587a5.357,5.357,0,0,1-3.764-1.406c-.436-.434.1-.893.471-.532a4.5,4.5,0,0,0,3.357,1.438c1.611,0,2.86-.874,2.86-2.029C33.551,19.041,32.582,18.727,31.707,18.413Z" transform="translate(-6.938 -8.634)" fill="#005daa"/>
                <path id="Path_2742" data-name="Path 2742" d="M40.016,13.043c-.126,0-.414,0-.414.552v5.643a3.153,3.153,0,0,1-.408,1.877,3.262,3.262,0,0,1-2.742,1.046,3.189,3.189,0,0,1-2.7-1.062,3.106,3.106,0,0,1-.447-1.861V13.6c0-.552-.29-.552-.416-.552s-.414,0-.414.552v5.972c0,1.881,1.561,3.1,3.978,3.1s3.98-1.214,3.98-3.1V13.6C40.432,13.043,40.14,13.043,40.016,13.043Z" transform="translate(-2.043 -8.634)" fill="#005daa"/>
                <path id="Path_2743" data-name="Path 2743" d="M45.2,24.5c.434.325.6.116.678.02s.257-.318-.166-.658L40.3,19.525l5.279-3.949c.283-.209.192-.373.144-.436s-.177-.2-.458.015l-5.93,4.361V11.208c0-.551-.292-.551-.416-.551s-.414,0-.414.551V24.133c0,.552.288.552.414.552s.416,0,.416-.552V19.793Z" transform="translate(3.074 -10.657)" fill="#005daa"/>
                <path id="Path_2744" data-name="Path 2744" d="M47.833,22.162c-2.657,0-3.666-2.321-3.666-4.307,0-2.145,1.179-4.309,3.666-4.309,2.641,0,3.577,2.321,3.577,4.309S50.473,22.162,47.833,22.162Zm3.993-9.119c-.124,0-.416.018-.416.552l0,1.962a3.718,3.718,0,0,0-3.62-2.515c-3.1,0-4.514,2.495-4.514,4.812s1.2,4.808,4.559,4.808a3.634,3.634,0,0,0,3.588-2.509V22.11c0,.552.281.552.4.552s.414,0,.414-.552V13.6C52.245,13.069,51.951,13.043,51.826,13.043Z" transform="translate(7.114 -8.634)" fill="#005daa"/>
            </g>
        </g>
        <g id="Group_10950" data-name="Group 10950" transform="translate(29.622 41.21)">
            <path id="Path_2745" data-name="Path 2745" d="M20.336,35.363c-3.1,0-4.305-2.716-4.305-6.124,0-3.374,1.21-6.124,4.305-6.124,3.078,0,4.291,2.75,4.291,6.124C24.627,32.647,23.415,35.363,20.336,35.363Zm0-11.19c-2.179,0-2.7,2.611-2.7,5.013s.449,5,2.7,5,2.679-2.594,2.679-5S22.5,24.173,20.336,24.173Z" transform="translate(-16.031 -21.612)"/>
            <path id="Path_2746" data-name="Path 2746" d="M24.942,35.21a2.176,2.176,0,0,1-2.317-2.35V26.755H21.553V25.8h1.072V23.658l1.523-.466V25.8h1.626v.953H24.147v6.07c0,.743.329,1.351,1.175,1.351a2.007,2.007,0,0,0,.451-.07v.966A2.651,2.651,0,0,1,24.942,35.21Z" transform="translate(-11.349 -21.547)"/>
            <path id="Path_2747" data-name="Path 2747" d="M26.934,34.153a4.113,4.113,0,0,1-2.386-.643l.416-1a2.937,2.937,0,0,0,1.815.554,1.618,1.618,0,0,0,1.731-1.609c0-.968-.521-1.4-1.539-1.781-1.816-.674-2.18-1.645-2.18-2.613A2.6,2.6,0,0,1,27.575,24.5a3.89,3.89,0,0,1,2.179.639l-.4.917A2.645,2.645,0,0,0,27.8,25.54a1.43,1.43,0,0,0-1.558,1.469c0,.9.658,1.332,1.558,1.676,1.815.693,2.265,1.661,2.265,2.733A2.9,2.9,0,0,1,26.934,34.153Z" transform="translate(-8.81 -20.437)"/>
            <path id="Path_2748" data-name="Path 2748" d="M31.942,34.118c-2.336,0-3.3-1.175-3.3-3.043V24.6h1.523v6.523a1.738,1.738,0,0,0,1.868,1.918,3.115,3.115,0,0,0,1.676-.381V24.6h1.524v8.77A6.625,6.625,0,0,1,31.942,34.118Z" transform="translate(-5.343 -20.35)"/>
            <path id="Path_2749" data-name="Path 2749" d="M38.665,35.88,35.1,31.072h-.035V35.88H33.58V22.3h1.487v8.579H35.1l3.321-4.326h1.591l-3.527,4.357,3.908,4.967Z" transform="translate(-1.153 -22.302)"/>
            <path id="Path_2750" data-name="Path 2750" d="M41.281,34.18c-2.421,0-3.544-1.057-3.544-2.75,0-2.474,2.317-3.2,5.205-3.5v-.569c0-1.436-.867-1.852-2.058-1.852a5.213,5.213,0,0,0-2.249.588l-.364-.9a6.192,6.192,0,0,1,2.855-.689c1.73,0,3.252.743,3.252,3.025v5.985A6.547,6.547,0,0,1,41.281,34.18Zm1.661-5.466c-2.352.294-3.753.8-3.753,2.681,0,1.347.83,1.9,2.212,1.9a3.375,3.375,0,0,0,1.541-.312Z" transform="translate(2.372 -20.428)"/>
            <path id="Path_2751" data-name="Path 2751" d="M52.574,35.11l-1.125-3.561h-4.08L46.21,35.11H44.756l4.03-11.9h1.419l4.012,11.9Zm-2.768-9.028a8.211,8.211,0,0,1-.346-1.436h-.035a9.831,9.831,0,0,1-.362,1.436L47.646,30.6H51.19Z" transform="translate(8.323 -21.532)"/>
            <path id="Path_2752" data-name="Path 2752" d="M61.2,34.006V27.295a1.621,1.621,0,0,0-1.8-1.781,2.472,2.472,0,0,0-1.92.832v7.661H55.96v-6.78c0-1.038-.693-1.73-2.042-1.73a3.886,3.886,0,0,0-1.678.31v8.2H50.718v-8.84a6.821,6.821,0,0,1,3.236-.654,3.362,3.362,0,0,1,2.853,1.123,3.828,3.828,0,0,1,2.89-1.123,2.7,2.7,0,0,1,3.025,2.748v6.746Z" transform="translate(13.377 -20.428)"/>
            <path id="Path_2753" data-name="Path 2753" d="M59.781,29.924c.174,2.108,1.159,3.149,2.836,3.149a4.6,4.6,0,0,0,2.3-.538l.4,1a5.652,5.652,0,0,1-2.82.641c-2.439,0-4.15-1.541-4.15-4.86,0-3.165,1.556-4.808,3.753-4.808,2.23,0,3.579,1.452,3.544,4.564ZM62.046,25.5c-1.349,0-2.352,1.088-2.315,3.614l4.461-.674C64.192,26.327,63.379,25.5,62.046,25.5Z" transform="translate(19.845 -20.428)"/>
            <path id="Path_2754" data-name="Path 2754" d="M67.077,25.683a2.735,2.735,0,0,0-2.125.174V34H63.429v-8.82a7.369,7.369,0,0,1,4.012-.658Z" transform="translate(24.154 -20.424)"/>
            <path id="Path_2755" data-name="Path 2755" d="M67.324,24.4a.84.84,0,1,1,.881-.832A.87.87,0,0,1,67.324,24.4Zm-.761,11.12V26.2h1.523v9.324Z" transform="translate(26.693 -21.944)"/>
            <path id="Path_2756" data-name="Path 2756" d="M72.048,34.18c-2.042,0-3.546-1.833-3.546-4.843,0-3.062,1.5-4.825,3.581-4.825a3.024,3.024,0,0,1,2.057.621l-.362.883a2.165,2.165,0,0,0-1.384-.449c-1.7,0-2.352,1.537-2.352,3.718,0,2.228.8,3.771,2.3,3.771a2.344,2.344,0,0,0,1.419-.451l.381.95A3.116,3.116,0,0,1,72.048,34.18Z" transform="translate(28.455 -20.428)"/>
            <path id="Path_2757" data-name="Path 2757" d="M75.837,34.18c-2.421,0-3.544-1.057-3.544-2.75,0-2.474,2.317-3.2,5.205-3.5v-.569c0-1.436-.865-1.852-2.058-1.852a5.221,5.221,0,0,0-2.249.588l-.362-.9a6.183,6.183,0,0,1,2.853-.689c1.73,0,3.252.743,3.252,3.025v5.985A6.547,6.547,0,0,1,75.837,34.18ZM77.5,28.714c-2.352.294-3.753.8-3.753,2.681,0,1.347.83,1.9,2.214,1.9a3.372,3.372,0,0,0,1.539-.312Z" transform="translate(31.669 -20.428)"/>
            <path id="Path_2758" data-name="Path 2758" d="M81.949,30.295l-.538-.052V35.19H79.855V23.774a6.171,6.171,0,0,1,2.977-.658c2.8,0,4.063,1.506,4.063,3.6S85.459,30.64,81.949,30.295Zm.813-6.225a3.573,3.573,0,0,0-1.351.224v4.982l.521.052c2.508.242,3.424-.9,3.424-2.629S84.578,24.069,82.762,24.069Z" transform="translate(38.08 -21.612)"/>
            <path id="Path_2759" data-name="Path 2759" d="M89.953,35.88V29.272a1.657,1.657,0,0,0-1.9-1.831,3.283,3.283,0,0,0-1.816.466V35.88H84.714V22.3h1.521V27.04a4.585,4.585,0,0,1,2.145-.569c2.369,0,3.1,1.436,3.1,2.751V35.88Z" transform="translate(42.2 -22.302)"/>
            <path id="Path_2760" data-name="Path 2760" d="M92.994,34.18c-2.421,0-3.544-1.057-3.544-2.75,0-2.474,2.317-3.2,5.205-3.5v-.569c0-1.436-.867-1.852-2.058-1.852a5.213,5.213,0,0,0-2.249.588l-.364-.9a6.2,6.2,0,0,1,2.855-.689c1.73,0,3.252.743,3.252,3.025v5.985A6.547,6.547,0,0,1,92.994,34.18Zm1.661-5.466c-2.352.294-3.753.8-3.753,2.681,0,1.347.83,1.9,2.214,1.9a3.372,3.372,0,0,0,1.539-.312Z" transform="translate(46.215 -20.428)"/>
            <path id="Path_2761" data-name="Path 2761" d="M98.023,25.683a2.74,2.74,0,0,0-2.127.174V34H94.372v-8.82a7.388,7.388,0,0,1,4.013-.658Z" transform="translate(50.388 -20.424)"/>
            <path id="Path_2762" data-name="Path 2762" d="M107.869,34.006V27.295a1.621,1.621,0,0,0-1.8-1.781,2.471,2.471,0,0,0-1.918.832v7.661h-1.521v-6.78c0-1.038-.695-1.73-2.04-1.73a3.878,3.878,0,0,0-1.68.31v8.2H97.386v-8.84a6.81,6.81,0,0,1,3.236-.654,3.362,3.362,0,0,1,2.853,1.123,3.825,3.825,0,0,1,2.886-1.123,2.7,2.7,0,0,1,3.03,2.748v6.746Z" transform="translate(52.944 -20.428)"/>
            <path id="Path_2763" data-name="Path 2763" d="M108.5,34.18c-2.421,0-3.546-1.057-3.546-2.75,0-2.474,2.319-3.2,5.205-3.5v-.569c0-1.436-.863-1.852-2.058-1.852a5.2,5.2,0,0,0-2.245.588l-.364-.9a6.183,6.183,0,0,1,2.853-.689c1.73,0,3.25.743,3.25,3.025v5.985A6.538,6.538,0,0,1,108.5,34.18Zm1.659-5.466c-2.349.294-3.753.8-3.753,2.681,0,1.347.835,1.9,2.216,1.9a3.364,3.364,0,0,0,1.537-.312Z" transform="translate(59.364 -20.428)"/>
            <path id="Path_2764" data-name="Path 2764" d="M113.23,34.18c-2.042,0-3.544-1.833-3.544-4.843,0-3.062,1.5-4.825,3.579-4.825a3.036,3.036,0,0,1,2.06.621l-.364.883a2.167,2.167,0,0,0-1.382-.449c-1.7,0-2.352,1.537-2.352,3.718,0,2.228.795,3.771,2.3,3.771a2.348,2.348,0,0,0,1.419-.451l.381.95A3.127,3.127,0,0,1,113.23,34.18Z" transform="translate(63.372 -20.428)"/>
            <path id="Path_2765" data-name="Path 2765" d="M114.783,29.924c.172,2.108,1.16,3.149,2.836,3.149a4.574,4.574,0,0,0,2.3-.538l.4,1a5.63,5.63,0,0,1-2.816.641c-2.441,0-4.154-1.541-4.154-4.86,0-3.165,1.558-4.808,3.753-4.808,2.232,0,3.581,1.452,3.548,4.564Zm2.265-4.427c-1.345,0-2.354,1.088-2.315,3.614l4.459-.674C119.191,26.327,118.38,25.5,117.048,25.5Z" transform="translate(66.474 -20.428)"/>
            <path id="Path_2766" data-name="Path 2766" d="M121.734,34.118c-2.337,0-3.306-1.175-3.306-3.043V24.6h1.523v6.523a1.737,1.737,0,0,0,1.864,1.918,3.136,3.136,0,0,0,1.682-.381V24.6h1.521v8.77A6.609,6.609,0,0,1,121.734,34.118Z" transform="translate(70.784 -20.35)"/>
            <path id="Path_2767" data-name="Path 2767" d="M126.417,35.21a2.176,2.176,0,0,1-2.319-2.35V26.755h-1.074V25.8H124.1V23.658l1.519-.466V25.8h1.628v.953h-1.628v6.07c0,.743.333,1.351,1.181,1.351a2.042,2.042,0,0,0,.447-.07v.966A2.623,2.623,0,0,1,126.417,35.21Z" transform="translate(74.68 -21.547)"/>
            <path id="Path_2768" data-name="Path 2768" d="M127.211,24.4a.84.84,0,1,1,.88-.832A.87.87,0,0,1,127.211,24.4Zm-.763,11.12V26.2h1.524v9.324Z" transform="translate(77.465 -21.944)"/>
            <path id="Path_2769" data-name="Path 2769" d="M131.933,34.18c-2.042,0-3.546-1.833-3.546-4.843,0-3.062,1.5-4.825,3.579-4.825a3.026,3.026,0,0,1,2.058.621l-.364.883a2.155,2.155,0,0,0-1.382-.449c-1.7,0-2.35,1.537-2.35,3.718,0,2.228.795,3.771,2.3,3.771a2.336,2.336,0,0,0,1.415-.451l.381.95A3.119,3.119,0,0,1,131.933,34.18Z" transform="translate(79.227 -20.428)"/>
            <path id="Path_2770" data-name="Path 2770" d="M135.724,34.18c-2.423,0-3.546-1.057-3.546-2.75,0-2.474,2.319-3.2,5.207-3.5v-.569c0-1.436-.867-1.852-2.06-1.852a5.213,5.213,0,0,0-2.249.588l-.364-.9a6.205,6.205,0,0,1,2.855-.689c1.731,0,3.254.743,3.254,3.025v5.985A6.546,6.546,0,0,1,135.724,34.18Zm1.661-5.466c-2.354.294-3.755.8-3.755,2.681,0,1.347.832,1.9,2.215,1.9a3.372,3.372,0,0,0,1.539-.312Z" transform="translate(82.441 -20.428)"/>
            <path id="Path_2771" data-name="Path 2771" d="M137.158,35.88V22.3h1.523V35.88Z" transform="translate(86.663 -22.302)"/>
            <path id="Path_2772" data-name="Path 2772" d="M139.722,33.392h-.9l1.469-4.276a1.264,1.264,0,0,1,1.022-.431c.449,0,.623.209.656.431Z" transform="translate(88.076 -16.889)"/>
            <path id="Path_2773" data-name="Path 2773" d="M143.184,35.11V23.21h1.593v11.9Z" transform="translate(91.772 -21.532)"/>
            <path id="Path_2774" data-name="Path 2774" d="M150.709,34.006V27.313c0-.865-.362-1.816-1.953-1.816a3.885,3.885,0,0,0-1.763.327v8.182H145.47v-8.84a7.77,7.77,0,0,1,3.406-.654c2.594,0,3.356,1.434,3.356,2.766v6.728Z" transform="translate(93.71 -20.428)"/>
            <path id="Path_2775" data-name="Path 2775" d="M153.805,34.18c-2.038,0-3.544-1.833-3.544-4.843,0-3.062,1.506-4.825,3.581-4.825a3.02,3.02,0,0,1,2.057.621l-.364.883a2.151,2.151,0,0,0-1.382-.449c-1.7,0-2.356,1.537-2.356,3.718,0,2.228.8,3.771,2.3,3.771a2.332,2.332,0,0,0,1.415-.451l.382.95A3.118,3.118,0,0,1,153.805,34.18Z" transform="translate(97.772 -20.428)"/>
            <path id="Path_2776" data-name="Path 2776" d="M156.445,29.6a.975.975,0,0,0-.989-.987.989.989,0,0,0-1,.987,1,1,0,0,0,1,1A.989.989,0,0,0,156.445,29.6Z" transform="translate(101.328 -16.953)"/>
        </g>
    </g>
</svg>
