<svg xmlns="http://www.w3.org/2000/svg" width="1601.091" height="346.5" viewBox="0 0 1601.091 346.5">
  <g id="Component_53_2" data-name="Component 53 – 2" transform="translate(3)">
    <g id="Group_300" data-name="Group 300" transform="translate(1537.977) rotate(90)">
      <path id="Path_557" data-name="Path 557" d="M2.2-75.078,0,731.536a10.916,10.916,0,0,0,1.546,5.71l13.268,21.391a6.368,6.368,0,0,1-.068,6.542L2.2,784.323a11.042,11.042,0,0,0-1.7,6l1.7,765.455" fill="#fff" stroke="#9d9d9d" stroke-linecap="round" stroke-miterlimit="10" stroke-width="2"/>
    </g>
    <g id="Group_10366" data-name="Group 10366" transform="translate(612.686 -501.434)">
      <g id="Group_292" data-name="Group 292" transform="translate(181.168 517.434)">
        <path id="Path_1857" data-name="Path 1857" d="M161.4,88.655,88.231,40.2,32.892,3.558A21.192,21.192,0,0,0,0,21.228V191.421a21.192,21.192,0,0,0,32.892,17.669l103.55-68.567L161.4,123.993A21.192,21.192,0,0,0,161.4,88.655Z" transform="translate(0 8.944) rotate(-3)" fill="#fdcf00" stroke="#fdcf00" stroke-width="20" opacity="0.351"/>
      </g>
      <g id="Group_10335" data-name="Group 10335" transform="translate(-811.344 -197.547)">
        <g id="Group_10334" data-name="Group 10334" transform="translate(1002 747)">
          <path id="Path_2165" data-name="Path 2165" d="M170.949,317.933c12.95,12.95,38.44,8.45,56.937-10.047s23-43.987,10.047-56.937L221.187,234.2c-12.946-12.946-38.44-8.45-56.937,10.047s-22.994,43.991-10.047,56.94Z" transform="translate(-82.513 -168.066)" fill="#fff" stroke="#07412c" stroke-miterlimit="10" stroke-width="6"/>
          <path id="Path_2166" data-name="Path 2166" d="M148.85,295.838c12.95,12.946,38.44,8.45,56.937-10.051s23-43.987,10.047-56.937" transform="translate(-77.161 -162.714)" fill="none" stroke="#07412c" stroke-miterlimit="10" stroke-width="6"/>
          <line id="Line_295" data-name="Line 295" x1="80.383" y2="13.398" transform="translate(64.991 92.931)" fill="none" stroke="#07412c" stroke-miterlimit="10" stroke-width="6"/>
          <path id="Path_2167" data-name="Path 2167" d="M188.992,237.944c-7.413-4.341-17.783-6.127-28.711-4.228-19.461,3.38-33.32,17.167-30.954,30.791l3.062,17.62c2.366,13.624,20.062,21.928,39.523,18.548a47.863,47.863,0,0,0,17.095-6.391" transform="translate(-129.064 -151.93)" fill="none" stroke="#07412c" stroke-miterlimit="10" stroke-width="6"/>
          <path id="Path_2168" data-name="Path 2168" d="M129.137,241.667c2.366,13.624,20.062,21.928,39.527,18.548a48.837,48.837,0,0,0,14.283-4.783" transform="translate(-128.874 -129.091)" fill="none" stroke="#07412c" stroke-miterlimit="10" stroke-width="6"/>
          <line id="Line_296" data-name="Line 296" x1="46.316" y1="22.274" transform="translate(7.774 93.119)" fill="none" stroke="#07412c" stroke-miterlimit="10" stroke-width="6"/>
          <path id="Path_2169" data-name="Path 2169" d="M199.456,241.62c3.123,12.131-8.392,25.584-25.725,30.048s-33.914-1.754-37.037-13.885l-4.044-15.693c-3.123-12.131,8.4-25.584,25.725-30.048s33.914,1.754,37.041,13.885Z" transform="translate(-120.999 -210.597)" fill="#fff" stroke="#07412c" stroke-miterlimit="10" stroke-width="6"/>
          <path id="Path_2170" data-name="Path 2170" d="M195.046,214.828c3.123,12.131-8.4,25.584-25.725,30.048s-33.914-1.75-37.041-13.885" transform="translate(-120.629 -199.498)" fill="none" stroke="#07412c" stroke-miterlimit="10" stroke-width="6"/>
          <line id="Line_297" data-name="Line 297" y1="42.694" x2="35.853" transform="translate(25.108 2.066)" fill="none" stroke="#07412c" stroke-miterlimit="10" stroke-width="6"/>
        </g>
      </g>
    </g>
    <g id="Group_10373" data-name="Group 10373" transform="translate(-302.909 -1054)">
      <g id="Group_10368" data-name="Group 10368" transform="translate(135.595 552.566)">
        <g id="Group_292-2" data-name="Group 292" transform="translate(181.168 517.434)">
          <path id="Path_1857-2" data-name="Path 1857" d="M161.4,88.655,32.892,3.558A21.192,21.192,0,0,0,0,21.228V191.421a21.192,21.192,0,0,0,32.892,17.669l128.511-85.1A21.192,21.192,0,0,0,161.4,88.655Z" transform="translate(0 8.944) rotate(-3)" fill="#42711e" stroke="#42711e" stroke-width="20" opacity="0.229"/>
        </g>
      </g>
      <g id="Group_10372" data-name="Group 10372" transform="translate(223.68 895.314)">
        <path id="Path_2225" data-name="Path 2225" d="M175.349,211H95.506A5.5,5.5,0,0,0,90,216.506V354.166a5.5,5.5,0,0,0,5.506,5.506h96.361a5.5,5.5,0,0,0,5.506-5.506V233.025Z" transform="translate(27.992 0)" fill="none"/>
        <path id="Path_2227" data-name="Path 2227" d="M90,343.153v11.013a5.5,5.5,0,0,0,5.506,5.506h96.361a5.5,5.5,0,0,0,5.506-5.506V233.025L175.349,211H95.506A5.5,5.5,0,0,0,90,216.506v16.519" transform="translate(27.992 0)" fill="#fff" stroke="#07412c" stroke-linecap="round" stroke-linejoin="round" stroke-width="6"/>
        <path id="Path_2226" data-name="Path 2226" d="M122.753,211H120v24.779h24.779v-2.753Z" transform="translate(80.587 0)" fill="#fdcf00" stroke="#07412c" stroke-width="6"/>
        <path id="Path_2228" data-name="Path 2228" d="M136.519,230.519H120V214" transform="translate(80.587 5.26)" fill="none" stroke="#07412c" stroke-linejoin="round" stroke-width="6"/>
        <line id="Line_321" data-name="Line 321" x2="35.265" transform="translate(176.246 260.119)" fill="none" stroke="#07412c" stroke-miterlimit="10" stroke-width="6"/>
        <line id="Line_322" data-name="Line 322" x2="35.265" transform="translate(176.246 271.455)" fill="none" stroke="#07412c" stroke-miterlimit="10" stroke-width="6"/>
        <line id="Line_323" data-name="Line 323" x2="27.708" transform="translate(176.246 282.79)" fill="none" stroke="#07412c" stroke-miterlimit="10" stroke-width="6"/>
        <path id="Path_2229" data-name="Path 2229" d="M149.3,287.051V243H135.532v19.272H121.766v8.26H108v16.519Z" transform="translate(59.549 56.102)" fill="#fdcf00" stroke="#07412c" stroke-width="6"/>
        <path id="Path_2230" data-name="Path 2230" d="M108,269.519V253h13.766v16.519" transform="translate(59.549 73.634)" fill="none" stroke="#07412c" stroke-miterlimit="10" stroke-width="6"/>
        <path id="Path_2231" data-name="Path 2231" d="M113,274.779V250h13.766v24.779" transform="translate(68.315 68.374)" fill="none" stroke="#07412c" stroke-miterlimit="10" stroke-width="6"/>
        <path id="Path_2232" data-name="Path 2232" d="M118,287.051V243h13.766v44.051" transform="translate(77.081 56.102)" fill="none" stroke="#07412c" stroke-miterlimit="10" stroke-width="6"/>
        <circle id="Ellipse_17" data-name="Ellipse 17" cx="39.582" cy="39.582" r="39.582" transform="translate(79.229 256.746)" fill="none" stroke="#07412c" stroke-linecap="round" stroke-linejoin="round" stroke-width="6"/>
        <g id="Group_10371" data-name="Group 10371" transform="translate(109.732 269.898)">
          <path id="Path_2233" data-name="Path 2233" d="M87,260.532h0a5.5,5.5,0,0,0,5.506,5.506h5.506a5.5,5.5,0,0,0,5.506-5.506V256.24a5.507,5.507,0,0,0-3.766-5.223l-8.986-3A5.507,5.507,0,0,1,87,242.8v-4.292A5.5,5.5,0,0,1,92.506,233h5.506a5.5,5.5,0,0,1,5.506,5.506h0" transform="translate(-87 -225.328)" fill="none" stroke="#07412c" stroke-linecap="round" stroke-linejoin="round" stroke-width="6"/>
          <line id="Line_324" data-name="Line 324" y1="7.557" transform="translate(8.579 0)" fill="none" stroke="#07412c" stroke-linecap="round" stroke-linejoin="round" stroke-width="6"/>
          <line id="Line_325" data-name="Line 325" y2="8.816" transform="translate(8.579 40.303)" fill="none" stroke="#07412c" stroke-linecap="round" stroke-linejoin="round" stroke-width="6"/>
        </g>
      </g>
      <path id="Path_2234" data-name="Path 2234" d="M416.409,232.7V221H404.7v11.7H393v11.7h11.7v11.7h11.7v-11.7h11.7V232.7Z" transform="translate(-33.911 897.314)" fill="rgba(66,113,30,0.26)" stroke="#07412c" stroke-miterlimit="10" stroke-width="5"/>
    </g>
    <g id="Group_10754" data-name="Group 10754" transform="translate(-302.909 -954)">
      <text id="Agitation_in_Alzheimer_s_dementia_is_associated_with_increased_healthcare_resource_utilization_and_healthcare_costs.10" data-name="Agitation in Alzheimer’s dementia is associated with increased healthcare resource utilization and healthcare costs.10" transform="translate(530 1020)" fill="#414042" font-size="34" font-family="Whitney-Book, Whitney"><tspan x="0" y="27">Agitation in Alzheimer’s </tspan><tspan x="0" y="65">dementia is associated with </tspan><tspan x="0" y="103">increased healthcare resource </tspan><tspan x="0" y="141">utilization and healthcare costs.</tspan><tspan y="141" font-size="19.832" baseline-shift="11.332199483839085">10</tspan></text>
      <text id="Economic_burden" data-name="Economic burden" transform="translate(530 972)" fill="#42711e" font-size="32" font-family="Whitney-Bold, Whitney" font-weight="700"><tspan x="0" y="31">Economic burden</tspan></text>
    </g>
    <g id="Group_10753" data-name="Group 10753" transform="translate(-302.909 -974)">
      <text id="Medications_prescribed_in_patients_with_AAD_after_failure_of_nonpharmacologic_interventions_include_antipsychotics_benzodiazepines_antidepressants_and_anti-epileptics.11-13" data-name="Medications prescribed in patients with AAD after failure of nonpharmacologic interventions include antipsychotics, benzodiazepines, antidepressants, and anti-epileptics.11-13" transform="translate(1319 1020)" fill="#414042" font-size="34" font-family="Whitney-Book, Whitney"><tspan x="0" y="27">Medications prescribed in patients with </tspan><tspan x="0" y="65">AAD after failure of nonpharmacologic </tspan><tspan x="0" y="103">interventions include antipsychotics, </tspan><tspan x="0" y="141">benzodiazepines, antidepressants, and </tspan><tspan x="0" y="179">anti-epileptics.</tspan><tspan y="179" font-size="19.832" baseline-shift="11.332199483839085">11-13</tspan></text>
      <text id="Treatment_options" data-name="Treatment options" transform="translate(1319 974)" fill="#42711e" font-size="32" font-family="Whitney-Bold, Whitney" font-weight="700"><tspan x="0" y="31">Treatment options</tspan></text>
    </g>
  </g>
</svg>
