<svg xmlns="http://www.w3.org/2000/svg" width="1618.581" height="242.32" viewBox="0 0 1618.581 242.32">
  <g id="Component_51_11" data-name="Component 51 – 11" transform="translate(2.581 10.51)">
    <g id="Group_10737" data-name="Group 10737" transform="translate(-295 -273.001)">
      <g id="Group_10346" data-name="Group 10346" transform="translate(135.595 -244.434)">
        <g id="Group_292" data-name="Group 292" transform="translate(181.168 517.434)">
          <path id="Path_1857" data-name="Path 1857" d="M161.4,88.655,32.892,3.558A21.192,21.192,0,0,0,0,21.228V191.421a21.192,21.192,0,0,0,32.892,17.669l128.511-85.1A21.192,21.192,0,0,0,161.4,88.655Z" transform="translate(0 8.944) rotate(-3)" fill="#42711e" stroke="#42711e" stroke-width="20" opacity="0.229"/>
        </g>
      </g>
      <g id="Group_10365" data-name="Group 10365" transform="translate(6 -102.117)">
        <g id="Group_10363" data-name="Group 10363" transform="translate(309.956 420.5)">
          <path id="Path_2189" data-name="Path 2189" d="M346.65,420.5a18.536,18.536,0,0,0-17.8,13.487c-10.884.342-19.492,10.428-19.492,22.845a26.548,26.548,0,0,0,.231,2.827c-7.922,3.634-13.595,13.634-13.595,25.432a31.814,31.814,0,0,0,6.03,19.151,25.457,25.457,0,0,0-.489,8.722c1.439,12.521,11.55,21.648,22.6,20.425a20.787,20.787,0,0,0,19.831,13.6c11.892,0,21.028-9.037,21.028-20.185V439.339C364.985,428.935,357.054,420.5,346.65,420.5Z" transform="translate(-295.989 -420.5)" fill="#fdcf00" stroke="#07412c" stroke-miterlimit="10" stroke-width="5"/>
          <path id="Path_2190" data-name="Path 2190" d="M325.61,449.211a18.858,18.858,0,0,1-18.059-24.224" transform="translate(-274.443 -411.533)" fill="none" stroke="#07412c" stroke-miterlimit="10" stroke-width="5"/>
          <path id="Path_2191" data-name="Path 2191" d="M304.976,450.094c5.892,3.52,12.734.435,17.648-5.385,6.213-7.355,16.449-10.224,22.662-2.866a8.827,8.827,0,0,1,1.739,3.046" transform="translate(-278.03 -386.42)" fill="none" stroke="#07412c" stroke-miterlimit="10" stroke-width="5"/>
          <path id="Path_2192" data-name="Path 2192" d="M331.65,436.571c-8.282,1.763-15.792-3.058-18.6-10.686" transform="translate(-261.887 -409.739)" fill="none" stroke="#07412c" stroke-miterlimit="10" stroke-width="5"/>
          <path id="Path_2193" data-name="Path 2193" d="M331.65,452.278c-8.282-1.763-15.792,3.058-18.6,10.683" transform="translate(-261.887 -357.721)" fill="none" stroke="#07412c" stroke-miterlimit="10" stroke-width="5"/>
          <path id="Path_2194" data-name="Path 2194" d="M315.743,431.269c-5.385,1.352-10.767,5.277-10.767,10.77" transform="translate(-278.03 -398.98)" fill="none" stroke="#07412c" stroke-miterlimit="10" stroke-width="5"/>
          <path id="Path_2195" data-name="Path 2195" d="M313.053,459.093c-5.388-1.349-10.77-5.274-10.77-10.77" transform="translate(-283.411 -364.899)" fill="none" stroke="#07412c" stroke-miterlimit="10" stroke-width="5"/>
          <path id="Path_2196" data-name="Path 2196" d="M307.824,488.157a19.292,19.292,0,0,1-2.926-9.781c0-11.148,9.3-20.185,21.294-20.185V455.5c0-4.711,6.722-10.767,11-10.767" transform="translate(-278.185 -372.071)" fill="none" stroke="#07412c" stroke-miterlimit="10" stroke-width="5"/>
          <path id="Path_2197" data-name="Path 2197" d="M301.385,438.451a9.419,9.419,0,1,1,0,18.839" transform="translate(-285.206 -384.627)" fill="none" stroke="#07412c" stroke-miterlimit="10" stroke-width="5"/>
        </g>
        <g id="Group_10364" data-name="Group 10364" transform="translate(378.732 420.5)">
          <path id="Path_2198" data-name="Path 2198" d="M337.728,420.5c8.545,0,14.944,5.7,17.253,13.493,10.884.342,21.172,11.568,21.172,23.987a25.834,25.834,0,0,1-.183,2.827c7.922,3.634,12.791,12.485,12.791,24.284a31.807,31.807,0,0,1-6.015,19.151,25.452,25.452,0,0,1,.495,8.722c-1.439,12.521-11.547,21.648-22.593,20.425a21.314,21.314,0,0,1-20.227,13.6C328.532,546.99,319,537.953,319,526.8V439.339A18.744,18.744,0,0,1,337.728,420.5Z" transform="translate(-318.781 -420.5)" fill="#fff" stroke="#07412c" stroke-miterlimit="10" stroke-width="5"/>
          <path id="Path_2199" data-name="Path 2199" d="M332.39,472.253a19.111,19.111,0,0,0,0-19.561" transform="translate(-292.023 -356.168)" fill="none" stroke="#07412c" stroke-miterlimit="10" stroke-width="5"/>
          <path id="Path_2200" data-name="Path 2200" d="M324.312,431.269c5.388,1.352,10.77,5.277,10.77,10.77" transform="translate(-308.166 -398.98)" fill="none" stroke="#07412c" stroke-miterlimit="10" stroke-width="5"/>
          <path id="Path_2201" data-name="Path 2201" d="M319.825,445.336c10.4,0,18.839-7.9,18.839-17.657" transform="translate(-317.132 -406.154)" fill="none" stroke="#07412c" stroke-miterlimit="10" stroke-width="5"/>
          <path id="Path_2202" data-name="Path 2202" d="M342.254,449.222c-10.989,0-16.146,7.064-16.146,18.839" transform="translate(-304.577 -363.103)" fill="none" stroke="#07412c" stroke-miterlimit="10" stroke-width="5"/>
          <path id="Path_2203" data-name="Path 2203" d="M343.154,456.3c-4.953-5.385-14.215-8.234-24.227-6.743" transform="translate(-318.927 -363.213)" fill="none" stroke="#07412c" stroke-miterlimit="10" stroke-width="5"/>
          <path id="Path_2204" data-name="Path 2204" d="M332.554,430.859c0,5.2,3.727,9.418,8.929,9.418h7.4" transform="translate(-291.695 -399.799)" fill="none" stroke="#07412c" stroke-miterlimit="10" stroke-width="5"/>
          <path id="Path_2205" data-name="Path 2205" d="M342.709,439.349a9.419,9.419,0,1,0,0,18.839" transform="translate(-290.228 -382.833)" fill="none" stroke="#07412c" stroke-miterlimit="10" stroke-width="5"/>
          <path id="Path_2206" data-name="Path 2206" d="M322.517,438.451a9.419,9.419,0,1,1,0,18.839" transform="translate(-311.753 -384.627)" fill="none" stroke="#07412c" stroke-miterlimit="10" stroke-width="5"/>
          <path id="Path_2207" data-name="Path 2207" d="M326.108,442.838c5.235-3.52,17.043-4.036,21.528,2.693" transform="translate(-304.577 -380.939)" fill="none" stroke="#07412c" stroke-miterlimit="10" stroke-width="5"/>
          <path id="Path_2208" data-name="Path 2208" d="M348.07,448.422a18.659,18.659,0,0,1-11.73,6.168" transform="translate(-284.129 -364.701)" fill="none" stroke="#07412c" stroke-miterlimit="10" stroke-width="5"/>
          <line id="Line_317" data-name="Line 317" y2="8.995" transform="translate(36.199 13.493)" fill="none" stroke="#07412c" stroke-miterlimit="10" stroke-width="5"/>
        </g>
        <path id="Path_2209" data-name="Path 2209" d="M357.142,532.045C377.861,496.646,371.645,449.3,340,421" transform="translate(101.917 0.999)" fill="none" stroke="#07412c" stroke-miterlimit="10" stroke-width="5"/>
        <path id="Path_2210" data-name="Path 2210" d="M342.006,468.808a85.886,85.886,0,0,0,7.04-8.662" transform="translate(105.926 79.228)" fill="none" stroke="#07412c" stroke-miterlimit="10" stroke-width="5"/>
        <path id="Path_2211" data-name="Path 2211" d="M301.042,427c-20.722,35.4-14.5,82.743,17.142,111.045" transform="translate(0 12.989)" fill="none" stroke="#07412c" stroke-miterlimit="10" stroke-width="5"/>
        <path id="Path_2212" data-name="Path 2212" d="M301.416,422a85.892,85.892,0,0,0-7.037,8.665" transform="translate(10.749 2.998)" fill="none" stroke="#07412c" stroke-miterlimit="10" stroke-width="5"/>
      </g>
    </g>
    <g id="Group_10354" data-name="Group 10354" transform="translate(620.595 -517.434)">
      <g id="Group_292-2" data-name="Group 292" transform="translate(181.168 517.434)">
        <path id="Path_1857-2" data-name="Path 1857" d="M161.4,88.655,32.892,3.558A21.192,21.192,0,0,0,0,21.228V191.421a21.192,21.192,0,0,0,32.892,17.669l128.511-85.1A21.192,21.192,0,0,0,161.4,88.655Z" transform="translate(0 8.944) rotate(-3)" fill="#fdcf00" stroke="#fdcf00" stroke-width="20" opacity="0.351"/>
      </g>
      <g id="Group_10370" data-name="Group 10370" transform="translate(3.168 122.144)">
        <path id="Path_2213" data-name="Path 2213" d="M295.82,419H202.44a6.44,6.44,0,0,0-6.44,6.44v161a6.44,6.44,0,0,0,6.44,6.44h112.7a6.44,6.44,0,0,0,6.44-6.44V444.76Z" transform="translate(0 0)" fill="none" stroke="#07412c" stroke-width="5"/>
        <path id="Path_2215" data-name="Path 2215" d="M295.82,419H202.44a6.44,6.44,0,0,0-6.44,6.44v161a6.44,6.44,0,0,0,6.44,6.44h112.7a6.44,6.44,0,0,0,6.44-6.44V444.76Z" transform="translate(0 0)" fill="#fff" stroke="#07412c" stroke-linejoin="round" stroke-width="5"/>
        <path id="Path_2214" data-name="Path 2214" d="M229.22,419H226v28.98h28.98v-3.22Z" transform="translate(66.6 0)" fill="#fdcf00" stroke="#07412c" stroke-width="5"/>
        <path id="Path_2216" data-name="Path 2216" d="M245.32,441.32H226V422" transform="translate(66.6 6.66)" fill="none" stroke="#07412c" stroke-linejoin="round" stroke-width="5"/>
        <path id="Path_2217" data-name="Path 2217" d="M268.62,460.66V451H246.08v22.54H223.54v9.66H201v19.32h90.16V460.66Z" transform="translate(11.1 71.041)" fill="rgba(66,113,30,0.38)" stroke="#07412c" stroke-width="5"/>
        <line id="Line_318" data-name="Line 318" x2="35.764" transform="translate(273.35 467.292)" fill="none" stroke="#07412c" stroke-miterlimit="10" stroke-width="5"/>
        <line id="Line_319" data-name="Line 319" x2="35.764" transform="translate(273.35 479.767)" fill="none" stroke="#07412c" stroke-miterlimit="10" stroke-width="5"/>
        <line id="Line_320" data-name="Line 320" x2="25.783" transform="translate(273.35 493.075)" fill="none" stroke="#07412c" stroke-miterlimit="10" stroke-width="5"/>
        <path id="Path_2218" data-name="Path 2218" d="M201,480.32V461h22.54v19.32" transform="translate(11.1 93.241)" fill="none" stroke="#07412c" stroke-miterlimit="10" stroke-width="5"/>
        <path id="Path_2219" data-name="Path 2219" d="M208,486.98V458h22.54v28.98" transform="translate(26.64 86.581)" fill="none" stroke="#07412c" stroke-miterlimit="10" stroke-width="5"/>
        <path id="Path_2220" data-name="Path 2220" d="M215,502.52V451h22.54v51.52" transform="translate(42.18 71.041)" fill="none" stroke="#07412c" stroke-miterlimit="10" stroke-width="5"/>
        <path id="Path_2221" data-name="Path 2221" d="M222,495.86V454h22.54v41.86" transform="translate(57.72 77.701)" fill="none" stroke="#07412c" stroke-miterlimit="10" stroke-width="5"/>
        <path id="Path_2222" data-name="Path 2222" d="M223.54,436c-10.127,0-22.54,4.943-22.54,9.66v9.66c0,4.721,12.413,9.66,22.54,9.66s22.54-4.94,22.54-9.66v-9.66C246.08,440.943,233.67,436,223.54,436Z" transform="translate(11.1 37.74)" fill="#fdcf00" stroke="#07412c" stroke-width="5"/>
        <path id="Path_2223" data-name="Path 2223" d="M216.88,455.938a12.6,12.6,0,0,0,12.88-12.4V439.4a12.889,12.889,0,0,0-25.76,0v4.134A12.6,12.6,0,0,0,216.88,455.938Z" transform="translate(17.76 17.76)" fill="#fff" stroke="#07412c" stroke-miterlimit="10" stroke-width="5"/>
        <path id="Path_2224" data-name="Path 2224" d="M246.065,455.32v-9.66c0-4.717-12.4-9.66-22.527-9.66s-22.53,4.943-22.53,9.66v9.66" transform="translate(11.116 37.74)" fill="none" stroke="#07412c" stroke-linecap="round" stroke-linejoin="round" stroke-width="5"/>
      </g>
    </g>
    <g id="Group_10756" data-name="Group 10756" transform="translate(-295 -298.001)">
      <text id="Agitation_is_a_neuropsychiatric_symptom_of_Alzheimer_s_dementia_that_can_contribute_to_a_significant_clinical_burden.1_2" data-name="Agitation is a neuropsychiatric symptom of Alzheimer’s dementia that can contribute to a significant clinical burden.1,2" transform="translate(530 345)" fill="#414042" font-size="34" font-family="Whitney-Book, Whitney"><tspan x="0" y="27">Agitation is a neuropsychiatric </tspan><tspan x="0" y="65">symptom of Alzheimer’s dementia </tspan><tspan x="0" y="103">that can contribute to a significant </tspan><tspan x="0" y="141">clinical burden.</tspan><tspan y="141" font-size="19.832" baseline-shift="11.332199483839085">1,2</tspan></text>
      <text id="What_is_AAD_" data-name="What is AAD?" transform="translate(530 300)" fill="#42711e" font-size="32" font-family="Whitney-Bold, Whitney" font-weight="700"><tspan x="0" y="31">What is AAD?</tspan></text>
    </g>
    <g id="Group_10757" data-name="Group 10757" transform="translate(-295 -293.001)">
      <text id="AAD_is_reported_in_45_of_community-living_patients_with_Alzheimer_s_dementia.3_" data-name="AAD is reported in 45% of 
community-living patients with Alzheimer’s dementia.3 " transform="translate(1319 380)" fill="#414042" font-size="34" font-family="Whitney-Book, Whitney"><tspan x="0" y="27">AAD is reported in 45% of </tspan><tspan x="0" y="65">community-living patients with </tspan><tspan x="0" y="103">Alzheimer’s dementia.</tspan><tspan y="103" font-size="19.832" baseline-shift="11.332199483839085">3</tspan><tspan y="103"> </tspan></text>
      <text id="Epidemiology" transform="translate(1319 331)" fill="#42711e" font-size="32" font-family="Whitney-Bold, Whitney" font-weight="700"><tspan x="0" y="31">Epidemiology</tspan></text>
    </g>
  </g>
</svg>
