<svg width="110" height="92" viewBox="0 0 110 92" fill="none" xmlns="http://www.w3.org/2000/svg">
<g clip-path="url(#clip0_1260_25)">
<path d="M68.5916 26.4647C54.1907 11.6274 49.3904 0 -2.54031 0C-54.471 0 90.0773 87.9794 90.0773 87.9794H110.068C110.068 87.9794 82.9926 41.3021 68.5916 26.4647Z" fill="#FDCF00"/>
<path d="M-105.448 90L-105.694 90.9692L-106.448 90.7778V90V1.29053V0.280212L-105.438 0.29058L-38.4486 0.978118H-38.4434L4.44261 0.97814C22.6544 0.97814 35.8319 7.80629 49.4389 22.2971C61.9385 35.6085 74.8793 55.4727 92.519 82.5497C93.9856 84.801 95.4848 87.1022 97.0188 89.4536C102.096 97.2357 102.957 103.465 99.8434 108.167C96.8176 112.737 90.2762 115.426 81.7296 116.869C64.5354 119.774 37.9427 117.832 10.2396 113.998C-17.5015 110.159 -46.4855 104.401 -68.5272 99.6049C-79.5497 97.2067 -88.8396 95.0482 -95.3745 93.4891C-98.642 92.7096 -101.221 92.0799 -102.983 91.6449C-103.865 91.4274 -104.542 91.2587 -104.999 91.1442C-105.227 91.0869 -105.401 91.0433 -105.517 91.0139L-105.649 90.9806L-105.683 90.9721L-105.691 90.97C-105.693 90.9695 -105.694 90.9692 -105.448 90Z" fill="white" stroke="#42711E" stroke-width="2"/>
<path d="M85.2715 73.5577L-273.269 73.5576L-287.434 94.9605L99.7441 95.4615L85.2715 73.5577Z" fill="white"/>
<path d="M98.7174 89.7573H-286.635L-288.363 92.7524H100.404L98.7174 89.7573Z" fill="white"/>
</g>
<defs>
<clipPath id="clip0_1260_25">
<rect width="110" height="92" fill="white" transform="matrix(-1 0 0 1 110 0)"/>
</clipPath>
</defs>
</svg>
