<svg width="409" height="93" viewBox="0 0 409 93" fill="none" xmlns="http://www.w3.org/2000/svg">
<g clip-path="url(#clip0_1256_32)">
<g clip-path="url(#clip1_1256_32)">
<path d="M35.0522 26.7667C42.184 14.9931 54.0407 0.0283203 89.3205 0.0283203C124.6 0.0283203 20.117 88.0107 20.117 88.0107H0.125897C0.125897 88.0107 27.9204 38.5403 35.0522 26.7667Z" fill="#FDCF00"/>
<path d="M13.126 89.5679L12.3684 91.0283H14.0137H215.643H216.643V90.0283V1.31885V0.308532L215.633 0.3189L148.644 1.00644H148.638L88.4238 1.00646C79.3312 1.00646 71.8853 2.96511 65.3777 6.8488C58.883 10.7247 53.3876 16.4794 48.1307 23.97C42.8771 31.4558 37.8292 40.7233 32.2522 51.6636C30.0492 55.9851 27.7669 60.561 25.3556 65.3956C21.6451 72.8349 17.629 80.887 13.126 89.5679Z" fill="white" stroke="#42711E" stroke-width="2"/>
</g>
<g clip-path="url(#clip2_1256_32)">
<rect width="220" height="92" transform="translate(94.2285 0.0283203)" fill="white"/>
<line x1="92.3252" y1="1.00879" x2="319.31" y2="1.00879" stroke="#42711E" stroke-width="2"/>
</g>
<g clip-path="url(#clip3_1256_32)">
<path d="M373.336 26.7667C366.205 14.9931 354.348 0.0283203 319.068 0.0283203C283.788 0.0283203 388.272 88.0107 388.272 88.0107H408.263C408.263 88.0107 380.468 38.5403 373.336 26.7667Z" fill="#FDCF00"/>
<path d="M395.263 89.5679L396.02 91.0283H394.375H192.746H191.746V90.0283V1.31885V0.308532L192.756 0.3189L259.745 1.00644H259.75L319.965 1.00646C329.057 1.00646 336.503 2.96511 343.011 6.8488C349.506 10.7247 355.001 16.4794 360.258 23.97C365.512 31.4558 370.559 40.7233 376.137 51.6636C378.339 55.9851 380.622 60.561 383.033 65.3956C386.744 72.8349 390.76 80.887 395.263 89.5679Z" fill="white" stroke="#42711E" stroke-width="2"/>
</g>
<path d="M22.5416 73.8287L385.872 73.8286L397.057 95.2315L11.042 95.7325L22.5416 73.8287Z" fill="white"/>
<path d="M11.5111 90.0283H396.864L398.592 93.0234H9.82422L11.5111 90.0283Z" fill="white"/>
</g>
<defs>
<clipPath id="clip0_1256_32">
<rect width="408" height="92" fill="white" transform="translate(0.228516 0.0283203)"/>
</clipPath>
<clipPath id="clip1_1256_32">
<rect width="96" height="92" fill="white" transform="translate(0.194336 0.0283203)"/>
</clipPath>
<clipPath id="clip2_1256_32">
<rect width="220" height="92" fill="white" transform="translate(94.2285 0.0283203)"/>
</clipPath>
<clipPath id="clip3_1256_32">
<rect width="96" height="92" fill="white" transform="matrix(-1 0 0 1 408.194 0.0283203)"/>
</clipPath>
</defs>
</svg>
