<svg width="97" height="91" viewBox="0 0 97 91" fill="none" xmlns="http://www.w3.org/2000/svg">
<g clip-path="url(#clip0_1242_19)">
<path d="M61.1461 27.3956C54.0142 15.622 42.1575 0.657227 6.8777 0.657227C-28.4021 0.657227 76.0812 88.6396 76.0812 88.6396H96.0723C96.0723 88.6396 68.2779 39.1692 61.1461 27.3956Z" fill="#FDCF00"/>
<path d="M83.0732 90.1968L83.8308 91.6572H82.1855H-119.444H-120.444V90.6572V1.94775V0.937439L-119.433 0.947807L-52.4443 1.63534H-52.4392L7.77545 1.63537C16.868 1.63537 24.3139 3.59402 30.8216 7.47771C37.3162 11.3536 42.8116 17.1084 48.0685 24.5989C53.3221 32.0847 58.37 41.3522 63.9471 52.2925C66.15 56.614 68.4323 61.1899 70.8437 66.0245C74.5541 73.4638 78.5703 81.5159 83.0732 90.1968Z" fill="white" stroke="#42711E" stroke-width="2"/>
</g>
<defs>
<clipPath id="clip0_1242_19">
<rect width="96" height="90" fill="white" transform="matrix(-1 0 0 1 96.0039 0.657227)"/>
</clipPath>
</defs>
</svg>
