<svg width="110" height="92" viewBox="0 0 110 92" fill="none" xmlns="http://www.w3.org/2000/svg">
<g clip-path="url(#clip0_1259_18)">
<path d="M41.4084 26.4647C55.8093 11.6274 60.6096 0 112.54 0C164.471 0 19.9227 87.9794 19.9227 87.9794H-0.0683594C-0.0683594 87.9794 27.0074 41.3021 41.4084 26.4647Z" fill="#FDCF00"/>
<path d="M215.448 90L215.694 90.9692L216.448 90.7778V90V1.29053V0.280212L215.438 0.29058L148.449 0.978118H148.443L105.557 0.97814C87.3456 0.97814 74.1681 7.80629 60.5611 22.2971C48.0615 35.6085 35.1207 55.4727 17.481 82.5497C16.0144 84.801 14.5152 87.1022 12.9812 89.4536C7.90414 97.2357 7.04323 103.465 10.1566 108.167C13.1824 112.737 19.7238 115.426 28.2704 116.869C45.4646 119.774 72.0573 117.832 99.7604 113.998C127.502 110.159 156.485 104.401 178.527 99.6049C189.55 97.2067 198.84 95.0482 205.375 93.4891C208.642 92.7096 211.221 92.0799 212.983 91.6449C213.865 91.4274 214.542 91.2587 214.999 91.1442C215.227 91.0869 215.401 91.0433 215.517 91.0139L215.649 90.9806L215.683 90.9721L215.691 90.97C215.693 90.9695 215.694 90.9692 215.448 90Z" fill="white" stroke="#42711E" stroke-width="2"/>
<path d="M24.7285 73.5577L383.269 73.5576L397.434 94.9605L10.2559 95.4615L24.7285 73.5577Z" fill="white"/>
<path d="M11.2826 89.7573H396.635L398.363 92.7524H9.5957L11.2826 89.7573Z" fill="white"/>
</g>
<defs>
<clipPath id="clip0_1259_18">
<rect width="110" height="92" fill="white"/>
</clipPath>
</defs>
</svg>
