<svg width="409" height="92" viewBox="0 0 409 92" fill="none" xmlns="http://www.w3.org/2000/svg">
<g clip-path="url(#clip0_1256_32)">
<g clip-path="url(#clip1_1256_32)">
<path d="M42.2053 26.7074C56.6062 11.8701 61.4065 0.242676 113.337 0.242676C165.268 0.242676 20.7196 88.2221 20.7196 88.2221H0.728516C0.728516 88.2221 27.8043 41.5447 42.2053 26.7074Z" fill="#FDCF00"/>
<path d="M216.245 90.2427L216.491 91.2119L217.245 91.0205V90.2427V1.5332V0.522888L216.235 0.533256L149.245 1.22079H149.24L106.354 1.22082C88.1425 1.22082 74.965 8.04896 61.358 22.5397C48.8584 35.8511 35.9176 55.7153 18.2779 82.7924C16.8112 85.0437 15.3121 87.3449 13.7781 89.6963C8.70101 97.4784 7.8401 103.708 10.9535 108.41C13.9793 112.98 20.5207 115.669 29.0673 117.112C46.2615 120.016 72.8542 118.075 100.557 114.241C128.298 110.401 157.282 104.643 179.324 99.8476C190.347 97.4494 199.636 95.2909 206.171 93.7318C209.439 92.9523 212.018 92.3226 213.78 91.8876C214.662 91.6701 215.339 91.5013 215.796 91.3868C216.024 91.3296 216.198 91.2859 216.314 91.2565L216.446 91.2233L216.479 91.2148L216.488 91.2127C216.49 91.2122 216.491 91.2119 216.245 90.2427Z" fill="white" stroke="#42711E" stroke-width="2"/>
</g>
<g clip-path="url(#clip2_1256_32)">
<path d="M367.388 26.7074C352.988 11.8701 348.187 0.242676 296.257 0.242676C244.326 0.242676 388.874 88.2221 388.874 88.2221H408.865C408.865 88.2221 381.789 41.5447 367.388 26.7074Z" fill="#FDCF00"/>
<path d="M193.349 90.2427L193.103 91.2119L192.349 91.0205V90.2427V1.5332V0.522888L193.359 0.533256L260.348 1.22079H260.353L303.239 1.22082C321.451 1.22082 334.629 8.04896 348.236 22.5397C360.735 35.8511 373.676 55.7153 391.316 82.7924C392.783 85.0437 394.282 87.3449 395.816 89.6963C400.893 97.4784 401.754 103.708 398.64 108.41C395.614 112.98 389.073 115.669 380.526 117.112C363.332 120.016 336.74 118.075 309.037 114.241C281.295 110.401 252.311 104.643 230.27 99.8476C219.247 97.4494 209.957 95.2909 203.422 93.7318C200.155 92.9523 197.576 92.3226 195.813 91.8876C194.932 91.6701 194.255 91.5013 193.798 91.3868C193.569 91.3296 193.396 91.2859 193.279 91.2565L193.148 91.2233L193.114 91.2148L193.106 91.2127C193.104 91.2122 193.103 91.2119 193.349 90.2427Z" fill="white" stroke="#42711E" stroke-width="2"/>
</g>
<g clip-path="url(#clip3_1256_32)">
<rect width="195" height="92" transform="translate(107.797 0.242676)" fill="white"/>
<line x1="105.894" y1="1.22314" x2="332.878" y2="1.22314" stroke="#42711E" stroke-width="2"/>
</g>
<path d="M25.5254 73.8004L384.066 73.8003L398.231 95.2032L11.0527 95.7042L25.5254 73.8004Z" fill="white"/>
<path d="M12.0795 90H397.432L399.16 92.9951H10.3926L12.0795 90Z" fill="white"/>
</g>
<defs>
<clipPath id="clip0_1256_32">
<rect width="408" height="92" fill="white" transform="translate(0.796875)"/>
</clipPath>
<clipPath id="clip1_1256_32">
<rect width="111" height="92" fill="white" transform="translate(0.796875 0.242676)"/>
</clipPath>
<clipPath id="clip2_1256_32">
<rect width="111" height="92" fill="white" transform="matrix(-1 0 0 1 408.797 0.242676)"/>
</clipPath>
<clipPath id="clip3_1256_32">
<rect width="195" height="92" fill="white" transform="translate(107.797 0.242676)"/>
</clipPath>
</defs>
</svg>
