<svg width="97" height="91" viewBox="0 0 97 91" fill="none" xmlns="http://www.w3.org/2000/svg">
<g clip-path="url(#clip0_1242_15)">
<path d="M34.8613 27.3956C41.9931 15.622 53.8498 0.657227 89.1296 0.657227C124.409 0.657227 19.9261 88.6396 19.9261 88.6396H-0.0650214C-0.0650214 88.6396 27.7294 39.1692 34.8613 27.3956Z" fill="#FDCF00"/>
<path d="M12.9346 90.1968L12.177 91.6572H13.8223H215.452H216.452V90.6572V1.94775V0.937439L215.441 0.947807L148.452 1.63534H148.447L88.2324 1.63537C79.1398 1.63537 71.6939 3.59402 65.1863 7.47771C58.6916 11.3536 53.1962 17.1084 47.9393 24.5989C42.6857 32.0847 37.6378 41.3522 32.0608 52.2925C29.8578 56.614 27.5755 61.1899 25.1642 66.0245C21.4537 73.4638 17.4376 81.5159 12.9346 90.1968Z" fill="white" stroke="#42711E" stroke-width="2"/>
</g>
<defs>
<clipPath id="clip0_1242_15">
<rect width="96" height="90" fill="white" transform="translate(0.00341797 0.657227)"/>
</clipPath>
</defs>
</svg>
