<svg id="Component_51_11" data-name="Component 51 – 11" xmlns="http://www.w3.org/2000/svg" width="413" height="815" viewBox="0 0 413 815">
  <rect id="Rectangle_304" data-name="Rectangle 304" width="413" height="815" fill="#efefef" opacity="0.531"/>
  <path id="Path_2405" data-name="Path 2405" d="M224.917,123.541,45.836,4.958C26.2-8.041,0,6.036,0,29.581V266.746c0,23.544,26.2,37.62,45.836,24.621L224.917,172.786A29.531,29.531,0,0,0,224.917,123.541Z" transform="translate(74.128 192.385) rotate(-3)" fill="none" stroke="#9d9d9d" stroke-width="20" opacity="0.182"/>
  <g id="Group_10395" data-name="Group 10395" transform="translate(-361 -382.969)">
    <g id="Group_10394" data-name="Group 10394" transform="translate(411.821 562.891)">
      <text id="_2" data-name="2" transform="translate(0 42.133)" fill="#07412c" font-size="188" font-family="Whitney-Black" font-weight="800"><tspan x="0" y="0">2</tspan></text>
      <text id="times_" data-name="times*" transform="translate(108.19 99.295)" fill="#42711e" font-size="81" font-family="Whitney-Bold, Whitney" font-weight="700"><tspan x="0" y="78">times</tspan><tspan y="78" font-size="70">*</tspan></text>
    </g>
  </g>
  <text id="faster_functional_decline1_HR_1.5_for_patients_with_Alzheimer_s_dementia_with_agitation_vs_without_" data-name="faster functional decline1
(HR =1.5 for patients with Alzheimer’s dementia with agitation vs without) 
" transform="translate(36 528)" fill="#42711e" font-size="30" font-family="Whitney-Bold, Whitney" font-weight="700"><tspan x="0" y="29">faster functional decline</tspan><tspan y="29" font-size="17.499" baseline-shift="9.999000313881634">1</tspan><tspan fill="#414042" font-family="Whitney-Book, Whitney" font-weight="400"><tspan x="0" y="67">(HR =1.5 for patients with </tspan><tspan x="-10" y="105">Alzheimer’s dementia with </tspan><tspan x="20" y="143">agitation vs without) </tspan><tspan x="0" y="181"></tspan></tspan></text>
  <text id="_" data-name="†" transform="translate(88 564)" fill="#414042" font-size="17.499" font-family="Whitney-Book, Whitney" baseline-shift="9.999000313881634"><tspan x="-4.353" y="24">†</tspan></text>
</svg>
