<svg xmlns="http://www.w3.org/2000/svg" width="417" height="815" viewBox="0 0 417 815">
  <g id="Component_53_2" data-name="Component 53 – 2" transform="translate(0.5)">
    <rect id="Rectangle_305" data-name="Rectangle 305" width="413" height="815" transform="translate(3.5)" fill="#efefef" opacity="0.531"/>
    <text id="higher_rate_of_institutionalization3_in_patients_with_early_cognitive_impairment_or_Alzheimer_s_dementia_with_agitation_vs_without_" data-name="higher rate of institutionalization3
(in patients with early cognitive impairment or Alzheimer’s dementia with agitation vs without)" transform="translate(37.5 528)" fill="#42711e" font-size="30" font-family="Whitney-Bold, Whitney" font-weight="700"><tspan x="80" y="29">higher rate of </tspan><tspan x="45" y="67">institutionalization</tspan><tspan y="63" font-size="17.499" baseline-shift="9.999000313881634">3</tspan><tspan fill="#414042" font-family="Whitney-Book, Whitney" font-weight="400"><tspan x="30" y="105">(in patients with early </tspan><tspan x="20" y="143">cognitive impairment or </tspan><tspan x="0" y="181">Alzheimer’s dementia with </tspan><tspan x="40" y="219">agitation vs without)</tspan></tspan></text>
    <line id="Line_442" data-name="Line 442" x1="6" y2="814" transform="translate(0 0.5)" fill="none" stroke="#42711e" stroke-width="1"/>
    <g id="Group_10979" data-name="Group 10979" transform="translate(-1133.5 -372)">
      <g id="Group_10397" data-name="Group 10397" transform="translate(772 -10.969)">
        <g id="Group_10394" data-name="Group 10394" transform="translate(411.821 562.891)">
          <g id="Group_10383" data-name="Group 10383" transform="translate(8.307)" opacity="0.7">
            <g id="Group_267" data-name="Group 267" transform="translate(0 0)">
              <path id="Path_1856" data-name="Path 1856" d="M224.917,123.541,45.836,4.958C26.2-8.041,0,6.036,0,29.581V266.746c0,23.544,26.2,37.62,45.836,24.621L224.917,172.786A29.531,29.531,0,0,0,224.917,123.541Z" transform="translate(11 12.463) rotate(-3)" fill="#fff" stroke="#9d9d9d" stroke-width="20" opacity="0.253"/>
            </g>
          </g>
          <text id="_4" data-name="4" transform="translate(-6 42.133)" fill="#07412c" font-size="188" font-family="Whitney-Black" font-weight="800"><tspan x="0" y="0">4</tspan></text>
          <text id="times" transform="translate(108.19 99.295)" fill="#42711e" font-size="81" font-family="Whitney-Bold, Whitney" font-weight="700"><tspan x="0" y="78">times</tspan></text>
        </g>
      </g>
      <text id="_" data-name="§" transform="translate(1486 653.162)" fill="#42711e" font-size="47.247" font-family="Whitney-Semibold, Whitney" font-weight="600" baseline-shift="26.997299539640263"><tspan x="0" y="78">§</tspan></text>
    </g>
  </g>
</svg>
