<svg xmlns="http://www.w3.org/2000/svg" width="390" height="814.007" viewBox="0 0 390 814.007">
  <g id="Component_54_1" data-name="Component 54 – 1" transform="translate(0.5 0.004)">
    <text id="earlier_death2_HR_1.9_for_patients_with_Alzheimer_s_dementia_with_agitation_vs_without_" data-name="earlier death2
(HR=1.9 for patients with Alzheimer’s dementia with agitation vs without) " transform="translate(37.5 527.5)" fill="#42711e" font-size="30" font-family="Whitney-Bold, Whitney" font-weight="700"><tspan x="100" y="29">earlier death</tspan><tspan y="29" font-size="17.499" baseline-shift="9.999000313881634">2</tspan><tspan fill="#414042" font-family="Whitney-Book, Whitney" font-weight="400"><tspan x="20" y="67">(HR=1.9 for patients with </tspan><tspan x="10" y="105">Alzheimer’s dementia with </tspan><tspan x="50" y="143">agitation vs without) </tspan></tspan></text>
    <line id="Line_443" data-name="Line 443" x1="6" y2="814" fill="none" stroke="#42711e" stroke-width="1"/>
    <g id="Group_10980" data-name="Group 10980" transform="translate(-1532.5 -372.5)">
      <g id="Group_10398" data-name="Group 10398" transform="translate(1172 -10.969)">
        <g id="Group_10394" data-name="Group 10394" transform="translate(411.821 562.891)">
          <g id="Group_10383" data-name="Group 10383" transform="translate(8.307)" opacity="0.7">
            <g id="Group_267" data-name="Group 267" transform="translate(0 0)">
              <path id="Path_1856" data-name="Path 1856" d="M224.917,123.541,45.836,4.958C26.2-8.041,0,6.036,0,29.581V266.746c0,23.544,26.2,37.62,45.836,24.621L224.917,172.786A29.531,29.531,0,0,0,224.917,123.541Z" transform="translate(0 12.463) rotate(-3)" fill="none" stroke="#9d9d9d" stroke-width="20" opacity="0.246"/>
            </g>
          </g>
          <text id="_2" data-name="2" transform="translate(0 42.133)" fill="#07412c" font-size="188" font-family="Whitney-Black" font-weight="800"><tspan x="0" y="0">2</tspan></text>
          <text id="times" transform="translate(108.19 99.295)" fill="#42711e" font-size="81" font-family="Whitney-Bold, Whitney" font-weight="700"><tspan x="0" y="78">times</tspan></text>
        </g>
      </g>
      <g id="Group_10974" data-name="Group 10974" transform="translate(275.989 -374.023)">
        <g id="Group_10394-2" data-name="Group 10394" transform="translate(411.821 562.891)">
          <text id="_" data-name="‡" transform="translate(1199.19 464.295)" fill="#42711e" font-size="47.247" font-family="Whitney-Semibold, Whitney" font-weight="600" baseline-shift="26.997299539640263"><tspan x="0" y="78">‡</tspan></text>
        </g>
      </g>
    </g>
  </g>
</svg>
