<svg width="40" height="40" viewBox="0 0 40 40" fill="none" xmlns="http://www.w3.org/2000/svg">
<path fill-rule="evenodd" clip-rule="evenodd" d="M24.5 10.6197V12H20.5V10.6197C20.5 10.2775 20.2761 10 20 10C19.7239 10 19.5 10.2775 19.5 10.6197V12H15.5V10.6197C15.5 10.2775 15.2761 10 15 10C14.7239 10 14.5 10.2775 14.5 10.6197V12H10.5V17V18.2394V30H29.5V18.2394V17V12H25.5V10.6197C25.5 10.2775 25.2761 10 25 10C24.7239 10 24.5 10.2775 24.5 10.6197ZM14.5 14.9662V13.2363H11.7773V17H28.223V13.2363H25.5V14.9662C25.5 15.3085 25.2761 15.5859 25 15.5859C24.7239 15.5859 24.5 15.3085 24.5 14.9662V13.2363H20.5V14.9662C20.5 15.3085 20.2761 15.5859 20 15.5859C19.7239 15.5859 19.5 15.3085 19.5 14.9662V13.2363H15.5V14.9662C15.5 15.3085 15.2761 15.5859 15 15.5859C14.7239 15.5859 14.5 15.3085 14.5 14.9662ZM28.223 18.2394V28.7635H11.7773V18.2394H28.223ZM20.7262 20.4753L21.7375 23.6874L22.5863 20.4602C22.6733 20.1295 23.0082 19.9329 23.3343 20.0211C23.6604 20.1093 23.8543 20.4489 23.7673 20.7796L22.3806 26.0517C22.2233 26.6498 21.3937 26.6702 21.208 26.0805L20.144 22.7013L19.0801 26.0805C18.8944 26.6702 18.0648 26.6498 17.9075 26.0517L16.5208 20.7796C16.4338 20.4489 16.6277 20.1093 16.9538 20.0211C17.2799 19.9329 17.6148 20.1295 17.7017 20.4602L18.5506 23.6874L19.5619 20.4753C19.7429 19.9004 20.5452 19.9004 20.7262 20.4753Z" fill="#1D55A3"/>
</svg>
