<svg width="40" height="40" viewBox="0 0 40 40" fill="none" xmlns="http://www.w3.org/2000/svg">
<path fill-rule="evenodd" clip-rule="evenodd" d="M11.5161 16.0896C11.5161 13.454 13.4915 11.3101 15.9194 11.3101C18.3478 11.3101 20.3226 13.454 20.3226 16.0896C20.3226 17.9535 19.3349 19.5715 17.8976 20.3592C19.323 20.6991 20.6063 21.398 21.6434 22.3535C22.4368 21.4042 23.4983 20.7143 24.6902 20.3716C23.6424 19.7219 22.9355 18.504 22.9355 17.1117C22.9355 15.0389 24.5023 13.3525 26.428 13.3525C28.3542 13.3525 29.921 15.0389 29.921 17.1117C29.921 18.5037 29.2144 19.7214 28.1669 20.3711C30.7447 21.1123 32.6278 23.4597 32.6278 26.2411V26.8085H24.1513C24.2529 27.3228 24.3061 27.8542 24.3061 28.3978V28.9653H7.53319V28.3978C7.53319 24.5025 10.2644 21.2361 13.9414 20.3593C12.5041 19.5716 11.5161 17.9536 11.5161 16.0896ZM23.8404 25.6736H31.4445C31.1589 23.191 29.0221 21.2624 26.4281 21.2624C24.8434 21.2624 23.3833 21.988 22.4366 23.1924C23.04 23.9261 23.5185 24.7636 23.8404 25.6736ZM19.1717 16.0895C19.1717 14.0765 17.7158 12.4448 15.9193 12.4448C14.1229 12.4448 12.667 14.0765 12.667 16.0895C12.667 18.1024 14.1229 19.7341 15.9193 19.7341C17.7158 19.7341 19.1717 18.1024 19.1717 16.0895ZM23.1325 27.8302C22.8392 24.155 19.7218 21.2626 15.9195 21.2626C12.1172 21.2626 8.9998 24.155 8.70653 27.8302H23.1325ZM26.428 14.4873C27.7217 14.4873 28.7701 15.6625 28.7701 17.1116C28.7701 18.5606 27.7217 19.7358 26.428 19.7358C25.1348 19.7358 24.0864 18.5606 24.0864 17.1116C24.0864 15.6625 25.1348 14.4873 26.428 14.4873Z" fill="#1D55A3"/>
</svg>
