<svg width="32" height="32" viewBox="0 0 32 32" fill="none" xmlns="http://www.w3.org/2000/svg">
<path fill-rule="evenodd" clip-rule="evenodd" d="M1 8C0.447715 8 0 8.44772 0 9C0 9.55228 0.447716 10 1 10H21C21.5523 10 22 9.55228 22 9C22 8.44772 21.5523 8 21 8H1ZM0 16C0 15.4477 0.447715 15 1 15H16C16.5523 15 17 15.4477 17 16C17 16.5523 16.5523 17 16 17H1C0.447715 17 0 16.5523 0 16ZM0 23C0 22.4477 0.447715 22 1 22H24C24.5523 22 25 22.4477 25 23C25 23.5523 24.5523 24 24 24H1C0.447716 24 0 23.5523 0 23Z" fill="white"/>
</svg>
