<svg width="40" height="40" viewBox="0 0 40 40" fill="none" xmlns="http://www.w3.org/2000/svg">
<path fill-rule="evenodd" clip-rule="evenodd" d="M11.4563 14.459H15.0737V13.0092C15.0737 11.9028 15.9924 11 17.1182 11H22.9919C24.1173 11 25.0359 11.9029 25.0359 13.0092V14.459H28.5437C30.4461 14.459 32 15.9862 32 17.8566V26.6022C32 28.4722 30.446 29.9998 28.5437 29.9998H11.4563C9.55404 29.9998 8 28.4722 8 26.6022V17.8566C8 15.9862 9.55386 14.459 11.4563 14.459ZM23.7717 14.459H16.3379V13.0092C16.3379 12.5892 16.6905 12.2427 17.1182 12.2427H22.9919C23.4192 12.2427 23.7717 12.5892 23.7717 13.0092V14.459ZM30.7358 26.6022C30.7358 27.7859 29.7478 28.7571 28.5437 28.7571H11.4563C10.2522 28.7571 9.26416 27.7859 9.26416 26.6022V17.8566C9.26416 16.6726 10.252 15.7017 11.4563 15.7017H28.5437C29.748 15.7017 30.7358 16.6726 30.7358 17.8566V26.6022ZM22.6795 27.2928H17.3201V24.8634H14.8486V19.595H17.3201V17.1655H22.6795V19.595H25.1509V24.8634H22.6795V27.2928ZM21.4153 26.0501V23.6207H23.8868V20.8376H21.4153V18.4082H18.5842V20.8376H16.1128V23.6207H18.5842V26.0501H21.4153Z" fill="#1D55A3"/>
</svg>
