<svg width="40" height="40" viewBox="0 0 40 40" fill="none" xmlns="http://www.w3.org/2000/svg">
<path fill-rule="evenodd" clip-rule="evenodd" d="M15 15.4443C15 12.4425 17.2427 10 19.9997 10C22.7568 10 25 12.4425 25 15.4443C25 17.4759 23.9725 19.2511 22.4535 20.1864C26.7902 21.2252 30 24.9543 30 29.3953V30.0002H10V29.3953C10 24.9546 13.2099 21.2255 17.5462 20.1865C16.0274 19.2512 15 17.476 15 15.4443ZM23.7682 15.4444C23.7682 13.1091 22.0813 11.2158 19.9998 11.2158C17.9184 11.2158 16.2314 13.1091 16.2314 15.4444C16.2314 17.7792 17.9184 19.6724 19.9998 19.6724C22.0813 19.6724 23.7682 17.7792 23.7682 15.4444ZM28.7033 28.7906C28.3771 24.4962 24.6053 21.1084 20.0001 21.1084C15.3953 21.1084 11.6231 24.4964 11.2969 28.7906H28.7033Z" fill="#1D55A3"/>
</svg>
