<svg width="40" height="40" viewBox="0 0 40 40" fill="none" xmlns="http://www.w3.org/2000/svg">
<path fill-rule="evenodd" clip-rule="evenodd" d="M19.0715 11.5427V15.7134C19.0715 16.1023 18.7562 16.4176 18.3673 16.4176C17.9784 16.4176 17.6631 16.1023 17.6631 15.7134V11.5427C17.6631 10.5436 18.4781 9.72803 19.4772 9.72803H29.0293C30.0288 9.72803 30.8439 10.5435 30.8439 11.5427V28.3584C30.8439 29.3581 30.0289 30.1731 29.0293 30.1731H19.4772C18.478 30.1731 17.6631 29.3579 17.6631 28.3584V24.1585C17.6631 23.7695 17.9784 23.4542 18.3673 23.4542C18.7562 23.4542 19.0715 23.7695 19.0715 24.1585V28.3584C19.0715 28.5802 19.2559 28.7646 19.4772 28.7646H29.0293C29.2511 28.7646 29.4355 28.5802 29.4355 28.3584V11.5427C29.4355 11.3212 29.2508 11.1365 29.0293 11.1365H19.4772C19.2562 11.1365 19.0715 11.3213 19.0715 11.5427ZM15.0765 16.3365C15.3516 16.0615 15.3516 15.6156 15.0766 15.3406C14.8016 15.0655 14.3557 15.0655 14.0807 15.3405L10.1331 19.2875C9.85801 19.5626 9.85799 20.0085 10.133 20.2835L14.0806 24.2311C14.3556 24.5061 14.8015 24.5061 15.0766 24.2311C15.3516 23.9561 15.3516 23.5102 15.0766 23.2352L12.3309 20.4895H24.0682C24.4572 20.4895 24.7725 20.1742 24.7725 19.7853C24.7725 19.3963 24.4572 19.0811 24.0682 19.0811H12.3316L15.0765 16.3365Z" fill="#1D55A3"/>
</svg>
