<svg xmlns="http://www.w3.org/2000/svg" xmlns:xlink="http://www.w3.org/1999/xlink" width="63.518" height="63.518" viewBox="0 0 63.518 63.518">
  <defs>
    <filter id="Path_18" x="0" y="0" width="63.518" height="63.518" filterUnits="userSpaceOnUse">
      <feOffset dy="2" input="SourceAlpha"/>
      <feGaussianBlur stdDeviation="1" result="blur"/>
      <feFlood flood-opacity="0.4"/>
      <feComposite operator="in" in2="blur"/>
      <feComposite in="SourceGraphic"/>
    </filter>
  </defs>
  <g id="Icon_ionic-ios-arrow-dropleft" data-name="Icon ionic-ios-arrow-dropleft" transform="translate(3 1)">
    <path id="Path_17" data-name="Path 17" d="M29.905,10.76a2.679,2.679,0,0,0-3.775,0L12.94,23.992a2.666,2.666,0,0,0-.083,3.678l13,13.038a2.664,2.664,0,1,0,3.775-3.761L18.6,25.748,29.919,14.535A2.666,2.666,0,0,0,29.905,10.76Z" transform="translate(5.117 3.011)" fill="#07412c"/>
    <g transform="matrix(1, 0, 0, 1, -3, -1)" filter="url(#Path_18)">
      <path id="Path_18-2" data-name="Path 18" d="M32.134,3.375A28.759,28.759,0,1,0,60.893,32.134,28.755,28.755,0,0,0,32.134,3.375Zm17.2,45.959a24.325,24.325,0,1,1-34.4-34.4,24.325,24.325,0,1,1,34.4,34.4Z" transform="translate(-0.37 -2.37)" fill="#07412c"/>
    </g>
  </g>
</svg>
