<?xml version="1.0" encoding="UTF-8"?>
<svg width="25px" height="24px" viewBox="0 0 25 24" version="1.1" xmlns="http://www.w3.org/2000/svg" xmlns:xlink="http://www.w3.org/1999/xlink">
    <title>Expand Icon</title>
    <g id="Veeva-Assets" stroke="none" stroke-width="1" fill="none" fill-rule="evenodd">
        <g id="Graphics/Visual-Container" transform="translate(-594.000000, -11.000000)" fill-rule="nonzero">
            <g id="Expand-Icon" transform="translate(594.440000, 11.000000)">
                <path d="M12,5.037748e-14 C18.61728,5.037748e-14 24,5.38304298 24,12 C24,18.616957 18.61728,24 12,24 C5.3832,24 6.2499339e-12,18.616957 6.2499339e-12,12 C6.2499339e-12,5.38304298 5.3832,5.037748e-14 12,5.037748e-14 Z" id="Shape" fill="#07412C" transform="translate(12.000000, 12.000000) rotate(-315.000000) translate(-12.000000, -12.000000) "></path>
                <path d="M15.2882054,7.29182377 L12.0000435,10.580183 L8.71188159,7.29147568 C8.31996137,6.89953195 7.68439627,6.89918388 7.29212799,7.29147568 C6.90020777,7.68341941 6.90020777,8.31937076 7.29212799,8.71131449 L10.5802899,12.0000218 L7.29177991,15.2883809 C6.8998597,15.6806728 6.8998597,16.316276 7.29177991,16.7082197 C7.68439627,17.1008597 8.31961332,17.1005116 8.71188159,16.7085678 L12.0000435,13.4198606 L15.2882054,16.7082197 C15.6801256,17.1001635 16.3160388,17.1005116 16.707959,16.7085678 C17.1005753,16.3159279 17.0998792,15.6803247 16.707959,15.2883809 L13.4197971,12.0000218 L16.707959,8.71166256 C17.0998792,8.32006692 17.1005753,7.6841156 16.707959,7.29182377 C16.3160388,6.89953195 15.6801256,6.89988004 15.2882054,7.29182377 Z" id="Path" fill="#FFFFFF" transform="translate(12.000000, 12.000000) rotate(-315.000000) translate(-12.000000, -12.000000) "></path>
            </g>
        </g>
    </g>
</svg>