<svg xmlns="http://www.w3.org/2000/svg" width="184.831" height="217.072" viewBox="0 0 184.831 217.072">
  <g id="Component_67_1" data-name="Component 67 – 1" transform="translate(4 10.51)">
    <path id="Path_2147" data-name="Path 2147" d="M142.989,78.54,29.14,3.152A18.774,18.774,0,0,0,0,18.806V169.581a18.774,18.774,0,0,0,29.14,15.653l113.849-75.387A18.774,18.774,0,0,0,142.989,78.54Z" transform="translate(9.272 7.924) rotate(-3)" fill="#fdcf00" stroke="#fdcf00" stroke-width="20" opacity="0.4"/>
    <g id="Group_10320" data-name="Group 10320" transform="translate(0 24.213)">
      <path id="Path_2149" data-name="Path 2149" d="M2436.495,775.544c-12.009,8.224-22.071,13.825-23.531,14.2-3.891-1.01-68.964-39.159-68.964-65.133v-72.8c19.456,0,62.155-17.423,68.964-26.819,6.809,9.4,49.508,26.819,68.964,26.819V686.3" transform="translate(-2344 -625)" fill="none" stroke="#07412c" stroke-linecap="round" stroke-linejoin="round" stroke-width="8"/>
      <path id="Path_2150" data-name="Path 2150" d="M2557.639,829.964h26.837c3.087,0,4.89-3.876,3.11-6.685L2549.255,762.8a3.592,3.592,0,0,0-6.22,0L2504.7,823.279c-1.78,2.808.023,6.685,3.11,6.685h26.837" transform="translate(-2427.373 -695.867)" fill="#fff" stroke="#07412c" stroke-linejoin="round" stroke-width="8"/>
      <line id="Line_277" data-name="Line 277" y2="30.882" transform="translate(118.631 91.666)" fill="none" stroke="#07412c" stroke-linejoin="round" stroke-width="8"/>
      <line id="Line_278" data-name="Line 278" y2="8.029" transform="translate(118.631 129.959)" fill="none" stroke="#07412c" stroke-linejoin="round" stroke-width="8"/>
      <path id="Path_2151" data-name="Path 2151" d="M2431.284,832.6c-10.331-5.631-47.284-29.178-47.284-45.812V753.506" transform="translate(-2364.844 -691.962)" fill="none" stroke="#07412c" stroke-linecap="round" stroke-linejoin="round" stroke-width="8"/>
      <path id="Path_2152" data-name="Path 2152" d="M2424.972,688.141c13.213-4.272,27.031-11.01,30.185-15.363,4.918,6.786,35.755,19.369,49.807,19.369V699.7" transform="translate(-2386.193 -649.896)" fill="none" stroke="#07412c" stroke-linecap="round" stroke-linejoin="round" stroke-width="8"/>
    </g>
  </g>
</svg>
