<svg xmlns="http://www.w3.org/2000/svg" width="185.31" height="217.072" viewBox="0 0 185.31 217.072">
  <g id="Component_66_1" data-name="Component 66 – 1" transform="translate(4 10.51)">
    <path id="Path_2148" data-name="Path 2148" d="M142.988,78.54,29.14,3.152A18.774,18.774,0,0,0,0,18.806V169.581a18.774,18.774,0,0,0,29.14,15.653l113.849-75.387A18.774,18.774,0,0,0,142.988,78.54Z" transform="translate(9.751 7.923) rotate(-3)" fill="#42711e" stroke="#42711e" stroke-width="20" opacity="0.247"/>
    <g id="Group_10319" data-name="Group 10319" transform="translate(0 23.734)">
      <path id="Path_2143" data-name="Path 2143" d="M1791.453,2695.652c-16.286,12.358-32.6,21.6-34.489,22.1-3.891-1.01-68.964-39.159-68.964-65.132v-72.8c19.456,0,62.155-17.423,68.964-26.819,6.809,9.4,49.508,26.819,68.964,26.819v38.313" transform="translate(-1688 -2553)" fill="none" stroke="#07412c" stroke-linecap="round" stroke-linejoin="round" stroke-width="8"/>
      <path id="Path_2144" data-name="Path 2144" d="M1952.458,2720.325l-49.807,49.807L1872,2739.482l15.325-15.326,15.325,15.326L1937.133,2705Z" transform="translate(-1783.879 -2632.205)" fill="#fff" stroke="#07412c" stroke-linecap="round" stroke-linejoin="round" stroke-width="8"/>
      <path id="Path_2145" data-name="Path 2145" d="M1797.322,2749.817c-9.748,6.885-18.36,11.711-19.514,12.011-2.81-.729-49.807-28.281-49.807-47.04v-33.282" transform="translate(-1708.843 -2619.963)" fill="none" stroke="#07412c" stroke-linecap="round" stroke-linejoin="round" stroke-width="8"/>
      <path id="Path_2146" data-name="Path 2146" d="M1768.972,2616.141c13.212-4.272,27.031-11.01,30.185-15.363,4.918,6.786,35.755,19.369,49.807,19.369v38.207" transform="translate(-1730.193 -2577.896)" fill="none" stroke="#07412c" stroke-linecap="round" stroke-linejoin="round" stroke-width="8"/>
    </g>
  </g>
</svg>
